<svg width="16" height="18" viewBox="0 0 16 18" fill="none" xmlns="http://www.w3.org/2000/svg">
<path d="M7.98698 0.666504C10.5443 0.666504 12.6022 2.67923 12.6022 5.16357V6.44092C14.0374 6.88889 15.0835 8.18805 15.0837 9.73975V13.854C15.0837 15.7752 13.4906 17.3334 11.527 17.3335H4.47429C2.50975 17.3335 0.916672 15.7752 0.916672 13.854V9.73975C0.916864 8.18805 1.9638 6.88889 3.39812 6.44092V5.16357C3.40658 2.67933 5.46372 0.666674 7.98698 0.666504ZM7.99577 10.1538C7.58943 10.1538 7.25963 10.4762 7.25945 10.8735V12.7124C7.25951 13.1181 7.58936 13.4409 7.99577 13.4409C8.41065 13.4409 8.74083 13.1181 8.74089 12.7124V10.8735C8.74071 10.4762 8.41058 10.1538 7.99577 10.1538ZM8.00456 2.11572C6.28559 2.11572 4.88803 3.47418 4.87956 5.14697V6.26123H11.1208V5.16357C11.1208 3.4826 9.72338 2.11589 8.00456 2.11572Z" fill="white"/>
</svg>
