<svg width="16" height="18" viewBox="0 0 16 18" fill="none" xmlns="http://www.w3.org/2000/svg">
<path d="M7.9821 0.666504C9.9551 0.666504 11.6989 1.88512 12.3425 3.68994C12.4101 3.8721 12.3929 4.07076 12.3083 4.24463C12.2236 4.41844 12.0724 4.551 11.8854 4.60986C11.5044 4.74156 11.0802 4.54361 10.9362 4.1626C10.5043 2.93603 9.31961 2.11572 7.9987 2.11572C6.27065 2.11596 4.87426 3.47532 4.86491 5.13916V6.25732L4.85515 6.25928H11.526C13.4906 6.2593 15.0837 7.81717 15.0837 9.73877V13.854C15.0834 15.7754 13.4904 17.3335 11.526 17.3335H4.47331C2.50977 17.3335 0.916915 15.7754 0.916672 13.854V9.73877C0.916672 8.15851 2.00032 6.83872 3.47527 6.41455L3.38347 6.42529V5.15576C3.40042 2.68008 5.45875 0.666569 7.9821 0.666504ZM7.99577 10.1519C7.58932 10.1519 7.25946 10.475 7.25945 10.8726V12.7114C7.25948 13.1173 7.58934 13.4399 7.99577 13.4399C8.41067 13.4399 8.74086 13.1173 8.74089 12.7114V10.8726C8.74088 10.475 8.41069 10.1519 7.99577 10.1519Z" fill="white"/>
</svg>
