<svg width="14" height="14" viewBox="0 0 14 14" fill="none" xmlns="http://www.w3.org/2000/svg">
<path fill-rule="evenodd" clip-rule="evenodd" d="M0.333313 7.00016C0.333313 3.31816 3.31798 0.333496 6.99998 0.333496C10.682 0.333496 13.6666 3.31816 13.6666 7.00016C13.6666 10.6822 10.682 13.6668 6.99998 13.6668C3.31798 13.6668 0.333313 10.6822 0.333313 7.00016ZM6.99998 4.3335C6.99998 4.15668 6.92974 3.98712 6.80472 3.86209C6.67969 3.73707 6.51012 3.66683 6.33331 3.66683C6.1565 3.66683 5.98693 3.73707 5.86191 3.86209C5.73688 3.98712 5.66665 4.15668 5.66665 4.3335V7.66683C5.66665 7.84364 5.73688 8.01321 5.86191 8.13823C5.98693 8.26326 6.1565 8.3335 6.33331 8.3335H9.66665C9.84346 8.3335 10.013 8.26326 10.1381 8.13823C10.2631 8.01321 10.3333 7.84364 10.3333 7.66683C10.3333 7.49002 10.2631 7.32045 10.1381 7.19542C10.013 7.0704 9.84346 7.00016 9.66665 7.00016H6.99998V4.3335Z" fill="#B5B4B4"/>
</svg>
