<svg width="11" height="14" viewBox="0 0 11 14" fill="none" xmlns="http://www.w3.org/2000/svg">
<path d="M7.10909 5.35549C7.10909 4.7112 7.96681 4.54015 8.19407 5.14372C8.7447 6.60171 9.14546 7.90821 9.14546 8.61359C9.14546 9.69372 8.71637 10.7296 7.95258 11.4934C7.1888 12.2571 6.15288 12.6862 5.07273 12.6862C3.99257 12.6862 2.95666 12.2571 2.19287 11.4934C1.42909 10.7296 1 9.69372 1 8.61359C1 7.85608 1.46266 6.40541 2.07683 4.81546C2.87101 2.75635 3.26851 1.72679 3.75968 1.6714C3.91607 1.65348 4.08794 1.68525 4.22805 1.75855C4.66546 1.98662 4.66546 3.10985 4.66546 5.35549C4.66546 5.67953 4.79418 5.9903 5.02332 6.21943C5.25245 6.44856 5.56323 6.57728 5.88728 6.57728C6.21132 6.57728 6.5221 6.44856 6.75123 6.21943C6.98037 5.9903 7.10909 5.67953 7.10909 5.35549Z" stroke="#B5B4B4" stroke-width="2"/>
<path d="M4.25822 12.6868L4.04399 12.1517C3.86119 11.696 3.80279 11.2 3.87479 10.7144C3.94678 10.2288 4.14658 9.77099 4.45371 9.38799C4.52796 9.29512 4.62215 9.22014 4.72932 9.16861C4.83648 9.11709 4.95386 9.09033 5.07277 9.09033C5.19167 9.09033 5.30906 9.11709 5.41622 9.16861C5.52338 9.22014 5.61757 9.29512 5.69182 9.38799C6.31576 10.1683 6.47216 11.2239 6.10154 12.1517L5.88731 12.6868" stroke="#B5B4B4" stroke-width="2"/>
</svg>
