<svg width="16" height="16" viewBox="0 0 16 16" fill="none" xmlns="http://www.w3.org/2000/svg">
<path d="M9.31332 12.3927L5.05499 10.0702C4.64623 10.4759 4.1265 10.7516 3.56131 10.8624C2.99612 10.9732 2.41078 10.9141 1.87909 10.6928C1.34739 10.4714 0.893144 10.0975 0.573608 9.61835C0.254073 9.13917 0.0835571 8.57612 0.0835571 8.00017C0.0835571 7.42423 0.254073 6.86118 0.573608 6.382C0.893144 5.90283 1.34739 5.52898 1.87909 5.30759C2.41078 5.0862 2.99612 5.02719 3.56131 5.13798C4.1265 5.24878 4.64623 5.52443 5.05499 5.93017L9.31332 3.60767C9.16727 2.92245 9.27276 2.20756 9.61048 1.59372C9.9482 0.979879 10.4956 0.508116 11.1526 0.264701C11.8095 0.0212863 12.5322 0.0224852 13.1883 0.268079C13.8445 0.513672 14.3903 0.987248 14.726 1.60221C15.0617 2.21716 15.1648 2.9324 15.0165 3.61714C14.8682 4.30187 14.4783 4.91033 13.9182 5.33126C13.3582 5.75219 12.6653 5.95745 11.9663 5.90951C11.2674 5.86157 10.609 5.56363 10.1117 5.07017L5.85332 7.39267C5.93849 7.79292 5.93849 8.2066 5.85332 8.60684L10.1117 10.9302C10.609 10.4367 11.2674 10.1388 11.9663 10.0908C12.6653 10.0429 13.3582 10.2482 13.9182 10.6691C14.4783 11.09 14.8682 11.6985 15.0165 12.3832C15.1648 13.0679 15.0617 13.7832 14.726 14.3981C14.3903 15.0131 13.8445 15.4867 13.1883 15.7323C12.5322 15.9779 11.8095 15.9791 11.1526 15.7356C10.4956 15.4922 9.9482 15.0205 9.61048 14.4066C9.27276 13.7928 9.16727 13.0779 9.31332 12.3927Z" fill="white"/>
</svg>
