<svg width="25" height="26" viewBox="0 0 25 26" fill="none" xmlns="http://www.w3.org/2000/svg">
<path d="M22.4419 10.9692H21.6252V10.9261H12.5002V15.0739H18.2302C17.3943 17.4884 15.148 19.2216 12.5002 19.2216C9.1407 19.2216 6.41688 16.4359 6.41688 13C6.41688 9.56412 9.1407 6.7784 12.5002 6.7784C14.051 6.7784 15.4618 7.37671 16.536 8.35402L19.4038 5.42106C17.593 3.69509 15.1708 2.63068 12.5002 2.63068C6.90102 2.63068 2.36133 7.27354 2.36133 13C2.36133 18.7264 6.90102 23.3693 12.5002 23.3693C18.0994 23.3693 22.6391 18.7264 22.6391 13C22.6391 12.3047 22.5691 11.6261 22.4419 10.9692Z" fill="#FFC107"/>
<path d="M3.53027 8.1736L6.86141 10.6721C7.76275 8.3898 9.94566 6.7784 12.5001 6.7784C14.0509 6.7784 15.4617 7.37671 16.5359 8.35402L19.4037 5.42106C17.5929 3.69509 15.1707 2.63068 12.5001 2.63068C8.6058 2.63068 5.22854 4.87926 3.53027 8.1736Z" fill="#FF3D00"/>
<path d="M12.5003 23.3693C15.1191 23.3693 17.4987 22.3443 19.2979 20.6774L16.1599 17.9617C15.1079 18.7804 13.8222 19.2231 12.5003 19.2216C9.86314 19.2216 7.62397 17.5018 6.78041 15.1019L3.47412 17.7072C5.15211 21.0653 8.55979 23.3693 12.5003 23.3693Z" fill="#4CAF50"/>
<path d="M22.4417 10.9692H21.625V10.9261H12.5V15.0739H18.23C17.8301 16.223 17.1098 17.2272 16.1581 17.9622L16.1596 17.9612L19.2976 20.6769C19.0756 20.8833 22.6389 18.1847 22.6389 13C22.6389 12.3047 22.5689 11.6261 22.4417 10.9692Z" fill="#1976D2"/>
</svg>
