<svg width="17" height="20" viewBox="0 0 17 20" fill="none" xmlns="http://www.w3.org/2000/svg">
<path d="M13.6202 18.5858C12.6266 19.5709 11.5417 19.4154 10.4974 18.9487C9.39229 18.4718 8.3784 18.451 7.21243 18.9487C5.75243 19.5916 4.98188 19.405 4.10993 18.5858C-0.837845 13.37 -0.107845 5.42715 5.5091 5.13681C6.87785 5.20939 7.8309 5.90414 8.63188 5.96635C9.82827 5.71749 10.974 5.00201 12.2515 5.09533C13.7824 5.21976 14.9383 5.84192 15.6987 6.96181C12.5353 8.90087 13.2856 13.1627 16.1853 14.3551C15.6074 15.9105 14.8572 17.4556 13.6101 18.5962L13.6202 18.5858ZM8.53049 5.07459C8.3784 2.76224 10.2135 0.854281 12.3224 0.667633C12.6165 3.34292 9.94993 5.33383 8.53049 5.07459Z" fill="white"/>
</svg>
