<svg width="36" height="36" viewBox="0 0 36 36" fill="none" xmlns="http://www.w3.org/2000/svg">
<circle cx="18" cy="18" r="18" fill="#FE632B" fill-opacity="0.25"/>
<path d="M15.9629 25.2275C16.4627 25.1218 19.5075 25.1219 20.0088 25.2275C20.4361 25.3262 20.8983 25.5572 20.8984 26.0605C20.8736 26.54 20.5927 26.9654 20.2041 27.2354C19.7002 27.6281 19.1084 27.8772 18.4902 27.9668C18.1485 28.0111 17.8123 28.0121 17.4824 27.9668C16.8634 27.8771 16.2723 27.628 15.7695 27.2344C15.3799 26.9655 15.0981 26.54 15.0732 26.0605C15.0734 25.5572 15.5357 25.3262 15.9629 25.2275ZM18.0449 8C20.1251 8 22.2505 8.98735 23.5127 10.625C24.3314 11.6794 24.707 12.7327 24.707 14.3701V14.7959C24.707 16.0518 25.0391 16.7925 25.7695 17.6455C26.3231 18.274 26.5 19.0808 26.5 19.9561C26.5 20.8302 26.213 21.6602 25.6377 22.334C24.8844 23.1417 23.8216 23.6574 22.7373 23.7471C21.1662 23.881 19.594 23.9941 18.001 23.9941C16.4068 23.9941 14.835 23.9263 13.2637 23.7471C12.1784 23.6574 11.1156 23.1417 10.3633 22.334C9.78793 21.6602 9.50001 20.8302 9.5 19.9561C9.5 19.0808 9.67788 18.274 10.2305 17.6455C10.9838 16.7925 11.2939 16.0518 11.2939 14.7959V14.3701C11.294 12.6883 11.7135 11.5883 12.5771 10.5117C13.8612 8.94165 15.9197 8 17.9561 8H18.0449Z" fill="#FE632B"/>
</svg>
