<svg width="16" height="10" viewBox="0 0 16 10" fill="none" xmlns="http://www.w3.org/2000/svg">
<path d="M1.00032 0.75C0.852077 0.75013 0.707201 0.794188 0.583985 0.876608C0.460769 0.959028 0.364742 1.07611 0.30803 1.21308C0.251319 1.35004 0.236468 1.50074 0.265352 1.64614C0.294236 1.79154 0.365561 1.92511 0.470317 2.03L7.47032 9.03C7.61094 9.17045 7.80157 9.24934 8.00032 9.24934C8.19907 9.24934 8.38969 9.17045 8.53032 9.03L15.5303 2.03C15.6351 1.92511 15.7064 1.79154 15.7353 1.64614C15.7642 1.50074 15.7493 1.35004 15.6926 1.21308C15.6359 1.07611 15.5399 0.959028 15.4166 0.876608C15.2934 0.794188 15.1486 0.75013 15.0003 0.75H1.00032Z" fill="#FE632B"/>
</svg>
