<svg width="215" height="200" viewBox="0 0 215 200" fill="none" xmlns="http://www.w3.org/2000/svg">
<path d="M107.105 200C166.258 200 214.21 172.314 214.21 138.162C214.21 104.01 166.258 76.3237 107.105 76.3237C47.9526 76.3237 0 104.01 0 138.162C0 172.314 47.9526 200 107.105 200Z" fill="white"/>
<path d="M84.942 185.02C105.34 185.02 121.876 175.474 121.876 163.698C121.876 151.922 105.34 142.376 84.942 142.376C64.5441 142.376 48.0083 151.922 48.0083 163.698C48.0083 175.474 64.5441 185.02 84.942 185.02Z" fill="#E0E0E0"/>
<path d="M189.974 137.021L185.641 134.52C185.641 134.52 184.582 125.246 185.287 118.063C186.278 107.97 192.797 95.8226 200.571 98.6777C208.345 101.533 197.007 111.807 194.484 120.368C191.961 128.928 189.974 137.021 189.974 137.021Z" fill="#FE632B"/>
<path opacity="0.15" d="M189.974 137.021L185.641 134.52C185.641 134.52 184.582 125.246 185.287 118.063C186.278 107.97 192.797 95.8226 200.571 98.6777C208.345 101.533 197.007 111.807 194.484 120.368C191.961 128.928 189.974 137.021 189.974 137.021Z" fill="black"/>
<path d="M187.696 135.971C187.765 135.967 187.83 135.936 187.877 135.885C187.924 135.834 187.949 135.767 187.946 135.698C187.187 113.271 198.353 101.987 198.462 101.878C198.511 101.829 198.539 101.762 198.539 101.692C198.539 101.622 198.511 101.555 198.462 101.506C198.438 101.481 198.409 101.462 198.377 101.449C198.346 101.435 198.312 101.429 198.278 101.429C198.243 101.429 198.21 101.435 198.178 101.449C198.146 101.462 198.118 101.481 198.094 101.506C197.975 101.615 186.651 113.062 187.419 135.716C187.42 135.751 187.428 135.785 187.443 135.817C187.458 135.849 187.478 135.878 187.504 135.902C187.53 135.925 187.56 135.944 187.593 135.955C187.626 135.967 187.661 135.972 187.696 135.971Z" fill="white"/>
<path d="M192.697 138.58L189.615 136.803C189.615 136.803 189.088 130.438 192.211 122.709C194.939 115.981 201.667 110.393 205.059 111.566C208.45 112.739 208.364 115.144 206.709 117.667C205.054 120.191 195.002 126.196 192.697 138.58Z" fill="#FE632B"/>
<path d="M191.07 137.907C191.139 137.906 191.206 137.878 191.255 137.829C191.304 137.78 191.332 137.713 191.333 137.644C191.27 123.459 204.586 113.876 204.722 113.78C204.75 113.761 204.775 113.736 204.793 113.707C204.811 113.678 204.824 113.645 204.829 113.611C204.835 113.577 204.833 113.542 204.825 113.509C204.817 113.476 204.802 113.444 204.781 113.417C204.741 113.361 204.68 113.322 204.612 113.311C204.544 113.299 204.474 113.314 204.417 113.353C204.281 113.449 190.747 123.196 190.806 137.644C190.806 137.714 190.834 137.781 190.883 137.83C190.933 137.88 191 137.907 191.07 137.907Z" fill="white"/>
<path d="M29.6641 131.452L33.6648 128.751C33.6648 128.751 35.4242 118.295 33.7875 109.07C31.4871 96.1318 22.5447 91.8311 19.3623 93.1949C16.1799 94.5588 15.498 98.4095 21.4399 105.793C24.9633 110.134 29.5413 119.404 29.6641 131.452Z" fill="#FE632B"/>
<g opacity="0.15">
<path d="M29.6641 131.452L33.6648 128.751C33.6648 128.751 35.4242 118.295 33.7875 109.07C31.4871 96.1318 22.5447 91.8311 19.3623 93.1949C16.1799 94.5588 15.498 98.4095 21.4399 105.793C24.9633 110.134 29.5413 119.404 29.6641 131.452Z" fill="black"/>
</g>
<path d="M31.0371 126.269H30.9961C30.9553 126.267 30.9154 126.255 30.8792 126.236C30.8429 126.217 30.8111 126.191 30.7858 126.159C30.7604 126.127 30.7422 126.089 30.7322 126.05C30.7223 126.01 30.7208 125.969 30.7279 125.928C32.1736 113.749 27.0318 100.528 21.4354 95.2683C21.3815 95.2139 21.3513 95.1403 21.3513 95.0637C21.3513 94.9871 21.3815 94.9136 21.4354 94.8592C21.4621 94.8319 21.4939 94.8103 21.529 94.7956C21.5641 94.7808 21.6019 94.7732 21.64 94.7732C21.6781 94.7732 21.7158 94.7808 21.7509 94.7956C21.7861 94.8103 21.8179 94.8319 21.8445 94.8592C27.5455 100.215 32.7828 113.653 31.3189 126.01C31.3103 126.08 31.2773 126.144 31.2256 126.191C31.174 126.239 31.1072 126.266 31.0371 126.269Z" fill="white"/>
<path d="M19.1897 138.517C18.5533 138.898 16.6984 137.521 16.1847 137.189C15.3042 136.614 14.5871 135.822 14.1025 134.889C13.5589 133.83 13.3572 132.63 13.5251 131.452C13.6182 130.837 13.7534 130.229 13.9297 129.633C14.0889 129.038 14.248 128.442 14.3844 127.842C14.586 127.258 14.6634 126.639 14.6117 126.023C14.4344 124.81 13.3387 123.978 12.3386 123.264C11.2384 122.468 10.0654 121.418 10.0654 119.954C10.1215 118.804 10.5617 117.706 11.3156 116.836C11.9976 115.926 12.8159 115.135 13.4297 114.185C13.9096 113.527 14.1545 112.726 14.1252 111.912C14.0462 111.41 13.8668 110.929 13.5979 110.498C13.0614 109.552 12.3658 108.68 11.9885 107.675C11.6112 106.67 11.6384 105.379 12.4431 104.629C13.0841 104.015 14.0616 103.915 14.9481 103.956C15.7835 104.039 16.5904 104.305 17.3121 104.733C19.6626 105.984 21.0446 108.711 23.5314 109.662C24.4907 110.025 25.5363 110.089 26.5319 110.334C27.5276 110.58 28.555 111.066 29.0324 111.971C29.9734 113.767 28.3323 116.031 29.0051 117.936C29.6052 119.627 31.2782 120.245 32.2238 121.759C32.6076 122.431 32.7669 123.209 32.6785 123.978C32.6251 125.276 32.3339 126.553 31.8192 127.747C31.2273 128.984 30.5592 130.183 29.8189 131.338C29.8189 131.338 19.2852 138.457 19.1897 138.517Z" fill="#FE632B"/>
<path d="M25.3362 134.748C25.298 134.747 25.2603 134.739 25.2252 134.724C25.1902 134.709 25.1584 134.687 25.1318 134.659C25.1052 134.632 25.0843 134.599 25.0702 134.564C25.0562 134.528 25.0492 134.49 25.0498 134.452C25.3044 122.941 19.6398 110.357 15.63 106.72C15.573 106.669 15.5386 106.597 15.5344 106.52C15.5301 106.443 15.5563 106.368 15.6073 106.311C15.6339 106.284 15.6658 106.262 15.7009 106.247C15.736 106.232 15.7737 106.225 15.8118 106.225C15.85 106.225 15.8877 106.232 15.9228 106.247C15.9579 106.262 15.9898 106.284 16.0164 106.311C20.1081 109.993 25.8863 122.796 25.6272 134.466C25.6266 134.503 25.6186 134.54 25.6037 134.575C25.5887 134.61 25.5671 134.641 25.5401 134.667C25.5131 134.693 25.4812 134.714 25.4462 134.728C25.4112 134.741 25.3739 134.748 25.3362 134.748Z" fill="white"/>
<path d="M23.2131 120.723C23.1863 120.729 23.1582 120.729 23.1313 120.723C19.4125 119.65 14.8026 119.541 14.7571 119.536C14.7191 119.535 14.6816 119.527 14.6468 119.512C14.6119 119.497 14.5805 119.475 14.5543 119.447C14.528 119.42 14.5075 119.387 14.494 119.352C14.4804 119.316 14.474 119.278 14.4752 119.24C14.4745 119.202 14.4818 119.164 14.4966 119.129C14.5114 119.093 14.5333 119.061 14.5611 119.035C14.5889 119.008 14.6219 118.988 14.6579 118.975C14.694 118.962 14.7324 118.956 14.7707 118.959C14.8162 118.959 19.4988 119.072 23.2904 120.163C23.3637 120.185 23.4253 120.236 23.4619 120.303C23.4985 120.37 23.5071 120.449 23.4859 120.523C23.4682 120.581 23.432 120.632 23.3829 120.668C23.3337 120.704 23.2741 120.723 23.2131 120.723Z" fill="white"/>
<path d="M130.364 123.537L128.641 122.541C128.353 122.355 128.114 122.103 127.943 121.807C127.772 121.511 127.673 121.178 127.654 120.836V49.2238C127.673 48.8826 127.771 48.5505 127.942 48.2544C128.113 47.9583 128.35 47.7064 128.636 47.5189L176.531 19.8687C176.836 19.7141 177.173 19.6335 177.515 19.6335C177.857 19.6335 178.194 19.7141 178.499 19.8687L180.222 20.8643C180.509 21.0507 180.748 21.3023 180.92 21.5985C181.091 21.8948 181.19 22.2274 181.209 22.5691V94.1816C181.19 94.5228 181.091 94.8549 180.921 95.151C180.75 95.4471 180.513 95.699 180.227 95.8865L132.332 123.541C132.027 123.696 131.69 123.777 131.347 123.776C131.005 123.775 130.668 123.693 130.364 123.537Z" fill="#455A64"/>
<path d="M181.209 22.41C181.141 21.9008 180.727 21.7144 180.231 22.0009L132.332 49.6557C132.042 49.8374 131.803 50.0891 131.637 50.3876L127.94 48.2554C128.106 47.9547 128.345 47.7012 128.636 47.5189L176.531 19.8687C176.836 19.7141 177.173 19.6335 177.515 19.6335C177.857 19.6335 178.194 19.7141 178.499 19.8687L180.222 20.8643C180.488 21.0356 180.714 21.2625 180.885 21.5293C181.055 21.796 181.165 22.0965 181.209 22.41Z" fill="#455A64"/>
<path d="M132.164 123.619C131.873 123.736 131.56 123.79 131.246 123.777C130.932 123.764 130.625 123.683 130.345 123.541L128.618 122.541C128.332 122.354 128.094 122.102 127.924 121.806C127.753 121.509 127.655 121.177 127.636 120.836V49.2237C127.647 48.8819 127.746 48.5486 127.922 48.2554L131.618 50.3876C131.439 50.6812 131.338 51.0164 131.327 51.3605V122.973C131.345 123.537 131.7 123.796 132.164 123.619Z" fill="#263238"/>
<path d="M131.346 51.3695V122.973C131.346 123.6 131.8 123.855 132.332 123.541L180.227 95.8864C180.513 95.6989 180.75 95.447 180.921 95.1509C181.092 94.8548 181.19 94.5227 181.209 94.1815V22.569C181.209 21.9417 180.754 21.6871 180.227 22.0008L132.332 49.6556C132.044 49.8429 131.804 50.0959 131.633 50.3938C131.461 50.6918 131.363 51.0262 131.346 51.3695Z" fill="#37474F"/>
<path d="M120.162 78.6471C119.544 78.2789 116.675 76.6468 116.525 76.5604C116.408 76.4907 116.308 76.3956 116.233 76.2821C116.158 76.1686 116.109 76.0397 116.09 75.9049C116.071 75.7701 116.083 75.6327 116.125 75.5031C116.166 75.3734 116.236 75.2547 116.329 75.1556L127.654 63.0081L131.346 65.1266L120.026 77.2833C119.937 77.3779 119.869 77.4905 119.827 77.6135C119.786 77.7365 119.771 77.867 119.784 77.9962C119.796 78.1254 119.837 78.2504 119.902 78.3627C119.967 78.475 120.056 78.572 120.162 78.6471Z" fill="#455A64"/>
<path d="M131.346 65.1401L120.025 77.2832C119.9 77.4174 119.818 77.5866 119.79 77.7684C119.762 77.9502 119.791 78.1362 119.871 78.3016C119.951 78.4671 120.08 78.6043 120.24 78.6952C120.4 78.7861 120.583 78.8264 120.766 78.8107L131.346 77.9378V65.1401Z" fill="#37474F"/>
<path d="M156.277 43.2774C161.86 40.0541 166.384 42.6682 166.384 49.1147C166.384 55.5613 161.86 63.3945 156.277 66.6178C150.694 69.8411 146.171 67.227 146.171 60.785C146.171 54.3429 150.694 46.5007 156.277 43.2774Z" fill="#FE632B"/>
<path d="M156.205 48.3509C158.023 47.3052 159.482 48.1508 159.482 50.2421C159.42 51.3789 159.091 52.4851 158.522 53.4709C157.952 54.4567 157.158 55.2943 156.205 55.9158C154.386 56.9615 152.922 56.1159 152.922 54.0246C152.985 52.8874 153.314 51.781 153.885 50.7951C154.455 49.8093 155.25 48.9719 156.205 48.3509Z" fill="white"/>
<path d="M162.669 59.4981C162.669 56.0657 160.255 54.67 157.282 56.3885L155.422 57.4614C152.449 59.1799 150.035 63.3715 150.035 66.7948V67.7359C150.597 67.9153 151.182 68.0058 151.772 68.0041C153.367 67.9499 154.92 67.4798 156.277 66.6403C158.862 65.0484 161.048 62.887 162.669 60.321V59.4981Z" fill="white"/>
<path d="M149.876 98.5277L162.678 91.1355C163.224 90.8218 163.665 91.0764 163.665 91.7038V95.8272C163.646 96.169 163.547 96.5016 163.376 96.7979C163.204 97.0941 162.965 97.3457 162.678 97.5321L149.876 104.924C149.331 105.238 148.89 104.983 148.89 104.356V100.233C148.908 99.8908 149.007 99.5582 149.179 99.262C149.35 98.9657 149.589 98.7141 149.876 98.5277Z" fill="#FE632B"/>
<path d="M143.607 89.3171L168.934 74.6873C169.584 74.3099 170.116 74.6145 170.116 75.3692V76.9013C170.094 77.3113 169.975 77.7102 169.77 78.0657C169.564 78.4211 169.278 78.7231 168.934 78.9471L143.593 93.5769C142.943 93.9543 142.416 93.6497 142.416 92.895V91.3766C142.437 90.9634 142.555 90.561 142.762 90.2029C142.97 89.8448 143.259 89.5411 143.607 89.3171Z" fill="#FAFAFA"/>
<path d="M146.571 78.7287C146.916 78.5287 147.185 78.4969 147.376 78.6378C147.567 78.7787 147.662 79.0924 147.662 79.5743C147.672 80.0142 147.573 80.4497 147.376 80.8427C147.197 81.198 146.917 81.4923 146.571 81.6883L145.889 82.0839V83.5523C145.888 83.6029 145.875 83.6525 145.853 83.6978C145.837 83.7389 145.808 83.7739 145.771 83.7978L145.425 83.9978C145.413 84.0067 145.399 84.0115 145.384 84.0115C145.37 84.0115 145.355 84.0067 145.343 83.9978C145.319 83.9671 145.308 83.9279 145.312 83.8887V79.638C145.311 79.5877 145.322 79.538 145.343 79.4925C145.361 79.4521 145.389 79.4174 145.425 79.3925L146.571 78.7287ZM145.889 81.261L146.548 80.8791C146.707 80.7893 146.842 80.6611 146.939 80.5063C147.043 80.3237 147.093 80.1159 147.085 79.9062C147.085 79.6607 147.035 79.5198 146.939 79.4789C146.872 79.4625 146.801 79.4617 146.734 79.4767C146.666 79.4917 146.602 79.522 146.548 79.5652L145.889 79.9471V81.261Z" fill="#FAFAFA"/>
<path d="M149.567 76.9968C149.612 76.9695 149.649 76.9695 149.671 76.9968C149.701 77.0376 149.721 77.084 149.731 77.1332L150.781 80.6883C150.781 80.6883 150.781 80.7156 150.781 80.7292C150.78 80.7799 150.768 80.8297 150.744 80.8747C150.728 80.9159 150.7 80.9509 150.663 80.9747L150.353 81.152C150.299 81.1839 150.258 81.1884 150.235 81.152C150.213 81.1292 150.197 81.101 150.19 81.0702L150.003 80.4474L148.639 81.2293L148.458 82.0658C148.445 82.1111 148.428 82.1552 148.408 82.1977C148.385 82.2531 148.343 82.2984 148.289 82.325L147.98 82.5023C147.969 82.5119 147.954 82.5172 147.939 82.5172C147.924 82.5172 147.91 82.5119 147.898 82.5023C147.875 82.4729 147.863 82.4354 147.867 82.3977C147.864 82.3811 147.864 82.3643 147.867 82.3477L148.912 77.5832C148.925 77.5132 148.945 77.4446 148.971 77.3787C148.994 77.3309 149.03 77.2912 149.076 77.265L149.567 76.9968ZM149.803 79.7518L149.349 78.147L148.894 80.2928L149.803 79.7518Z" fill="#FAFAFA"/>
<path d="M152.372 75.3101C152.524 75.2141 152.697 75.1563 152.877 75.1419C153.004 75.1305 153.131 75.1591 153.241 75.2237C153.34 75.2884 153.418 75.382 153.463 75.4919C153.513 75.6038 153.541 75.7242 153.545 75.8465C153.548 75.897 153.537 75.9474 153.513 75.992C153.497 76.0331 153.469 76.0682 153.431 76.092L153.131 76.2648C153.081 76.2921 153.045 76.2966 153.022 76.2648C152.994 76.2462 152.971 76.2213 152.954 76.192C152.936 76.1511 152.91 76.1143 152.877 76.0839C152.844 76.0534 152.805 76.0299 152.763 76.0147C152.625 75.9949 152.484 76.0309 152.372 76.1147C152.298 76.1623 152.229 76.2155 152.163 76.2739C152.096 76.336 152.036 76.4062 151.986 76.483C151.937 76.557 151.898 76.6363 151.868 76.7194C151.841 76.7985 151.827 76.8814 151.827 76.9649C151.821 77.0414 151.835 77.118 151.868 77.1877C151.882 77.2121 151.901 77.2327 151.925 77.2478C151.949 77.2628 151.976 77.2718 152.004 77.274C152.088 77.2886 152.174 77.2886 152.259 77.274L152.654 77.1877C152.801 77.144 152.955 77.1255 153.109 77.1331C153.218 77.1328 153.325 77.1679 153.413 77.2331C153.497 77.3031 153.557 77.3966 153.586 77.5014C153.631 77.6486 153.651 77.8022 153.645 77.956C153.645 78.1591 153.616 78.3611 153.559 78.5561C153.503 78.7565 153.422 78.9491 153.318 79.1289C153.208 79.3132 153.076 79.4841 152.927 79.6381C152.774 79.7967 152.599 79.9329 152.409 80.0427C152.269 80.128 152.115 80.188 151.954 80.22C151.823 80.2452 151.688 80.2342 151.563 80.1882C151.449 80.1354 151.355 80.0478 151.295 79.9381C151.22 79.7979 151.18 79.6422 151.177 79.4835C151.176 79.4318 151.187 79.3806 151.208 79.3335C151.228 79.2948 151.258 79.2619 151.295 79.238L151.595 79.0653C151.64 79.038 151.677 79.0289 151.704 79.0425C151.731 79.0562 151.749 79.0789 151.768 79.1198C151.786 79.1666 151.811 79.2109 151.84 79.2517C151.869 79.2913 151.908 79.3214 151.954 79.338C152.014 79.3518 152.076 79.3518 152.136 79.338C152.232 79.3153 152.324 79.2769 152.409 79.2244C152.497 79.1741 152.58 79.1163 152.659 79.0516C152.811 78.9306 152.933 78.7747 153.013 78.597C153.05 78.5059 153.068 78.4087 153.068 78.3106C153.072 78.275 153.069 78.2389 153.059 78.2045C153.049 78.1701 153.032 78.1381 153.009 78.1106C152.984 78.0889 152.955 78.0728 152.924 78.0634C152.892 78.054 152.859 78.0514 152.827 78.056C152.724 78.0602 152.621 78.077 152.522 78.106C152.404 78.1333 152.268 78.1651 152.109 78.1924C151.987 78.2229 151.861 78.2321 151.736 78.2197C151.637 78.2133 151.544 78.1732 151.472 78.106C151.393 78.029 151.338 77.9313 151.313 77.8241C151.276 77.6662 151.26 77.5043 151.263 77.3422C151.263 77.1421 151.292 76.9429 151.349 76.7512C151.404 76.5539 151.483 76.3645 151.586 76.1875C151.684 76.0117 151.803 75.8484 151.94 75.701C152.065 75.5509 152.21 75.4193 152.372 75.3101Z" fill="#FAFAFA"/>
<path d="M155.359 73.5917C155.51 73.4928 155.684 73.4334 155.864 73.419C155.99 73.4082 156.117 73.4368 156.227 73.5008C156.324 73.5673 156.4 73.6604 156.445 73.769C156.495 73.8809 156.523 74.0013 156.527 74.1236C156.533 74.1743 156.522 74.2253 156.495 74.2691C156.479 74.3103 156.451 74.3453 156.414 74.3691L156.114 74.5419C156.068 74.5692 156.032 74.5783 156.004 74.5419C155.976 74.5237 155.953 74.4966 155.941 74.4646C155.899 74.3848 155.83 74.3233 155.745 74.2919C155.678 74.2819 155.608 74.2856 155.542 74.3028C155.476 74.32 155.413 74.3503 155.359 74.3919C155.283 74.4382 155.211 74.4915 155.145 74.551C155.079 74.6132 155.021 74.6835 154.973 74.7601C154.922 74.8331 154.883 74.9126 154.854 74.9965C154.826 75.0754 154.811 75.1583 154.809 75.242C154.803 75.3185 154.818 75.3952 154.85 75.4648C154.864 75.4892 154.883 75.5098 154.907 75.5249C154.931 75.5399 154.958 75.549 154.986 75.5512C155.07 75.5659 155.157 75.5659 155.241 75.5512L155.636 75.4648C155.784 75.4236 155.937 75.4052 156.091 75.4102C156.201 75.4092 156.308 75.4444 156.395 75.5103C156.479 75.5812 156.54 75.6742 156.573 75.7785C156.613 75.9266 156.631 76.0797 156.627 76.2331C156.627 76.4362 156.598 76.6383 156.541 76.8332C156.485 77.0337 156.404 77.2262 156.3 77.406C156.19 77.5922 156.059 77.7646 155.909 77.9198C155.756 78.0744 155.583 78.2089 155.395 78.3198C155.255 78.4048 155.101 78.4647 154.941 78.4971C154.811 78.5219 154.678 78.5109 154.554 78.4653C154.438 78.4141 154.342 78.3263 154.281 78.2153C154.207 78.0754 154.168 77.9192 154.168 77.7606C154.162 77.71 154.174 77.659 154.2 77.6152C154.216 77.574 154.244 77.539 154.281 77.5151L154.582 77.3424C154.627 77.3151 154.668 77.306 154.691 77.3197C154.706 77.3268 154.72 77.3375 154.731 77.3509C154.742 77.3643 154.75 77.3801 154.754 77.3969C154.775 77.4428 154.799 77.4869 154.827 77.5288C154.857 77.5687 154.898 77.5988 154.945 77.6152C155.005 77.629 155.067 77.629 155.127 77.6152C155.224 77.5924 155.316 77.554 155.4 77.5015C155.486 77.4501 155.568 77.3923 155.645 77.3288C155.725 77.2664 155.796 77.1929 155.854 77.1105C155.913 77.032 155.962 76.9465 156 76.8559C156.036 76.7649 156.055 76.6676 156.055 76.5695C156.059 76.5339 156.056 76.4978 156.046 76.4634C156.035 76.429 156.018 76.3971 155.995 76.3695C155.971 76.3478 155.942 76.3317 155.91 76.3223C155.879 76.3129 155.846 76.3104 155.814 76.3149C155.712 76.3211 155.612 76.3379 155.514 76.3649C155.395 76.3922 155.254 76.424 155.1 76.4513C154.976 76.4818 154.849 76.491 154.722 76.4786C154.624 76.4734 154.53 76.4331 154.459 76.3649C154.382 76.2875 154.328 76.1898 154.304 76.0831C154.264 75.9273 154.245 75.7666 154.25 75.6057C154.251 75.4042 154.28 75.2038 154.336 75.0102C154.392 74.8136 154.472 74.6243 154.572 74.4464C154.671 74.2695 154.792 74.1061 154.932 73.96C155.054 73.8158 155.198 73.6915 155.359 73.5917Z" fill="#FAFAFA"/>
<path d="M158.673 74.1599L158.305 76.3375C158.294 76.403 158.276 76.4671 158.25 76.5285C158.233 76.5775 158.199 76.6191 158.155 76.6467L157.809 76.8467C157.764 76.874 157.732 76.874 157.709 76.8467C157.679 76.8093 157.661 76.7631 157.659 76.7149L157.114 72.8733C157.114 72.8733 157.114 72.8369 157.114 72.8233C157.115 72.7727 157.128 72.723 157.15 72.6778C157.167 72.6374 157.196 72.6027 157.232 72.5778L157.546 72.3959C157.572 72.3853 157.601 72.3853 157.627 72.3959C157.655 72.3959 157.673 72.4323 157.682 72.505L158.041 75.0918L158.355 73.1506C158.363 73.1022 158.377 73.0549 158.396 73.0097C158.414 72.9522 158.453 72.9035 158.505 72.8733L158.855 72.6687C158.905 72.6414 158.941 72.646 158.964 72.6687C158.984 72.6976 158.998 72.73 159.005 72.7642L159.323 74.3417L159.682 71.3412C159.687 71.2822 159.704 71.2248 159.732 71.173C159.754 71.139 159.781 71.1096 159.814 71.0866L160.128 70.9048C160.14 70.8959 160.154 70.8911 160.169 70.8911C160.184 70.8911 160.198 70.8959 160.21 70.9048C160.223 70.9197 160.233 70.937 160.239 70.9557C160.245 70.9744 160.248 70.9942 160.246 71.0139C160.248 71.032 160.248 71.0503 160.246 71.0684L159.701 75.5374C159.691 75.6028 159.675 75.6669 159.651 75.7283C159.63 75.7768 159.595 75.818 159.551 75.8465L159.2 76.0466C159.16 76.0693 159.128 76.0693 159.105 76.0466C159.082 76.0048 159.064 75.9606 159.05 75.9147L158.673 74.1599Z" fill="#FAFAFA"/>
<path d="M160.801 72.2322C160.811 71.9802 160.841 71.7293 160.892 71.4821C160.944 71.2405 161.023 71.0056 161.128 70.782C161.228 70.5646 161.357 70.3613 161.51 70.1773C161.665 69.9949 161.851 69.841 162.06 69.7227C162.22 69.6141 162.408 69.5526 162.601 69.5454C162.745 69.547 162.884 69.6039 162.987 69.7045C163.097 69.8283 163.177 69.9762 163.219 70.1364C163.278 70.3452 163.31 70.5606 163.315 70.7774C163.315 70.8593 163.315 70.9502 163.315 71.0502C163.315 71.1502 163.315 71.2548 163.315 71.3639C163.315 71.473 163.315 71.5776 163.315 71.6776C163.315 71.7776 163.315 71.8731 163.315 71.9595C163.305 72.2101 163.274 72.4594 163.224 72.7051C163.171 72.9459 163.094 73.1806 162.992 73.4052C162.889 73.6219 162.759 73.825 162.605 74.0098C162.45 74.1906 162.266 74.3442 162.06 74.4645C161.896 74.5723 161.706 74.6336 161.51 74.6418C161.439 74.6432 161.369 74.6302 161.303 74.6037C161.237 74.5771 161.178 74.5375 161.128 74.4872C161.009 74.3599 160.928 74.2027 160.892 74.0326C160.837 73.8229 160.807 73.6079 160.801 73.3915C160.801 73.3097 160.801 73.2188 160.801 73.1188C160.801 73.0187 160.801 72.9142 160.801 72.8051C160.801 72.696 160.801 72.5959 160.801 72.4914C160.801 72.3868 160.796 72.3141 160.801 72.2322ZM162.737 71.1457C162.747 71.0345 162.735 70.9223 162.701 70.8161C162.666 70.7098 162.611 70.6116 162.537 70.5274C162.419 70.4228 162.255 70.4274 162.06 70.5274C161.848 70.6521 161.679 70.8395 161.578 71.0639C161.449 71.3289 161.381 71.6193 161.378 71.914C161.378 72.0822 161.378 72.2686 161.378 72.4732C161.378 72.6778 161.378 72.8596 161.378 73.0233C161.368 73.1345 161.38 73.2466 161.415 73.3529C161.449 73.4592 161.505 73.5574 161.578 73.6416C161.696 73.7416 161.86 73.7325 162.06 73.6189C162.269 73.4933 162.435 73.308 162.537 73.0869C162.666 72.8235 162.735 72.5346 162.737 72.2413C162.737 72.0686 162.737 71.8822 162.737 71.6776C162.737 71.473 162.742 71.3094 162.737 71.1457Z" fill="#FAFAFA"/>
<path d="M165.297 67.9089C165.656 67.7043 165.924 67.6725 166.111 67.8225C166.221 67.9442 166.303 68.0888 166.351 68.246C166.399 68.4032 166.412 68.5691 166.388 68.7317C166.392 69.0405 166.344 69.3478 166.247 69.641C166.155 69.9141 166.011 70.1671 165.824 70.3866L166.415 71.6732C166.417 71.6943 166.417 71.7156 166.415 71.7368C166.416 71.7778 166.406 71.8183 166.388 71.855C166.376 71.888 166.353 71.9165 166.325 71.9368L165.961 72.146C165.902 72.1778 165.861 72.1823 165.834 72.146C165.809 72.1221 165.789 72.0945 165.774 72.0641L165.215 70.8503L164.647 71.1776V72.7142C164.647 72.7645 164.636 72.8142 164.615 72.8597C164.596 72.8992 164.568 72.9336 164.533 72.9597L164.188 73.1598C164.176 73.1694 164.162 73.1747 164.147 73.1747C164.132 73.1747 164.117 73.1694 164.106 73.1598C164.093 73.1459 164.083 73.1294 164.077 73.1114C164.07 73.0933 164.068 73.0742 164.07 73.0552V68.8045C164.071 68.7539 164.083 68.7042 164.106 68.659C164.122 68.6178 164.151 68.5828 164.188 68.559L165.297 67.9089ZM164.656 70.3547L165.297 70.0092C165.454 69.9218 165.588 69.7988 165.688 69.6501C165.793 69.4749 165.844 69.2723 165.834 69.0681C165.834 68.8227 165.783 68.6863 165.688 68.659C165.55 68.6402 165.409 68.676 165.297 68.759L164.679 69.1136L164.656 70.3547Z" fill="#FAFAFA"/>
<path d="M168.343 66.1586C168.508 66.0509 168.697 65.9854 168.893 65.9677C169.035 65.9624 169.174 66.013 169.28 66.1086C169.4 66.2352 169.483 66.3925 169.52 66.5632C169.582 66.7887 169.615 67.0207 169.621 67.2542C169.621 67.5725 169.621 67.8998 169.621 68.2317C169.611 68.5024 169.578 68.7717 169.52 69.0364C169.469 69.2824 169.389 69.5218 169.284 69.7501C169.183 69.9599 169.054 70.1555 168.902 70.3321C168.75 70.5128 168.569 70.6665 168.366 70.7867L167.288 71.3731C167.277 71.3828 167.262 71.388 167.247 71.388C167.232 71.388 167.218 71.3828 167.206 71.3731C167.193 71.3594 167.183 71.3429 167.177 71.3249C167.17 71.3068 167.168 71.2876 167.17 71.2686V67.0178C167.171 66.9673 167.184 66.9176 167.206 66.8724C167.222 66.8312 167.251 66.7962 167.288 66.7723L168.343 66.1586ZM169.043 67.5725C169.041 67.4494 169.023 67.3271 168.989 67.2088C168.967 67.1193 168.922 67.0374 168.857 66.9724C168.828 66.9438 168.794 66.9215 168.757 66.9066C168.719 66.8917 168.679 66.8847 168.639 66.886C168.525 66.8936 168.415 66.9312 168.32 66.9951L167.747 67.3224V70.2866L168.343 69.9456C168.458 69.8785 168.561 69.7925 168.648 69.691C168.732 69.5913 168.804 69.4813 168.861 69.3637C168.918 69.2384 168.961 69.1073 168.989 68.9727C169.02 68.8323 169.039 68.6892 169.043 68.5454C169.057 68.2135 169.057 67.8907 169.043 67.5725Z" fill="#FAFAFA"/>
<path d="M105.914 0.17425C106.699 0.348862 107.455 0.633547 108.16 1.01985C108.835 1.38277 109.44 1.86309 109.946 2.43828C110.431 2.99159 110.791 3.64285 111.001 4.34771C111.216 5.10221 111.231 5.89939 111.047 6.66175C110.925 7.26617 110.685 7.84078 110.342 8.35295C110.029 8.79093 109.655 9.1827 109.233 9.51679C108.818 9.8389 108.375 10.1234 107.91 10.3669L106.6 11.0625C106.206 11.2682 105.832 11.5102 105.482 11.7854C105.166 12.0279 104.923 12.3538 104.782 12.7264C104.713 12.8967 104.598 13.0445 104.45 13.1538C104.38 13.2081 104.299 13.2458 104.212 13.2639C104.125 13.282 104.036 13.2801 103.95 13.2583L102.022 12.831C101.93 12.8115 101.842 12.7738 101.763 12.7199C101.685 12.6661 101.619 12.5972 101.568 12.5173C101.513 12.4431 101.477 12.357 101.462 12.2662C101.447 12.1754 101.454 12.0823 101.481 11.9945C101.637 11.3975 101.91 10.8378 102.286 10.3488C102.629 9.91612 103.026 9.52953 103.468 9.19855C103.899 8.88345 104.355 8.60515 104.832 8.36659C105.287 8.13473 105.741 7.91196 106.137 7.6892C106.505 7.49144 106.851 7.25523 107.169 6.98453C107.448 6.75084 107.641 6.43098 107.719 6.07528C107.791 5.7664 107.788 5.4446 107.708 5.13741C107.629 4.83022 107.477 4.54678 107.264 4.31134C106.733 3.73092 106.022 3.3452 105.246 3.21569C103.809 2.89745 102.597 3.38087 101.609 4.66594C101.513 4.80622 101.393 4.92792 101.254 5.0251C101.097 5.10289 100.916 5.11594 100.749 5.06147L98.699 4.60684C98.5528 4.57858 98.4237 4.49359 98.3399 4.37044C98.2951 4.30464 98.2651 4.22998 98.2517 4.15154C98.2384 4.07309 98.2421 3.9927 98.2626 3.91581C98.4368 3.28409 98.7613 2.70387 99.2082 2.22461C99.7123 1.66881 100.311 1.20701 100.977 0.860735C101.705 0.47994 102.489 0.21897 103.3 0.0878722C104.169 -0.0534298 105.056 -0.0240907 105.914 0.17425ZM103.736 14.8041C103.917 14.8464 104.073 14.9576 104.173 15.114C104.272 15.2703 104.306 15.4593 104.268 15.6406L103.777 17.8682C103.761 17.9615 103.724 18.0502 103.671 18.1286C103.618 18.2069 103.549 18.2731 103.468 18.3229C103.392 18.3753 103.306 18.4113 103.215 18.4286C103.124 18.4458 103.031 18.4439 102.941 18.4229L100.74 17.9183C100.647 17.9025 100.558 17.8667 100.479 17.8133C100.401 17.76 100.335 17.6903 100.286 17.6091C100.235 17.5323 100.2 17.4459 100.184 17.3553C100.167 17.2646 100.169 17.1715 100.19 17.0817L100.686 14.8541C100.728 14.6735 100.839 14.5165 100.995 14.4164C101.151 14.3162 101.34 14.2808 101.522 14.3176L103.736 14.8041Z" fill="#FE632B"/>
<path d="M108.342 21.5007C108.889 21.4129 109.446 21.4022 109.996 21.4689C110.522 21.5314 111.033 21.6853 111.506 21.9235C111.956 22.1571 112.352 22.4823 112.67 22.8782C112.955 23.2657 113.155 23.7087 113.259 24.1785C113.362 24.6483 113.366 25.1346 113.27 25.606C113.183 25.9684 113.044 26.3161 112.856 26.638C112.675 26.9511 112.465 27.2464 112.229 27.52C111.997 27.7927 111.774 28.0519 111.569 28.3019C111.369 28.5349 111.191 28.786 111.037 29.0521C110.893 29.2852 110.821 29.5555 110.828 29.8295C110.824 29.9575 110.788 30.0825 110.724 30.1932C110.691 30.2441 110.648 30.2875 110.597 30.3205C110.546 30.3534 110.488 30.3751 110.428 30.3841L109.064 30.6023C109.001 30.6139 108.935 30.6126 108.872 30.5986C108.809 30.5845 108.749 30.558 108.696 30.5205C108.642 30.4867 108.597 30.4407 108.565 30.3861C108.533 30.3316 108.514 30.2701 108.51 30.2068C108.453 29.7837 108.484 29.3535 108.601 28.9429C108.708 28.5795 108.86 28.2312 109.055 27.9064C109.246 27.5947 109.466 27.301 109.71 27.029C109.951 26.7562 110.165 26.5016 110.374 26.2561C110.56 26.0369 110.722 25.7975 110.856 25.5424C110.974 25.3228 111.017 25.0705 110.978 24.824C110.944 24.6072 110.858 24.4017 110.727 24.2252C110.597 24.0487 110.426 23.9064 110.228 23.8102C109.739 23.5741 109.186 23.507 108.655 23.6193C108.174 23.6896 107.727 23.9069 107.375 24.2414C107.022 24.576 106.782 25.0113 106.687 25.4878C106.66 25.6024 106.614 25.7116 106.55 25.8106C106.469 25.8969 106.359 25.9503 106.241 25.9606L104.805 26.1925C104.704 26.2118 104.599 26.1906 104.514 26.1334C104.47 26.1033 104.433 26.0642 104.406 26.0187C104.378 25.9732 104.361 25.9224 104.354 25.8697C104.312 25.4185 104.382 24.9639 104.559 24.5467C104.739 24.0613 105.004 23.6118 105.341 23.2192C105.711 22.7894 106.147 22.421 106.632 22.1281C107.156 21.8104 107.737 21.5974 108.342 21.5007ZM110.687 31.4343C110.75 31.4244 110.814 31.4269 110.876 31.4417C110.937 31.4565 110.995 31.4834 111.047 31.5207C111.1 31.5559 111.146 31.602 111.18 31.6561C111.215 31.7102 111.237 31.7709 111.247 31.8344L111.501 33.3937C111.521 33.5202 111.49 33.6494 111.415 33.7532C111.34 33.857 111.227 33.9272 111.101 33.9484L109.578 34.1984C109.452 34.218 109.323 34.1869 109.219 34.112C109.166 34.0763 109.122 34.03 109.088 33.9759C109.054 33.9219 109.032 33.8614 109.023 33.7983L108.769 32.239C108.757 32.1764 108.759 32.1121 108.774 32.0502C108.789 31.9884 108.817 31.9303 108.855 31.8798C108.891 31.8271 108.937 31.7824 108.991 31.7488C109.045 31.7151 109.106 31.6931 109.169 31.6843L110.687 31.4343Z" fill="#FE632B"/>
<g opacity="0.2">
<path d="M108.342 21.5007C108.889 21.4129 109.446 21.4022 109.996 21.4689C110.522 21.5314 111.033 21.6853 111.506 21.9235C111.956 22.1571 112.352 22.4823 112.67 22.8782C112.955 23.2657 113.155 23.7087 113.259 24.1785C113.362 24.6483 113.366 25.1346 113.27 25.606C113.183 25.9684 113.044 26.3161 112.856 26.638C112.675 26.9511 112.465 27.2464 112.229 27.52C111.997 27.7927 111.774 28.0519 111.569 28.3019C111.369 28.5349 111.191 28.786 111.037 29.0521C110.893 29.2852 110.821 29.5555 110.828 29.8295C110.824 29.9575 110.788 30.0825 110.724 30.1932C110.691 30.2441 110.648 30.2875 110.597 30.3205C110.546 30.3534 110.488 30.3751 110.428 30.3841L109.064 30.6023C109.001 30.6139 108.935 30.6126 108.872 30.5986C108.809 30.5845 108.749 30.558 108.696 30.5205C108.642 30.4867 108.597 30.4407 108.565 30.3861C108.533 30.3316 108.514 30.2701 108.51 30.2068C108.453 29.7837 108.484 29.3535 108.601 28.9429C108.708 28.5795 108.86 28.2312 109.055 27.9064C109.246 27.5947 109.466 27.301 109.71 27.029C109.951 26.7562 110.165 26.5016 110.374 26.2561C110.56 26.0369 110.722 25.7975 110.856 25.5424C110.974 25.3228 111.017 25.0705 110.978 24.824C110.944 24.6072 110.858 24.4017 110.727 24.2252C110.597 24.0487 110.426 23.9064 110.228 23.8102C109.739 23.5741 109.186 23.507 108.655 23.6193C108.174 23.6896 107.727 23.9069 107.375 24.2414C107.022 24.576 106.782 25.0113 106.687 25.4878C106.66 25.6024 106.614 25.7116 106.55 25.8106C106.469 25.8969 106.359 25.9503 106.241 25.9606L104.805 26.1925C104.704 26.2118 104.599 26.1906 104.514 26.1334C104.47 26.1033 104.433 26.0642 104.406 26.0187C104.378 25.9732 104.361 25.9224 104.354 25.8697C104.312 25.4185 104.382 24.9639 104.559 24.5467C104.739 24.0613 105.004 23.6118 105.341 23.2192C105.711 22.7894 106.147 22.421 106.632 22.1281C107.156 21.8104 107.737 21.5974 108.342 21.5007ZM110.687 31.4343C110.75 31.4244 110.814 31.4269 110.876 31.4417C110.937 31.4565 110.995 31.4834 111.047 31.5207C111.1 31.5559 111.146 31.602 111.18 31.6561C111.215 31.7102 111.237 31.7709 111.247 31.8344L111.501 33.3937C111.521 33.5202 111.49 33.6494 111.415 33.7532C111.34 33.857 111.227 33.9272 111.101 33.9484L109.578 34.1984C109.452 34.218 109.323 34.1869 109.219 34.112C109.166 34.0763 109.122 34.03 109.088 33.9759C109.054 33.9219 109.032 33.8614 109.023 33.7983L108.769 32.239C108.757 32.1764 108.759 32.1121 108.774 32.0502C108.789 31.9884 108.817 31.9303 108.855 31.8798C108.891 31.8271 108.937 31.7824 108.991 31.7488C109.045 31.7151 109.106 31.6931 109.169 31.6843L110.687 31.4343Z" fill="black"/>
</g>
<path d="M121.199 23.9512C121.26 23.9943 121.313 24.0496 121.353 24.1137C121.393 24.1778 121.419 24.2494 121.43 24.324C121.445 24.398 121.444 24.4741 121.427 24.5477C121.411 24.6212 121.379 24.6906 121.335 24.7513L120.253 26.2743C120.21 26.3363 120.155 26.3889 120.09 26.4287C120.026 26.4686 119.955 26.495 119.88 26.5062C119.806 26.5207 119.73 26.5197 119.656 26.5032C119.583 26.4868 119.514 26.4553 119.453 26.4107L117.962 25.3515C117.899 25.3089 117.847 25.2537 117.808 25.1895C117.769 25.1252 117.744 25.0533 117.734 24.9787C117.72 24.9047 117.721 24.8285 117.737 24.755C117.754 24.6814 117.785 24.6121 117.83 24.5513L118.925 23.0283C119.014 22.9049 119.148 22.8213 119.297 22.7958C119.447 22.7703 119.601 22.8048 119.726 22.8919L121.199 23.9512ZM127.491 13.6358C128.034 14.0168 128.518 14.4765 128.927 14.9997C129.326 15.4863 129.634 16.0407 129.836 16.6363C130.025 17.2071 130.089 17.8118 130.023 18.4093C129.946 19.0465 129.704 19.6528 129.323 20.1687C129.039 20.5859 128.674 20.9415 128.25 21.2144C127.876 21.4485 127.47 21.6262 127.045 21.7417C126.631 21.85 126.208 21.923 125.781 21.96L124.572 22.0691C124.209 22.098 123.85 22.1604 123.499 22.2555C123.175 22.329 122.879 22.493 122.644 22.7283C122.538 22.8358 122.404 22.9114 122.258 22.9465C122.188 22.9665 122.114 22.9695 122.043 22.9553C121.972 22.9411 121.905 22.91 121.849 22.8647L120.53 21.9281C120.404 21.8381 120.318 21.7029 120.289 21.5508C120.272 21.4771 120.273 21.4004 120.291 21.3269C120.309 21.2535 120.344 21.1853 120.394 21.128C120.702 20.7284 121.087 20.3945 121.526 20.146C121.921 19.9301 122.343 19.7666 122.781 19.6596C123.203 19.5571 123.633 19.4917 124.067 19.4641C124.495 19.4368 124.895 19.405 125.267 19.3686C125.609 19.3385 125.945 19.2714 126.272 19.1686C126.558 19.0734 126.804 18.8864 126.972 18.6366C127.124 18.4258 127.223 18.1813 127.26 17.9241C127.297 17.6668 127.272 17.4044 127.186 17.1591C126.971 16.5532 126.56 16.0364 126.018 15.6907C125.036 14.9906 123.964 14.9678 122.803 15.6225C122.687 15.6968 122.557 15.7492 122.421 15.7771C122.351 15.782 122.28 15.7729 122.213 15.7502C122.146 15.7276 122.084 15.6919 122.03 15.6452L120.63 14.6496C120.58 14.6159 120.536 14.5724 120.503 14.5217C120.469 14.4709 120.446 14.4139 120.435 14.3541C120.424 14.2922 120.426 14.2288 120.441 14.1677C120.456 14.1067 120.483 14.0494 120.521 13.9995C120.852 13.5762 121.281 13.2405 121.771 13.022C122.329 12.7696 122.925 12.6158 123.535 12.5674C124.206 12.5113 124.882 12.5651 125.536 12.7265C126.241 12.8965 126.906 13.2057 127.491 13.6358Z" fill="#FE632B"/>
<g opacity="0.6">
<path d="M121.199 23.9512C121.26 23.9943 121.313 24.0496 121.353 24.1137C121.393 24.1778 121.419 24.2494 121.43 24.324C121.445 24.398 121.444 24.4741 121.427 24.5477C121.411 24.6212 121.379 24.6906 121.335 24.7513L120.253 26.2743C120.21 26.3363 120.155 26.3889 120.09 26.4287C120.026 26.4686 119.955 26.495 119.88 26.5062C119.806 26.5207 119.73 26.5197 119.656 26.5032C119.583 26.4868 119.514 26.4553 119.453 26.4107L117.962 25.3515C117.899 25.3089 117.847 25.2537 117.808 25.1895C117.769 25.1252 117.744 25.0533 117.734 24.9787C117.72 24.9047 117.721 24.8285 117.737 24.755C117.754 24.6814 117.785 24.6121 117.83 24.5513L118.925 23.0283C119.014 22.9049 119.148 22.8213 119.297 22.7958C119.447 22.7703 119.601 22.8048 119.726 22.8919L121.199 23.9512ZM127.491 13.6358C128.034 14.0168 128.518 14.4765 128.927 14.9997C129.326 15.4863 129.634 16.0407 129.836 16.6363C130.025 17.2071 130.089 17.8118 130.023 18.4093C129.946 19.0465 129.704 19.6528 129.323 20.1687C129.039 20.5859 128.674 20.9415 128.25 21.2144C127.876 21.4485 127.47 21.6262 127.045 21.7417C126.631 21.85 126.208 21.923 125.781 21.96L124.572 22.0691C124.209 22.098 123.85 22.1604 123.499 22.2555C123.175 22.329 122.879 22.493 122.644 22.7283C122.538 22.8358 122.404 22.9114 122.258 22.9465C122.188 22.9665 122.114 22.9695 122.043 22.9553C121.972 22.9411 121.905 22.91 121.849 22.8647L120.53 21.9281C120.404 21.8381 120.318 21.7029 120.289 21.5508C120.272 21.4771 120.273 21.4004 120.291 21.3269C120.309 21.2535 120.344 21.1853 120.394 21.128C120.702 20.7284 121.087 20.3945 121.526 20.146C121.921 19.9301 122.343 19.7666 122.781 19.6596C123.203 19.5571 123.633 19.4917 124.067 19.4641C124.495 19.4368 124.895 19.405 125.267 19.3686C125.609 19.3385 125.945 19.2714 126.272 19.1686C126.558 19.0734 126.804 18.8864 126.972 18.6366C127.124 18.4258 127.223 18.1813 127.26 17.9241C127.297 17.6668 127.272 17.4044 127.186 17.1591C126.971 16.5532 126.56 16.0364 126.018 15.6907C125.036 14.9906 123.964 14.9678 122.803 15.6225C122.687 15.6968 122.557 15.7492 122.421 15.7771C122.351 15.782 122.28 15.7729 122.213 15.7502C122.146 15.7276 122.084 15.6919 122.03 15.6452L120.63 14.6496C120.58 14.6159 120.536 14.5724 120.503 14.5217C120.469 14.4709 120.446 14.4139 120.435 14.3541C120.424 14.2922 120.426 14.2288 120.441 14.1677C120.456 14.1067 120.483 14.0494 120.521 13.9995C120.852 13.5762 121.281 13.2405 121.771 13.022C122.329 12.7696 122.925 12.6158 123.535 12.5674C124.206 12.5113 124.882 12.5651 125.536 12.7265C126.241 12.8965 126.906 13.2057 127.491 13.6358Z" fill="white"/>
</g>
<path d="M87.3425 64.1946H71.1897V25.0605C71.1897 21.6615 72.5399 18.4018 74.9434 15.9983C77.3468 13.5949 80.6066 12.2446 84.0056 12.2446H85.4967C88.8957 12.2446 92.1555 13.5949 94.5589 15.9983C96.9624 18.4018 98.3126 21.6615 98.3126 25.0605V53.2472C98.3066 56.1527 97.1482 58.9372 95.0915 60.9896C93.0349 63.0419 90.248 64.1946 87.3425 64.1946Z" fill="#263238"/>
<path d="M69.6166 158.406C69.3309 160.028 69.1788 161.67 69.162 163.316C69.1029 166.299 68.5573 167.358 68.4846 169.804C68.3982 172.6 68.8847 173.645 70.0167 175.218C71.1487 176.791 74.1083 178.214 75.3903 175.559C76.6724 172.904 76.486 171.163 76.0814 168.422C75.6677 165.585 75.6267 164.016 75.3722 161.857C75.163 159.952 74.9175 158.502 74.9175 158.502L69.6166 158.406Z" fill="#263238"/>
<path d="M78.0819 138.598L68.262 138.421C68.4074 144.977 69.4485 152.255 69.6258 158.425C69.6622 159.584 69.5986 167.422 70.035 169.79C70.6942 173.373 74.9404 172.886 75.1677 170.745C75.395 168.604 74.8949 159.452 74.9086 158.506C74.8677 154.56 76.7271 147.9 77.6863 140.817C77.7272 140.476 78.0364 138.939 78.0819 138.598Z" fill="#FFA8A7"/>
<path d="M90.6976 153.306C90.6976 153.306 90.3112 153.096 90.243 153.51C90.1475 154.001 90.002 155.015 89.7884 155.824C89.5065 156.947 89.2701 158.797 89.4383 159.716C89.6065 160.634 91.7433 161.807 93.1299 162.234C94.8388 162.762 96.3973 163.689 97.6761 164.939C99.04 166.231 102.009 167.449 104.041 167.435C106.428 167.435 108.092 166.64 108.878 165.362C109.665 164.085 108.16 163.93 105.432 162.18L103.318 160.816C98.9945 157.993 97.4079 156.483 96.194 153.66L90.6976 153.306Z" fill="#263238"/>
<path d="M96.2305 151.555C96.1578 149.528 97.558 132.293 97.558 132.293L88.2336 136.543C90.2294 148.464 90.6568 151.278 90.6886 153.228C90.6477 153.392 90.6309 153.56 90.6386 153.728C90.6386 156.042 93.2618 157.293 95.2985 158.838C97.0299 160.195 98.8749 161.399 100.813 162.439C102.295 163.18 105.305 163.248 105.678 162.298C103.195 160.402 99.5856 157.565 97.6125 155.401C96.6487 154.383 96.3032 153.587 96.2305 151.555Z" fill="#FFA8A7"/>
<path d="M72.2854 74.6282C68.703 82.4886 68.703 88.5715 69.2985 98.6051C69.8259 107.811 70.7033 115.926 70.7033 115.926C70.5669 117.558 68.2984 120.745 68.0029 127.965C67.7301 134.711 68.4575 143.29 68.4575 143.29C68.4575 143.29 73.5538 146.113 77.3227 143.263C77.3227 143.263 80.9597 125.901 82.0235 117.454C82.9327 110.084 84.5694 100.669 84.5694 100.669L88.0109 117.404C87.2681 119.778 86.7297 122.212 86.4015 124.678C85.9196 129.647 88.7019 139.403 88.7019 139.403C88.7019 139.403 93.9665 140.972 97.1807 138.121C97.1807 138.121 98.3809 122.259 98.831 116.276C99.4311 108.261 98.1672 86.5666 97.1807 75.0782L72.2854 74.6282Z" fill="#455A64"/>
<path d="M84.5784 100.655L85.9923 88.0441C85.9923 88.0441 92.3297 87.1985 95.203 84.498C94.3806 85.7847 93.2851 86.8745 91.9941 87.69C90.7032 88.5056 89.2486 89.0269 87.7335 89.2171L85.6877 100.951L88.0108 117.404L84.5784 100.655Z" fill="#263238"/>
<path d="M110.242 71.5275C110.504 69.2262 110.619 66.9105 110.588 64.5945C110.447 62.5942 110.087 62.2668 107.291 58.7253C103.518 53.9381 100.295 49.6328 96.8851 45.3548C94.4483 42.2997 91.8842 41.8314 89.3929 41.9678C87.6471 42.0633 91.0568 50.4602 92.7708 55.4293L102.559 65.9675C102.862 66.3834 103.001 66.8965 102.95 67.4086L102.359 76.3738L105.291 80.3018C105.291 80.3018 109.733 76.4738 110.242 71.5275Z" fill="#FFA8A7"/>
<path d="M79.9547 42.2405C78.0589 42.3723 74.6129 42.6951 74.6129 42.6951C72.6262 43.8044 72.1215 44.7182 71.7533 47.355C71.5942 48.4825 72.5125 51.4784 73.299 55.7383L74.7902 63.6351L74.6265 67.554C73.8536 69.9453 72.1033 72.914 70.5576 77.292C78.1499 81.5291 84.5146 81.6882 90.2883 80.929C94.6891 80.3607 97.0213 79.2969 97.7987 78.2422C97.6351 73.9187 97.3441 71.2455 97.2532 66.7265C97.2214 64.8308 97.335 62.9122 97.4123 60.73C100.363 58.3023 100.399 54.2653 98.7762 51.6375C95.0346 45.5774 91.3931 41.7631 88.9836 41.9586L79.9547 42.2405Z" fill="#FE632B"/>
<path opacity="0.6" d="M79.9547 42.2405C78.0589 42.3723 74.6129 42.6951 74.6129 42.6951C72.6262 43.8044 72.1215 44.7182 71.7533 47.355C71.5942 48.4825 72.5125 51.4784 73.299 55.7383L74.7902 63.6351L74.6265 67.554C73.8536 69.9453 72.1033 72.914 70.5576 77.292C78.1499 81.5291 84.5146 81.6882 90.2883 80.929C94.6891 80.3607 97.0213 79.2969 97.7987 78.2422C97.6351 73.9187 97.3441 71.2455 97.2532 66.7265C97.2214 64.8308 97.335 62.9122 97.4123 60.73C100.363 58.3023 100.399 54.2653 98.7762 51.6375C95.0346 45.5774 91.3931 41.7631 88.9836 41.9586L79.9547 42.2405Z" fill="white"/>
<path opacity="0.1" d="M91.5341 60.7892C91.5341 60.7892 88.0698 63.4806 84.1101 62.0758C82.9981 61.7254 81.9954 61.094 81.199 60.2426C80.4025 59.3912 79.8393 58.3486 79.5638 57.2158C79.5638 57.2158 79.1456 61.7393 84.1328 63.2805C88.9654 64.7671 91.5341 60.7892 91.5341 60.7892Z" fill="black"/>
<path d="M96.235 29.8248C96.085 36.3896 93.9619 38.008 92.889 38.4626C91.816 38.9173 89.7611 38.6445 87.7608 38.3126V42.2769C87.7608 42.2769 90.0703 44.6955 89.8975 46.5004C89.7248 48.3053 86.2605 48.5099 83.6783 46.7414C82.2534 45.7626 80.9647 44.5993 79.8458 43.2817C79.6309 43.0275 79.5133 42.7052 79.5139 42.3724V33.0981C79.5139 33.0981 78.4182 34.2574 76.4815 32.9299C76.0637 32.6632 75.7059 32.3125 75.4308 31.9C75.1558 31.4875 74.9697 31.0224 74.8841 30.5341C74.7986 30.0458 74.8156 29.5451 74.9341 29.0637C75.0526 28.5823 75.2699 28.1309 75.5723 27.738C76.4179 26.7424 78.5637 26.6742 79.5912 28.1927C80.1731 29.3247 80.2504 30.4658 80.9005 30.0112C82.6281 28.7655 81.7006 25.9195 83.7874 24.5557C84.4721 24.1983 85.1834 23.8943 85.915 23.6464C89.6384 22.3598 92.8662 21.2778 93.6436 18.7319C95.1075 19.5684 96.4168 22.0825 96.235 29.8248Z" fill="#FFA8A7"/>
<path d="M88.8928 35.6895C89.3699 35.6895 89.7566 35.3028 89.7566 34.8257C89.7566 34.3486 89.3699 33.9619 88.8928 33.9619C88.4158 33.9619 88.0291 34.3486 88.0291 34.8257C88.0291 35.3028 88.4158 35.6895 88.8928 35.6895Z" fill="#B16668"/>
<path d="M88.32 28.8293C88.3197 29.0072 88.2674 29.1811 88.1693 29.3294C88.0713 29.4778 87.9319 29.5942 87.7684 29.6642C87.6049 29.7341 87.4244 29.7546 87.2494 29.723C87.0744 29.6915 86.9124 29.6093 86.7836 29.4866C86.6549 29.364 86.5649 29.2062 86.5248 29.033C86.4848 28.8597 86.4964 28.6785 86.5583 28.5117C86.6202 28.345 86.7297 28.2001 86.8731 28.0949C87.0165 27.9898 87.1876 27.929 87.3653 27.9201C87.4884 27.9139 87.6116 27.9329 87.7272 27.9758C87.8428 28.0187 87.9485 28.0847 88.0378 28.1698C88.1271 28.2548 88.1982 28.3572 88.2467 28.4705C88.2952 28.5839 88.3201 28.706 88.32 28.8293Z" fill="#263238"/>
<path d="M95.2075 28.9201C95.2168 29.0313 95.2039 29.1433 95.1695 29.2495C95.1351 29.3556 95.0798 29.4539 95.0071 29.5385C94.9343 29.6232 94.8454 29.6925 94.7456 29.7424C94.6457 29.7923 94.5369 29.8219 94.4256 29.8293C94.3132 29.8397 94.1999 29.8261 94.0932 29.7893C93.9865 29.7525 93.8889 29.6935 93.8068 29.6161C93.7246 29.5387 93.6599 29.4447 93.6169 29.3404C93.5739 29.2361 93.5535 29.1238 93.5572 29.011C93.5455 28.8989 93.5568 28.7857 93.5904 28.6781C93.624 28.5706 93.6792 28.471 93.7526 28.3856C93.826 28.3001 93.9161 28.2306 94.0174 28.1812C94.1186 28.1318 94.2289 28.1036 94.3414 28.0983C94.454 28.093 94.5664 28.1108 94.6719 28.1505C94.7773 28.1903 94.8735 28.2511 94.9546 28.3293C95.0357 28.4075 95.0999 28.5015 95.1434 28.6054C95.1869 28.7093 95.2087 28.8211 95.2075 28.9337V28.9201Z" fill="#263238"/>
<path d="M87.1515 31.1659C86.3673 31.1659 85.6153 30.8547 85.0603 30.3007C84.5054 29.7466 84.1931 28.995 84.1919 28.2109C84.1919 26.2014 86.265 26.2014 87.1515 26.2014C88.038 26.2014 90.1066 26.2014 90.1066 28.2109C90.1054 28.9942 89.7936 29.7452 89.2397 30.2991C88.6858 30.853 87.9349 31.1647 87.1515 31.1659ZM87.1515 26.6651C85.333 26.6651 84.6602 27.1198 84.6602 28.2109C84.6602 28.874 84.9236 29.51 85.3925 29.9789C85.8614 30.4479 86.4974 30.7113 87.1606 30.7113C87.8238 30.7113 88.4597 30.4479 88.9287 29.9789C89.3976 29.51 89.661 28.874 89.661 28.2109C89.6428 27.097 88.9427 26.6651 87.1515 26.6651Z" fill="#455A64"/>
<path d="M94.6574 31.1659C93.8732 31.1659 93.1211 30.8547 92.5662 30.3007C92.0113 29.7466 91.699 28.995 91.6978 28.2109C91.6978 26.2014 93.7708 26.2014 94.6574 26.2014C95.5439 26.2014 97.6124 26.2014 97.6124 28.2109C97.6112 28.9942 97.2995 29.7452 96.7456 30.2991C96.1917 30.853 95.4407 31.1647 94.6574 31.1659ZM94.6574 26.6651C92.8661 26.6651 92.166 27.1198 92.166 28.2109C92.166 28.874 92.4295 29.51 92.8984 29.9789C93.3673 30.4479 94.0033 30.7113 94.6665 30.7113C95.3296 30.7113 95.9656 30.4479 96.4345 29.9789C96.9034 29.51 97.1669 28.874 97.1669 28.2109C97.1487 27.097 96.4486 26.6651 94.6574 26.6651Z" fill="#455A64"/>
<path d="M90.5659 27.2561L90.7114 32.7798L93.6165 31.8796L90.5659 27.2561Z" fill="#F28F8F"/>
<path d="M87.7562 38.3262C85.6467 38.0489 81.3051 36.8032 80.6277 35.0847C80.9003 35.9532 81.4317 36.7177 82.1507 37.276C83.4464 38.3898 87.7562 39.6401 87.7562 39.6401V38.3262Z" fill="#F28F8F"/>
<path d="M87.8608 24.5738L85.9332 25.7513C85.7812 25.4867 85.7371 25.1737 85.8099 24.8774C85.8827 24.5811 86.0669 24.3242 86.3241 24.1601C86.4513 24.083 86.5928 24.0324 86.7401 24.0114C86.8873 23.9905 87.0373 23.9996 87.1809 24.0383C87.3246 24.077 87.4589 24.1444 87.5757 24.2364C87.6926 24.3285 87.7895 24.4433 87.8608 24.5738Z" fill="#263238"/>
<path d="M95.7032 25.8831L93.5574 25.133C93.5989 24.9908 93.6691 24.8586 93.7636 24.7445C93.8581 24.6304 93.975 24.5368 94.107 24.4696C94.2389 24.4023 94.3833 24.3627 94.5312 24.3533C94.679 24.3438 94.8272 24.3647 94.9667 24.4147C95.2545 24.5181 95.4915 24.7283 95.6286 25.0016C95.7657 25.275 95.7924 25.5906 95.7032 25.8831Z" fill="#263238"/>
<path d="M89.8747 28.4474C89.8439 28.4474 89.8134 28.4412 89.7849 28.4293C89.7565 28.4174 89.7307 28.3999 89.7092 28.3779C89.6876 28.3559 89.6706 28.3298 89.6592 28.3011C89.6478 28.2724 89.6423 28.2418 89.6429 28.211C89.6429 27.8336 90.3885 27.5881 91.0613 27.5881C91.7341 27.5881 92.166 27.8336 92.166 28.211C92.1519 28.2604 92.1221 28.3038 92.0811 28.3348C92.0401 28.3657 91.9901 28.3824 91.9387 28.3824C91.8873 28.3824 91.8374 28.3657 91.7964 28.3348C91.7553 28.3038 91.7255 28.2604 91.7114 28.211C91.7114 28.1655 91.4796 28.0519 91.0749 28.0519C90.7492 28.0449 90.4251 28.1005 90.1202 28.2155C90.1203 28.2471 90.1139 28.2785 90.1014 28.3075C90.0889 28.3366 90.0706 28.3628 90.0476 28.3845C90.0246 28.4062 89.9974 28.423 89.9677 28.4338C89.9379 28.4446 89.9063 28.4492 89.8747 28.4474Z" fill="#455A64"/>
<path d="M84.4329 28.2473H84.4056L79.2093 27.7927C78.9665 27.552 78.6772 27.3633 78.3591 27.238L84.4602 27.8018C84.5214 27.8097 84.577 27.8413 84.6152 27.8897C84.6534 27.9381 84.6712 27.9996 84.6648 28.0609C84.6541 28.1142 84.6251 28.1621 84.5827 28.1962C84.5403 28.2303 84.4873 28.2484 84.4329 28.2473Z" fill="#455A64"/>
<path d="M63.0975 33.6666C64.7978 31.3934 65.9571 29.6795 67.5073 27.7564C68.3893 26.6517 68.953 25.8606 69.7804 24.7286C70.3624 23.9467 70.6897 23.2875 71.3535 23.0465C72.0706 22.7527 72.7168 22.3094 73.2492 21.7463C73.5765 21.3842 73.8802 21.0016 74.1585 20.6006C75.1329 19.2891 76.2903 18.124 77.5954 17.1409C78.9593 16.1135 80.4823 15.3224 81.8871 14.345C82.7236 13.7585 83.6192 12.7856 82.6009 11.8764C82.2885 11.6133 81.9148 11.4335 81.5143 11.3536C79.0366 10.8171 76.8817 11.6673 74.4585 12.2856C73.406 12.5483 72.3766 12.8964 71.3807 13.3266C70.8909 13.5204 70.4315 13.7837 70.0169 14.1086C69.4371 14.6931 68.9619 15.3728 68.6121 16.118C67.5528 18.0093 65.2797 19.7005 63.6885 21.1962C61.8291 22.9465 60.1651 24.5513 58.042 26.4789C56.1326 28.2201 54.2641 29.8204 52.5138 31.7208C51.0635 33.2892 51.6046 34.5167 51.7955 34.944C52.9775 37.3717 54.3005 38.2446 55.8871 39.7494C58.6149 42.3544 68.0483 49.8512 71.1716 52.3289C71.8427 52.856 72.3697 53.544 72.7037 54.3292L73.3038 55.7159C76.868 56.3705 79.2457 51.0196 76.2952 44.5775C75.8066 43.5358 75.0602 42.6361 74.1267 41.9635C70.3987 39.2493 63.0975 33.6666 63.0975 33.6666Z" fill="#FFA8A7"/>
<path d="M63.0972 33.6663C61.9628 35.0619 60.4509 36.1018 58.7419 36.6622C58.7419 36.6622 61.0151 37.2442 64.1292 34.4482L63.0972 33.6663Z" fill="#F28F8F"/>
<path d="M109.314 66.7858L108.733 66.2857C108.646 66.2284 108.546 66.1924 108.443 66.1806C108.339 66.1687 108.235 66.1814 108.137 66.2175L101.822 67.936C101.504 68.0421 101.213 68.2156 100.968 68.4447C100.723 68.6738 100.531 68.9532 100.404 69.2635L95.8576 82.3704C95.8028 82.4772 95.7814 82.5979 95.796 82.7171C95.8105 82.8362 95.8605 82.9482 95.9394 83.0387L96.5395 83.5569C96.6269 83.6171 96.7275 83.6552 96.8329 83.6679C96.9382 83.6806 97.045 83.6674 97.1442 83.6297L103.468 81.9112C103.786 81.8051 104.078 81.6316 104.322 81.4025C104.567 81.1734 104.76 80.8941 104.886 80.5837C105.796 78.006 108.523 70.0546 109.433 67.4769C109.542 67.1541 109.487 66.9086 109.314 66.7858Z" fill="#455A64"/>
<path d="M96.4531 82.875L100.999 69.7682C101.126 69.458 101.318 69.179 101.563 68.9506C101.808 68.7221 102.1 68.5497 102.418 68.4452L108.728 66.7267C109.314 66.5676 109.637 66.904 109.428 67.4769C108.519 70.0546 105.791 78.006 104.882 80.5837C104.755 80.8941 104.563 81.1734 104.318 81.4025C104.073 81.6316 103.782 81.8051 103.463 81.9112L97.1533 83.6479C96.5713 83.7842 96.2577 83.4478 96.4531 82.875Z" fill="#FE632B"/>
<path d="M101.731 68.8088C101.403 69.0574 101.149 69.3906 100.995 69.7726L96.4486 82.8749C96.3966 82.979 96.3749 83.0956 96.3862 83.2114C96.3974 83.3272 96.4411 83.4375 96.5123 83.5296L95.9485 83.0477C95.8678 82.9583 95.8162 82.8465 95.8008 82.727C95.7853 82.6076 95.8068 82.4863 95.8622 82.3794L100.408 69.2725C100.552 68.9162 100.786 68.603 101.086 68.3633L101.731 68.8088Z" fill="#37474F"/>
<path d="M107.582 72.7595C107.128 74.0915 105.55 74.9826 102.941 75.6009C100.331 76.2192 98.8899 78.9878 99.3036 79.8289C99.7173 80.67 103.936 81.4564 105.623 81.2155C107.31 80.9745 109.001 78.5378 109.514 77.7831C110.028 77.0284 110.619 71.7639 110.078 71.041C109.537 70.3181 108.396 70.4318 108.396 70.4318L107.582 72.7595Z" fill="#F28F8F"/>
</svg>
