<svg width="200" height="200" viewBox="0 0 200 200" fill="none" xmlns="http://www.w3.org/2000/svg">
<circle cx="100" cy="100" r="95" fill="#202125" stroke="#FE632B" stroke-width="10"/>
<mask id="path-2-inside-1_37_1331" fill="white">
<path d="M0.205588 93.591C1.64136 71.2346 10.5425 50.0077 25.4819 33.3138C40.4213 16.6199 60.5335 5.42585 82.5941 1.52649L84.3286 11.3397C64.4665 14.8505 46.3585 24.929 32.9079 39.9593C19.4573 54.9896 11.4432 74.1011 10.1505 94.2297L0.205588 93.591Z"/>
</mask>
<path d="M0.205588 93.591C1.64136 71.2346 10.5425 50.0077 25.4819 33.3138C40.4213 16.6199 60.5335 5.42585 82.5941 1.52649L84.3286 11.3397C64.4665 14.8505 46.3585 24.929 32.9079 39.9593C19.4573 54.9896 11.4432 74.1011 10.1505 94.2297L0.205588 93.591Z" fill="#202125" stroke="#EEEEEE" stroke-opacity="0.933333" stroke-width="20" mask="url(#path-2-inside-1_37_1331)"/>
<path d="M58.334 116L71.9434 89.0625V88.8438H56.1465V84H77.9434V88.9531L64.3496 116H58.334ZM93.6816 116.437C91.5983 116.437 89.7337 116.047 88.0879 115.266C86.4421 114.474 85.1348 113.391 84.166 112.016C83.2077 110.641 82.6973 109.068 82.6348 107.297H88.2598C88.3639 108.609 88.9316 109.682 89.9629 110.516C90.9941 111.339 92.2337 111.75 93.6816 111.75C94.8171 111.75 95.8275 111.49 96.7129 110.969C97.5983 110.448 98.2962 109.724 98.8066 108.797C99.3171 107.87 99.5671 106.812 99.5566 105.625C99.5671 104.417 99.3118 103.344 98.791 102.406C98.2702 101.469 97.5566 100.734 96.6504 100.203C95.7441 99.6615 94.7025 99.3906 93.5254 99.3906C92.5671 99.3802 91.6243 99.5573 90.6973 99.9219C89.7702 100.286 89.0358 100.766 88.4941 101.359L83.2598 100.5L84.9316 84H103.494V88.8438H89.7285L88.8066 97.3281H88.9941C89.5879 96.6302 90.4264 96.0521 91.5098 95.5937C92.5931 95.125 93.7806 94.8906 95.0723 94.8906C97.0098 94.8906 98.7389 95.349 100.26 96.2656C101.781 97.1719 102.979 98.4219 103.854 100.016C104.729 101.609 105.166 103.432 105.166 105.484C105.166 107.599 104.676 109.484 103.697 111.141C102.729 112.786 101.38 114.083 99.6504 115.031C97.9316 115.969 95.9421 116.437 93.6816 116.437ZM127.51 110V108.312C127.51 107.073 127.77 105.932 128.291 104.891C128.822 103.849 129.593 103.01 130.604 102.375C131.614 101.74 132.838 101.422 134.275 101.422C135.755 101.422 136.994 101.74 137.994 102.375C138.994 103 139.749 103.833 140.26 104.875C140.781 105.917 141.041 107.062 141.041 108.312V110C141.041 111.24 140.781 112.38 140.26 113.422C139.739 114.464 138.973 115.302 137.963 115.937C136.963 116.573 135.734 116.891 134.275 116.891C132.817 116.891 131.583 116.573 130.572 115.937C129.562 115.302 128.796 114.464 128.275 113.422C127.765 112.38 127.51 111.24 127.51 110ZM131.588 108.312V110C131.588 110.823 131.786 111.578 132.182 112.266C132.577 112.953 133.275 113.297 134.275 113.297C135.286 113.297 135.979 112.958 136.354 112.281C136.739 111.594 136.932 110.833 136.932 110V108.312C136.932 107.479 136.749 106.719 136.385 106.031C136.02 105.333 135.317 104.984 134.275 104.984C133.296 104.984 132.604 105.333 132.197 106.031C131.791 106.719 131.588 107.479 131.588 108.312ZM111.244 91.6875V90C111.244 88.75 111.51 87.6042 112.041 86.5625C112.572 85.5208 113.343 84.6875 114.354 84.0625C115.364 83.4271 116.588 83.1094 118.025 83.1094C119.494 83.1094 120.729 83.4271 121.729 84.0625C122.739 84.6875 123.499 85.5208 124.01 86.5625C124.52 87.6042 124.775 88.75 124.775 90V91.6875C124.775 92.9375 124.515 94.0833 123.994 95.125C123.484 96.1562 122.723 96.9844 121.713 97.6094C120.702 98.2344 119.473 98.5469 118.025 98.5469C116.557 98.5469 115.317 98.2344 114.307 97.6094C113.307 96.9844 112.546 96.151 112.025 95.1094C111.505 94.0677 111.244 92.9271 111.244 91.6875ZM115.354 90V91.6875C115.354 92.5208 115.546 93.2812 115.932 93.9687C116.327 94.6458 117.025 94.9844 118.025 94.9844C119.025 94.9844 119.713 94.6458 120.088 93.9687C120.473 93.2812 120.666 92.5208 120.666 91.6875V90C120.666 89.1667 120.484 88.4062 120.119 87.7187C119.755 87.0208 119.057 86.6719 118.025 86.6719C117.036 86.6719 116.343 87.0208 115.947 87.7187C115.551 88.4167 115.354 89.1771 115.354 90ZM113.025 116L135.025 84H138.932L116.932 116H113.025Z" fill="white"/>
</svg>
