<svg width="36" height="36" viewBox="0 0 36 36" fill="none" xmlns="http://www.w3.org/2000/svg">
<circle cx="18" cy="18" r="18" fill="#FE632B" fill-opacity="0.25"/>
<g clip-path="url(#clip0_150_1352)">
<path fill-rule="evenodd" clip-rule="evenodd" d="M21.8498 8.50065C22.4808 8.50065 23.1108 8.58965 23.7098 8.79065C27.4008 9.99065 28.7308 14.0406 27.6198 17.5806C26.9898 19.3896 25.9598 21.0406 24.6108 22.3896C22.6798 24.2596 20.5608 25.9196 18.2798 27.3496L18.0298 27.5006L17.7698 27.3396C15.4808 25.9196 13.3498 24.2596 11.4008 22.3796C10.0608 21.0306 9.0298 19.3896 8.3898 17.5806C7.2598 14.0406 8.5898 9.99065 12.3208 8.76965C12.6108 8.66965 12.9098 8.59965 13.2098 8.56065H13.3298C13.6108 8.51965 13.8898 8.50065 14.1698 8.50065H14.2798C14.9098 8.51965 15.5198 8.62965 16.1108 8.83065H16.1698C16.2098 8.84965 16.2398 8.87065 16.2598 8.88965C16.4808 8.96065 16.6898 9.04065 16.8898 9.15065L17.2698 9.32065C17.3616 9.36962 17.4647 9.44445 17.5538 9.50912C17.6102 9.55009 17.661 9.58699 17.6998 9.61065C17.7161 9.62028 17.7327 9.62996 17.7494 9.63972C17.8352 9.68977 17.9245 9.74191 17.9998 9.79965C19.1108 8.95065 20.4598 8.49065 21.8498 8.50065ZM24.5098 15.7006C24.9198 15.6896 25.2698 15.3606 25.2998 14.9396V14.8206C25.3298 13.4196 24.4808 12.1506 23.1898 11.6606C22.7798 11.5196 22.3298 11.7406 22.1798 12.1606C22.0398 12.5806 22.2598 13.0406 22.6798 13.1896C23.3208 13.4296 23.7498 14.0606 23.7498 14.7596V14.7906C23.7308 15.0196 23.7998 15.2406 23.9398 15.4106C24.0798 15.5806 24.2898 15.6796 24.5098 15.7006Z" fill="#FE632B"/>
</g>
<defs>
<clipPath id="clip0_150_1352">
<rect width="24" height="24" fill="white" transform="translate(6 6)"/>
</clipPath>
</defs>
</svg>
