<svg width="21" height="20" viewBox="0 0 21 20" fill="none" xmlns="http://www.w3.org/2000/svg">
<path fill-rule="evenodd" clip-rule="evenodd" d="M14.35 0.500648C14.981 0.500648 15.611 0.589648 16.21 0.790648C19.901 1.99065 21.231 6.04065 20.12 9.58065C19.49 11.3896 18.46 13.0406 17.111 14.3896C15.18 16.2596 13.061 17.9196 10.78 19.3496L10.53 19.5006L10.27 19.3396C7.98102 17.9196 5.85002 16.2596 3.90102 14.3796C2.56102 13.0306 1.53002 11.3896 0.890017 9.58065C-0.239983 6.04065 1.09002 1.99065 4.82102 0.769648C5.11102 0.669648 5.41002 0.599648 5.71002 0.560648H5.83002C6.11102 0.519648 6.39002 0.500648 6.67002 0.500648H6.78002C7.41002 0.519648 8.02002 0.629648 8.61102 0.830648H8.67002C8.71002 0.849648 8.74002 0.870648 8.76002 0.889648C8.98102 0.960648 9.19002 1.04065 9.39002 1.15065L9.77002 1.32065C9.86184 1.36962 9.9649 1.44445 10.054 1.50912C10.1104 1.55009 10.1612 1.58699 10.2 1.61065C10.2163 1.62028 10.2329 1.62996 10.2496 1.63972C10.3354 1.68977 10.4247 1.74191 10.5 1.79965C11.611 0.950648 12.96 0.490648 14.35 0.500648ZM17.01 7.70065C17.42 7.68965 17.77 7.36065 17.8 6.93965V6.82065C17.83 5.41965 16.981 4.15065 15.69 3.66065C15.28 3.51965 14.83 3.74065 14.68 4.16065C14.54 4.58065 14.76 5.04065 15.18 5.18965C15.821 5.42965 16.25 6.06065 16.25 6.75965V6.79065C16.231 7.01965 16.3 7.24065 16.44 7.41065C16.58 7.58065 16.79 7.67965 17.01 7.70065Z" fill="white"/>
</svg>
