<svg width="20" height="18" viewBox="0 0 20 18" fill="none" xmlns="http://www.w3.org/2000/svg">
<path d="M17.1699 0.714325C17.4626 0.428836 17.9211 0.428874 18.2041 0.714325C18.4968 0.999816 18.4968 1.47178 18.2041 1.75729L16.4287 3.54929C17.8435 4.84884 19.0437 6.60162 19.9414 8.70847C20.0194 8.89548 20.0194 9.11236 19.9414 9.28952C17.8533 14.1922 14.1351 17.1255 9.99805 17.1255H9.98828C8.10527 17.1254 6.30029 16.5056 4.70996 15.3735L2.81738 17.2837C2.67102 17.4313 2.48519 17.5005 2.2998 17.5005C2.11459 17.5004 1.91977 17.4311 1.7832 17.2837C1.53927 17.0375 1.50016 16.6434 1.69531 16.3579L1.72461 16.3188L16.1553 1.75729C16.1747 1.73768 16.1944 1.71831 16.2041 1.6987C16.2236 1.67901 16.2432 1.65882 16.2529 1.63913L17.1699 0.714325ZM10.001 0.885223C11.3963 0.885223 12.753 1.21998 14.002 1.85007L10.7422 5.13815C10.5081 5.09881 10.2545 5.06979 10.001 5.06979C7.84472 5.06985 6.09778 6.83168 6.09766 9.00729C6.09766 9.26309 6.12703 9.51919 6.16602 9.75534L2.55664 13.3989C1.58099 12.257 0.731824 10.8783 0.0585938 9.29343C-0.0194565 9.11623 -0.0194389 8.89941 0.0585938 8.71237C2.14665 3.80957 5.86388 0.885279 9.99121 0.885223H10.001ZM12.1553 7.86179C12.3308 8.19638 12.4277 8.59012 12.4277 9.00339C12.4277 10.3522 11.3348 11.4555 9.99805 11.4555C9.58838 11.4555 9.19785 11.3563 8.86621 11.1792L7.80273 12.2524C8.4271 12.6757 9.18834 12.932 9.99805 12.9321C12.1447 12.9321 13.8916 11.1693 13.8916 9.00339C13.8915 8.18643 13.6382 7.41852 13.2188 6.78854L12.1553 7.86179Z" fill="#DADADA"/>
</svg>
