<svg width="24" height="24" viewBox="0 0 24 24" fill="none" xmlns="http://www.w3.org/2000/svg">
<path fill-rule="evenodd" clip-rule="evenodd" d="M11.9997 23.6668C5.55967 23.6668 0.333008 18.4518 0.333008 12.0002C0.333008 5.56016 5.55967 0.333496 11.9997 0.333496C18.4513 0.333496 23.6663 5.56016 23.6663 12.0002C23.6663 18.4518 18.4513 23.6668 11.9997 23.6668ZM15.7213 16.3285C15.8613 16.4102 16.013 16.4568 16.1763 16.4568C16.468 16.4568 16.7597 16.3052 16.923 16.0252C17.168 15.6168 17.0397 15.0802 16.6197 14.8235L12.4663 12.3502V6.96016C12.4663 6.47016 12.0697 6.08516 11.5913 6.08516C11.113 6.08516 10.7163 6.47016 10.7163 6.96016V12.8518C10.7163 13.1552 10.8797 13.4352 11.148 13.5985L15.7213 16.3285Z" fill=""/>
</svg>
