<svg width="24" height="24" viewBox="0 0 24 24" fill="none" xmlns="http://www.w3.org/2000/svg">
<path d="M8.65724 22.2352V18.6679C8.65724 17.7573 9.40087 17.019 10.3182 17.019H13.6714C14.1119 17.019 14.5344 17.1928 14.8458 17.502C15.1573 17.8112 15.3323 18.2306 15.3323 18.6679V22.2352C15.3295 22.6138 15.4791 22.9779 15.7478 23.2465C16.0165 23.5152 16.3821 23.6663 16.7634 23.6663H19.0511C20.1196 23.6691 21.1452 23.2497 21.9017 22.5006C22.6582 21.7516 23.0833 20.7345 23.0833 19.6738V9.51101C23.0833 8.65421 22.7007 7.84149 22.0387 7.29179L14.2564 1.12152C12.9026 0.0396631 10.963 0.0745936 9.64962 1.20448L2.04485 7.29179C1.35153 7.82529 0.937145 8.64042 0.916667 9.51101V19.6634C0.916667 21.8742 2.72195 23.6663 4.94887 23.6663H7.18434C7.97643 23.6663 8.62016 23.0319 8.6259 22.2456L8.65724 22.2352Z" fill=""/>
</svg>
