<svg width="18" height="20" viewBox="0 0 18 20" fill="none" xmlns="http://www.w3.org/2000/svg">
<path d="M8.98438 0C12.0531 0 14.5225 2.41527 14.5225 5.39648V6.92969C16.2448 7.4673 17.5 9.0264 17.5 10.8887V15.8252C17.5 18.1306 15.5888 19.9999 13.2324 20H4.76855C2.41122 19.9999 0.5 18.1306 0.5 15.8252V10.8887C0.5 9.0264 1.7562 7.4673 3.47754 6.92969V5.39648C3.4877 2.41539 5.95646 0.000203809 8.98438 0ZM8.99512 11.3848C8.50737 11.3848 8.11133 11.772 8.11133 12.249V14.4551C8.11141 14.9419 8.50742 15.3291 8.99512 15.3291C9.49288 15.329 9.88859 14.9419 9.88867 14.4551V12.249C9.88867 11.7721 9.49293 11.3849 8.99512 11.3848ZM9.00488 1.73926C6.94227 1.73936 5.26611 3.36876 5.25586 5.37598V6.71387H12.7441V5.39648C12.7441 3.37919 11.0676 1.73926 9.00488 1.73926Z" fill="#DADADA"/>
</svg>
