<svg width="35" height="27" viewBox="0 0 35 27" fill="none" xmlns="http://www.w3.org/2000/svg">
<g clip-path="url(#clip0_30_1870)">
<path d="M6.31389 26.8658V25.0788C6.31389 24.3936 5.89682 23.947 5.18195 23.947C4.82458 23.947 4.43737 24.0661 4.16927 24.4533C3.96088 24.1257 3.66307 23.947 3.21629 23.947C2.91835 23.947 2.62068 24.0362 2.3823 24.3639V24.0065H1.75684V26.8658H2.3823V25.2872C2.3823 24.781 2.65039 24.5426 3.06746 24.5426C3.48425 24.5426 3.69292 24.8107 3.69292 25.2872V26.8658H4.31838V25.2872C4.31838 24.781 4.61605 24.5426 5.00327 24.5426C5.42033 24.5426 5.62873 24.8107 5.62873 25.2872V26.8658H6.31389ZM15.5766 24.0065H14.564V23.1428H13.9386V24.0065H13.3727V24.5723H13.9384V25.883C13.9384 26.5383 14.2065 26.9254 14.9214 26.9254C15.1895 26.9254 15.4871 26.8361 15.6958 26.717L15.517 26.1808C15.3383 26.2999 15.1299 26.3297 14.9809 26.3297C14.6831 26.3297 14.564 26.1511 14.564 25.8531V24.5723H15.5766V24.0065ZM20.8782 23.9468C20.5208 23.9468 20.2826 24.1257 20.1336 24.3639V24.0065H19.5081V26.8658H20.1336V25.2575C20.1336 24.781 20.342 24.5129 20.7292 24.5129C20.8483 24.5129 20.9973 24.5427 21.1164 24.5724L21.2951 23.9768C21.176 23.947 20.9973 23.947 20.8782 23.947M12.8663 24.2449C12.5684 24.0364 12.1514 23.9471 11.7047 23.9471C10.9899 23.9471 10.5134 24.3045 10.5134 24.8704C10.5134 25.347 10.8708 25.615 11.4963 25.7044L11.7941 25.7343C12.1217 25.7937 12.3004 25.8831 12.3004 26.0321C12.3004 26.2405 12.0622 26.3894 11.6451 26.3894C11.228 26.3894 10.9005 26.2405 10.692 26.0916L10.3942 26.5681C10.7218 26.8064 11.1686 26.9255 11.6153 26.9255C12.4492 26.9255 12.9259 26.5384 12.9259 26.0022C12.9259 25.4959 12.5387 25.2278 11.9429 25.1385L11.6451 25.1086C11.377 25.0788 11.1686 25.0194 11.1686 24.8407C11.1686 24.6321 11.377 24.513 11.7047 24.513C12.0622 24.513 12.4195 24.6619 12.5982 24.7513L12.8663 24.2449ZM29.4858 23.9471C29.1283 23.9471 28.8901 24.1258 28.7411 24.364V24.0067H28.1156V26.8659H28.7411V25.2576C28.7411 24.7811 28.9496 24.513 29.3367 24.513C29.456 24.513 29.6049 24.5429 29.7241 24.5726L29.9028 23.9769C29.7836 23.9471 29.6049 23.9471 29.4858 23.9471ZM21.5037 25.4363C21.5037 26.3 22.0993 26.9255 23.0227 26.9255C23.4396 26.9255 23.7374 26.8362 24.0352 26.598L23.7374 26.0916C23.4992 26.2703 23.2609 26.3596 22.9928 26.3596C22.4865 26.3596 22.1291 26.0022 22.1291 25.4363C22.1291 24.9002 22.4865 24.5427 22.9928 24.513C23.2609 24.513 23.4992 24.6023 23.7374 24.7811L24.0352 24.2748C23.7374 24.0364 23.4396 23.9471 23.0227 23.9471C22.0993 23.9471 21.5037 24.5726 21.5037 25.4363ZM27.2818 25.4363V24.0067H26.6563V24.364C26.4478 24.0961 26.15 23.9471 25.7628 23.9471C24.9586 23.9471 24.3332 24.5726 24.3332 25.4363C24.3332 26.3 24.9586 26.9255 25.7628 26.9255C26.1797 26.9255 26.4776 26.7767 26.6563 26.5086V26.8659H27.2818V25.4363ZM24.9883 25.4363C24.9883 24.93 25.316 24.513 25.852 24.513C26.3584 24.513 26.7159 24.9002 26.7159 25.4363C26.7159 25.9427 26.3584 26.3596 25.852 26.3596C25.316 26.3297 24.9883 25.9427 24.9883 25.4363ZM17.5126 23.9471C16.6786 23.9471 16.0829 24.5427 16.0829 25.4363C16.0829 26.3299 16.6785 26.9255 17.5424 26.9255C17.9593 26.9255 18.3763 26.8064 18.704 26.5384L18.4061 26.0916C18.1678 26.2703 17.87 26.3894 17.5722 26.3894C17.185 26.3894 16.7978 26.2108 16.7084 25.7043H18.8231V25.4662C18.853 24.5427 18.3169 23.9471 17.5126 23.9471ZM17.5125 24.4832C17.8996 24.4832 18.1678 24.7216 18.2272 25.1683H16.7381C16.7976 24.7811 17.0657 24.4832 17.5125 24.4832ZM33.0299 25.4363V22.8748H32.4045V24.364C32.1959 24.0961 31.8981 23.9471 31.5109 23.9471C30.7068 23.9471 30.0813 24.5726 30.0813 25.4363C30.0813 26.3 30.7068 26.9255 31.5109 26.9255C31.928 26.9255 32.2258 26.7767 32.4045 26.5086V26.8659H33.0299V25.4363ZM30.7366 25.4363C30.7366 24.93 31.0641 24.513 31.6003 24.513C32.1067 24.513 32.464 24.9002 32.464 25.4363C32.464 25.9427 32.1067 26.3596 31.6003 26.3596C31.0641 26.3297 30.7366 25.9427 30.7366 25.4363ZM9.82814 25.4363V24.0067H9.20268V24.364C8.99415 24.0961 8.69634 23.9471 8.30912 23.9471C7.50498 23.9471 6.87952 24.5726 6.87952 25.4363C6.87952 26.3 7.50498 26.9255 8.30912 26.9255C8.72619 26.9255 9.024 26.7767 9.20268 26.5086V26.8659H9.82814V25.4363ZM7.50498 25.4363C7.50498 24.93 7.83263 24.513 8.36869 24.513C8.87503 24.513 9.23253 24.9002 9.23253 25.4363C9.23253 25.9427 8.87503 26.3596 8.36869 26.3596C7.83263 26.3297 7.50498 25.9427 7.50498 25.4363Z" fill="white"/>
<path d="M12.6582 2.29337H22.0401V19.1516H12.6582V2.29337Z" fill="#FF5F00"/>
<path d="M13.254 10.7225C13.254 7.29733 14.8622 4.25922 17.3342 2.29337C15.5176 0.863729 13.2242 0 10.7224 0C4.79516 0 0 4.79528 0 10.7225C0 16.6498 4.79516 21.4451 10.7223 21.4451C13.2241 21.4451 15.5174 20.5813 17.3342 19.1515C14.8622 17.2156 13.254 14.1477 13.254 10.7225Z" fill="#EB001B"/>
<path d="M34.6985 10.7225C34.6985 16.6496 29.9033 21.4451 23.9762 21.4451C21.4744 21.4451 19.1811 20.5813 17.3643 19.1515C19.8661 17.1858 21.4447 14.1477 21.4447 10.7225C21.4447 7.29733 19.8363 4.25922 17.3643 2.29337C19.1809 0.863729 21.4744 0 23.9762 0C29.9033 0 34.6985 4.82513 34.6985 10.7225Z" fill="#F79E1B"/>
</g>
<defs>
<clipPath id="clip0_30_1870">
<rect width="34.7328" height="27" fill="white"/>
</clipPath>
</defs>
</svg>
