<svg width="14" height="14" viewBox="0 0 14 14" fill="none" xmlns="http://www.w3.org/2000/svg">
<path fill-rule="evenodd" clip-rule="evenodd" d="M7.00016 13.6668C3.32016 13.6668 0.333496 10.6868 0.333496 7.00016C0.333496 3.32016 3.32016 0.333496 7.00016 0.333496C10.6868 0.333496 13.6668 3.32016 13.6668 7.00016C13.6668 10.6868 10.6868 13.6668 7.00016 13.6668ZM9.12683 9.4735C9.20683 9.52016 9.2935 9.54683 9.38683 9.54683C9.5535 9.54683 9.72016 9.46016 9.8135 9.30016C9.9535 9.06683 9.88016 8.76016 9.64016 8.6135L7.26683 7.20016V4.12016C7.26683 3.84016 7.04016 3.62016 6.76683 3.62016C6.4935 3.62016 6.26683 3.84016 6.26683 4.12016V7.48683C6.26683 7.66016 6.36016 7.82016 6.5135 7.9135L9.12683 9.4735Z" fill="white"/>
</svg>
