<svg width="269" height="200" viewBox="0 0 269 200" fill="none" xmlns="http://www.w3.org/2000/svg">
<path d="M268.413 175.757H0V175.891H268.413V175.757Z" fill="#EBEBEB"/>
<path d="M241.518 184.394H223.739V184.528H241.518V184.394Z" fill="#EBEBEB"/>
<path d="M177.808 185.854H173.143V185.989H177.808V185.854Z" fill="#EBEBEB"/>
<path d="M223.202 179.413H212.9V179.547H223.202V179.413Z" fill="#EBEBEB"/>
<path d="M51.3471 180.315H28.1616V180.449H51.3471V180.315Z" fill="#EBEBEB"/>
<path d="M59.5285 180.315H56.1304V180.449H59.5285V180.315Z" fill="#EBEBEB"/>
<path d="M120.867 182.58H70.5767V182.714H120.867V182.58Z" fill="#EBEBEB"/>
<path d="M127.228 151.814H23.5721C22.7601 151.813 21.9818 151.489 21.4081 150.915C20.8344 150.34 20.5122 149.561 20.5122 148.749V3.03844C20.5193 2.23106 20.8446 1.45908 21.4175 0.890175C21.9905 0.321268 22.7647 0.00138307 23.5721 0H127.228C128.041 0 128.821 0.322948 129.395 0.897799C129.97 1.47265 130.293 2.25232 130.293 3.06528V148.749C130.293 149.562 129.97 150.342 129.395 150.917C128.821 151.492 128.041 151.814 127.228 151.814ZM23.5721 0.107366C22.7957 0.108788 22.0515 0.418223 21.503 0.967751C20.9545 1.51728 20.6464 2.262 20.6464 3.03844V148.749C20.6464 149.526 20.9545 150.27 21.503 150.82C22.0515 151.369 22.7957 151.679 23.5721 151.68H127.228C128.005 151.679 128.75 151.37 129.299 150.82C129.848 150.271 130.158 149.526 130.159 148.749V3.03844C130.158 2.2615 129.848 1.5168 129.299 0.967423C128.75 0.418048 128.005 0.108785 127.228 0.107366H23.5721Z" fill="#EBEBEB"/>
<path d="M243.349 151.814H139.688C138.875 151.813 138.096 151.49 137.522 150.915C136.947 150.341 136.624 149.562 136.623 148.749V3.03844C136.631 2.23057 136.958 1.4586 137.531 0.889839C138.105 0.32108 138.88 0.00136799 139.688 0H243.349C244.155 0.00279391 244.928 0.323303 245.5 0.892059C246.072 1.46082 246.396 2.23199 246.404 3.03844V148.749C246.404 149.56 246.082 150.338 245.51 150.913C244.937 151.487 244.16 151.812 243.349 151.814ZM139.688 0.107366C138.911 0.108785 138.166 0.418048 137.617 0.967423C137.067 1.5168 136.758 2.2615 136.757 3.03844V148.749C136.758 149.526 137.067 150.271 137.617 150.82C138.166 151.37 138.911 151.679 139.688 151.68H243.349C244.126 151.679 244.871 151.37 245.42 150.82C245.969 150.271 246.279 149.526 246.28 148.749V3.03844C246.279 2.2615 245.969 1.5168 245.42 0.967423C244.871 0.418048 244.126 0.108785 243.349 0.107366H139.688Z" fill="#EBEBEB"/>
<path d="M135.93 55.1965C135.093 51.1867 133.507 47.371 131.254 43.9499L135.28 39.0863L126.691 30.4971L121.827 34.5233C118.409 32.2646 114.595 30.671 110.586 29.826L109.996 23.5613H97.7989L97.2084 29.826C93.2004 30.6628 89.3865 32.2492 85.9673 34.5018L81.1036 30.4756L72.5144 39.0648L76.5406 43.9285C74.288 47.3496 72.7016 51.1652 71.8649 55.175L65.5947 55.7655V67.9353L71.8649 68.5258C72.7026 72.5353 74.2889 76.3508 76.5406 79.7724L72.4715 84.6575L81.0607 93.2467L85.9243 89.2205C89.3424 91.4752 93.1567 93.0618 97.1655 93.8963L97.756 100.166H109.931L110.522 93.8963C114.532 93.0609 118.348 91.4744 121.768 89.2205L126.632 93.2467L135.221 84.6575L131.195 79.7938C133.447 76.3723 135.033 72.5568 135.871 68.5473L142.141 67.9568V55.787L135.93 55.1965ZM120.362 61.8692C120.362 65.1288 119.395 68.3151 117.584 71.0253C115.773 73.7355 113.199 75.8479 110.188 77.0953C107.177 78.3426 103.863 78.669 100.666 78.0331C97.4691 77.3972 94.5325 75.8276 92.2277 73.5227C89.9228 71.2179 88.3532 68.2813 87.7173 65.0844C87.0814 61.8875 87.4077 58.5738 88.6551 55.5624C89.9025 52.5509 92.0149 49.977 94.7251 48.1661C97.4353 46.3552 100.622 45.3886 103.881 45.3886C106.046 45.3872 108.19 45.8125 110.19 46.6402C112.191 47.4678 114.009 48.6816 115.54 50.2122C117.071 51.7428 118.285 53.5601 119.114 55.5603C119.942 57.5605 120.368 59.7043 120.367 61.8692H120.362Z" fill="white"/>
<path d="M170.845 113.619L171.248 118.102H179.992L180.417 113.598C183.297 112.997 186.038 111.859 188.496 110.242L191.991 113.136L198.18 106.946L195.287 103.452C196.904 100.994 198.043 98.2529 198.642 95.3724L203.146 94.9483V86.2248L198.642 85.8008C198.043 82.9203 196.904 80.179 195.287 77.7215L198.18 74.2268L191.991 68.0425L188.496 70.936C186.039 69.3158 183.298 68.1755 180.417 67.5755L179.992 63.0715H171.248L170.823 67.5755C167.943 68.1765 165.201 69.3167 162.744 70.936L159.249 68.0425L153.065 74.2268L155.959 77.7215C154.339 80.1787 153.199 82.92 152.598 85.8008L148.094 86.2248V94.9698L152.598 95.3938C153.199 98.2746 154.339 101.016 155.959 103.473L153.065 106.968L159.249 113.157L162.744 110.264C165.209 111.882 167.958 113.02 170.845 113.619ZM175.644 102.437C173.3 102.438 171.009 101.744 169.06 100.442C167.111 99.1395 165.593 97.2884 164.696 95.1227C163.8 92.9571 163.567 90.5741 164.026 88.2757C164.485 85.9773 165.615 83.8667 167.275 82.2113C168.934 80.5558 171.047 79.43 173.346 78.9762C175.646 78.5225 178.028 78.7613 180.192 79.6624C182.355 80.5635 184.203 82.0864 185.501 84.0382C186.798 85.9901 187.488 88.283 187.481 90.6268C187.473 93.7611 186.222 96.7642 184.003 98.978C181.784 101.192 178.778 102.436 175.644 102.437Z" fill="#E0E0E0"/>
<path d="M59.3245 156.71L59.5392 159.008H64.0002L64.2203 156.715C65.6884 156.406 67.0852 155.823 68.3378 154.998L70.12 156.474L73.2766 153.323L71.8003 151.54C72.6255 150.286 73.2065 148.887 73.5128 147.418L75.8104 147.203V142.742L73.5128 142.527C73.2065 141.057 72.6255 139.659 71.8003 138.404L73.2766 136.622L70.12 133.465L68.3378 134.942C67.085 134.117 65.6881 133.537 64.2203 133.229L64.0002 130.932H59.5392L59.3245 133.229C57.8566 133.537 56.4598 134.117 55.207 134.942L53.4247 133.465L50.2682 136.622L51.7445 138.404C50.9167 139.657 50.3355 141.056 50.032 142.527L47.7344 142.742V147.203L50.032 147.418C50.3355 148.888 50.9167 150.288 51.7445 151.54L50.2682 153.323L53.4247 156.474L55.207 154.998C56.4587 155.824 57.8559 156.405 59.3245 156.71ZM61.7724 151.009C60.5779 151.009 59.4103 150.655 58.4171 149.991C57.424 149.328 56.6499 148.384 56.1928 147.281C55.7357 146.177 55.6161 144.963 55.8491 143.791C56.0822 142.62 56.6573 141.544 57.502 140.699C58.3466 139.855 59.4227 139.279 60.5942 139.046C61.7657 138.813 62.98 138.933 64.0835 139.39C65.1871 139.847 66.1303 140.621 66.7939 141.614C67.4575 142.608 67.8117 143.775 67.8117 144.97C67.8117 145.763 67.6555 146.548 67.352 147.281C67.0485 148.014 66.6036 148.679 66.0428 149.24C65.482 149.801 64.8162 150.246 64.0835 150.549C63.3508 150.853 62.5655 151.009 61.7724 151.009Z" fill="white"/>
<path d="M219.696 145.566L219.873 147.456H223.545L223.722 145.566C224.932 145.313 226.083 144.834 227.115 144.154L228.581 145.373L231.179 142.774L229.96 141.309C230.641 140.277 231.12 139.126 231.372 137.916L233.262 137.739V134.067L231.372 133.89C231.119 132.68 230.64 131.529 229.96 130.497L231.179 129.032L228.581 126.433L227.115 127.652C226.083 126.972 224.932 126.493 223.722 126.24L223.545 124.351H219.873L219.696 126.24C218.487 126.493 217.335 126.972 216.303 127.652L214.838 126.433L212.24 129.032L213.458 130.497C212.779 131.529 212.3 132.68 212.046 133.89L210.157 134.067V137.739L212.046 137.916C212.299 139.126 212.778 140.277 213.458 141.309L212.24 142.796L214.838 145.394L216.303 144.176C217.337 144.848 218.488 145.319 219.696 145.566ZM221.709 140.874C220.726 140.874 219.765 140.583 218.947 140.036C218.13 139.49 217.493 138.714 217.117 137.805C216.74 136.897 216.642 135.898 216.834 134.933C217.026 133.969 217.499 133.083 218.194 132.388C218.889 131.693 219.775 131.219 220.739 131.028C221.704 130.836 222.703 130.934 223.612 131.31C224.52 131.687 225.296 132.324 225.842 133.141C226.389 133.959 226.68 134.92 226.68 135.903C226.679 137.221 226.155 138.485 225.223 139.417C224.291 140.348 223.027 140.873 221.709 140.874Z" fill="white"/>
<path d="M124.399 174.871H134.813L135.318 169.503C138.75 168.794 142.017 167.438 144.943 165.509L149.103 168.956L156.458 161.585L152.995 157.43C154.922 154.504 156.277 151.24 156.989 147.81L162.358 147.305V136.891L156.989 136.386C156.276 132.958 154.921 129.696 152.995 126.772L156.436 122.611L149.071 115.246L144.943 118.687C142.018 116.762 138.756 115.405 135.328 114.688L134.824 109.32H124.409L123.905 114.688C120.475 115.404 117.211 116.761 114.285 118.687L110.124 115.246L102.748 122.611L106.195 126.772C104.265 129.695 102.908 132.957 102.195 136.386L96.8271 136.891V147.305L102.195 147.81C102.907 151.241 104.264 154.506 106.195 157.43L102.748 161.585L110.114 168.95L114.274 165.504C117.198 167.435 120.463 168.792 123.894 169.503L124.399 174.871ZM129.606 156.195C126.818 156.195 124.092 155.368 121.774 153.819C119.456 152.27 117.649 150.069 116.582 147.493C115.515 144.917 115.236 142.083 115.78 139.348C116.324 136.613 117.666 134.102 119.638 132.13C121.609 130.159 124.121 128.816 126.856 128.272C129.59 127.728 132.425 128.007 135 129.074C137.576 130.141 139.778 131.948 141.327 134.266C142.876 136.585 143.703 139.31 143.703 142.098C143.706 143.951 143.343 145.787 142.636 147.499C141.929 149.212 140.891 150.769 139.581 152.08C138.272 153.392 136.717 154.432 135.005 155.142C133.294 155.851 131.459 156.217 129.606 156.217V156.195Z" fill="white"/>
<path d="M182.607 155.819L182.07 154.746C181.206 153.102 179.724 151.868 177.95 151.315C176.177 150.763 174.257 150.936 172.611 151.798L170.099 153.114C168.455 153.98 167.223 155.463 166.67 157.237C166.118 159.011 166.291 160.931 167.152 162.578L167.689 163.625L165.938 164.548L172.246 176.562L190.665 166.899L184.357 154.88L182.607 155.819ZM178.763 165.01L179.864 167.109L178.532 167.812L177.432 165.713C177.178 165.703 176.931 165.627 176.715 165.492C176.5 165.358 176.323 165.169 176.203 164.945C176.1 164.772 176.034 164.579 176.008 164.379C175.983 164.179 175.998 163.976 176.053 163.783C176.108 163.589 176.202 163.408 176.329 163.252C176.457 163.095 176.614 162.966 176.793 162.873C176.971 162.779 177.167 162.723 177.368 162.707C177.569 162.692 177.771 162.717 177.961 162.782C178.152 162.846 178.328 162.949 178.478 163.084C178.628 163.219 178.748 163.383 178.833 163.566C178.949 163.791 179.004 164.044 178.992 164.297C178.98 164.551 178.901 164.796 178.763 165.01ZM179.837 157.29L170.448 162.218L169.911 161.145C169.434 160.232 169.339 159.167 169.646 158.184C169.953 157.201 170.637 156.38 171.548 155.9L174.055 154.585C174.965 154.106 176.027 154.007 177.01 154.309C177.992 154.61 178.816 155.288 179.3 156.195L179.837 157.29Z" fill="white"/>
<path d="M53.8491 91.9852L54.241 90.8686C54.8481 89.113 54.7347 87.1883 53.9258 85.5161C53.1168 83.8438 51.6782 82.5603 49.9249 81.9465L47.2408 81.0178C45.4831 80.4119 43.5568 80.5284 41.885 81.3417C40.2131 82.155 38.9324 83.5985 38.3241 85.3554L37.9322 86.4773L36.0694 85.8278L31.6138 98.6526L51.267 105.46L55.7173 92.6347L53.8491 91.9852ZM44.5191 95.4799L43.7407 97.7024L42.3181 97.2085L43.0965 94.9699C42.9297 94.779 42.8157 94.5477 42.7658 94.2992C42.7158 94.0506 42.7318 93.7932 42.812 93.5527C42.9422 93.179 43.2156 92.8723 43.572 92.7001C43.9284 92.528 44.3386 92.5045 44.7123 92.6347C45.0861 92.765 45.3927 93.0384 45.5649 93.3948C45.737 93.7512 45.7606 94.1614 45.6303 94.5351C45.5437 94.7759 45.3955 94.9898 45.2006 95.1556C45.0056 95.3213 44.7707 95.4332 44.5191 95.4799ZM50.9019 90.9652L40.8848 87.5027L41.2713 86.3807C41.6111 85.4088 42.3222 84.6112 43.2489 84.1624C44.1755 83.7137 45.2422 83.6504 46.2154 83.9865L48.8996 84.9152C49.8723 85.2538 50.6709 85.9647 51.1198 86.8918C51.5688 87.8188 51.6313 88.8862 51.2938 89.8593L50.9019 90.9652Z" fill="white"/>
<path d="M229.724 85.7149L228.576 85.3499C230.149 85.0711 231.583 84.2732 232.649 83.0836C233.715 81.8941 234.352 80.3815 234.458 78.7875C234.564 77.1935 234.132 75.61 233.233 74.29C232.333 72.9699 231.017 71.9895 229.494 71.5053C227.972 71.0211 226.331 71.061 224.834 71.6187C223.337 72.1764 222.07 73.2197 221.236 74.5819C220.401 75.9441 220.047 77.5467 220.231 79.1337C220.414 80.7207 221.123 82.2005 222.246 83.3368L221.103 82.9717C219.427 82.4366 217.607 82.5883 216.043 83.3934C214.479 84.1986 213.299 85.5915 212.761 87.2663L211.612 90.8845L232.892 97.6432L234.057 94.0518C234.321 93.22 234.418 92.3442 234.343 91.4747C234.268 90.6052 234.023 89.759 233.62 88.9845C233.218 88.2101 232.666 87.5227 231.998 86.9616C231.329 86.4006 230.557 85.9769 229.724 85.7149Z" fill="white"/>
<path d="M152.561 20.8827L151.847 21.1834C152.501 20.3894 152.87 19.3992 152.895 18.3709C152.92 17.3425 152.6 16.3354 151.986 15.5103C151.371 14.6853 150.498 14.09 149.506 13.8194C148.513 13.5489 147.459 13.6188 146.511 14.0179C145.563 14.417 144.776 15.1223 144.276 16.0212C143.776 16.9201 143.591 17.9607 143.752 18.9767C143.912 19.9927 144.409 20.9256 145.162 21.6263C145.915 22.327 146.881 22.7551 147.906 22.8422L147.192 23.1428C146.151 23.5858 145.327 24.4219 144.899 25.4694C144.47 26.5168 144.473 27.6909 144.906 28.7365L145.85 30.9912L159.105 25.4189L158.154 23.1696C157.711 22.1284 156.875 21.3041 155.828 20.8758C154.78 20.4476 153.606 20.4501 152.561 20.8827Z" fill="white"/>
<path d="M56.6352 35.9671L55.8783 35.8115C56.8706 35.5301 57.7399 34.9242 58.3473 34.0906C58.9547 33.2569 59.265 32.2438 59.2288 31.213C59.1926 30.1822 58.8118 29.1933 58.1474 28.4044C57.4829 27.6155 56.5732 27.0722 55.5636 26.8612C54.554 26.6502 53.5028 26.7838 52.578 27.2406C51.6533 27.6974 50.9084 28.451 50.4624 29.381C50.0164 30.311 49.895 31.3637 50.1178 32.3708C50.3405 33.3779 50.8944 34.2812 51.691 34.9364L50.9341 34.7807C49.8217 34.5555 48.6654 34.7797 47.7179 35.4043C46.7703 36.029 46.1085 37.0033 45.8772 38.1144L45.3779 40.5033L59.4481 43.4344L59.9474 41.0455C60.1796 39.933 59.9613 38.7739 59.3405 37.822C58.7197 36.8701 57.7469 36.2031 56.6352 35.9671Z" fill="white"/>
<path d="M134.206 200C191.691 200 238.292 197.279 238.292 193.923C238.292 190.567 191.691 187.846 134.206 187.846C76.7216 187.846 30.1211 190.567 30.1211 193.923C30.1211 197.279 76.7216 200 134.206 200Z" fill="#202125"/>
<path d="M198.186 42.0977H102.142C99.9717 42.0977 98.2124 43.857 98.2124 46.0272V163.952C98.2124 166.122 99.9717 167.881 102.142 167.881H198.186C200.356 167.881 202.115 166.122 202.115 163.952V46.0272C202.115 43.857 200.356 42.0977 198.186 42.0977Z" fill="#38393E"/>
<path opacity="0.6" d="M198.186 42.0977H102.142C99.9717 42.0977 98.2124 43.857 98.2124 46.0272V163.952C98.2124 166.122 99.9717 167.881 102.142 167.881H198.186C200.356 167.881 202.115 166.122 202.115 163.952V46.0272C202.115 43.857 200.356 42.0977 198.186 42.0977Z" fill="white"/>
<path d="M185.28 89.7766H115.042V101.802H185.28V89.7766Z" fill="#202125"/>
<g opacity="0.4">
<path d="M118.585 95.5525C118.582 95.317 118.626 95.0833 118.717 94.8657C118.807 94.6482 118.94 94.4513 119.109 94.287C119.278 94.1227 119.478 93.9946 119.698 93.9103C119.918 93.8261 120.153 93.7876 120.388 93.7971C120.622 93.7887 120.855 93.8293 121.073 93.9162C121.29 94.0031 121.486 94.1344 121.65 94.3017L121.419 94.5325C121.286 94.398 121.127 94.2924 120.952 94.2222C120.776 94.152 120.588 94.1187 120.399 94.1245C120.02 94.1245 119.657 94.275 119.389 94.5428C119.122 94.8106 118.971 95.1738 118.971 95.5525C118.971 95.9312 119.122 96.2944 119.389 96.5622C119.657 96.83 120.02 96.9804 120.399 96.9804C120.589 96.9865 120.777 96.9529 120.953 96.8817C121.129 96.8105 121.287 96.7033 121.419 96.5671L121.65 96.7979C121.486 96.9659 121.288 97.0976 121.07 97.1845C120.852 97.2715 120.618 97.3117 120.383 97.3025C120.148 97.3128 119.914 97.275 119.694 97.1913C119.475 97.1076 119.274 96.9799 119.106 96.8159C118.937 96.652 118.804 96.4554 118.715 96.2381C118.625 96.0208 118.581 95.7875 118.585 95.5525Z" fill="white"/>
<path d="M121.977 95.9822C121.976 95.7208 122.053 95.4649 122.197 95.2471C122.342 95.0292 122.547 94.8591 122.789 94.7583C123.03 94.6575 123.296 94.6306 123.552 94.681C123.809 94.7313 124.044 94.8567 124.23 95.0411C124.415 95.2256 124.541 95.4609 124.593 95.7172C124.644 95.9735 124.618 96.2393 124.518 96.481C124.419 96.7226 124.249 96.9291 124.032 97.0745C123.815 97.2198 123.559 97.2974 123.298 97.2974C123.123 97.3034 122.949 97.2735 122.787 97.2096C122.624 97.1456 122.476 97.0491 122.353 96.9258C122.229 96.8025 122.132 96.6552 122.067 96.4929C122.003 96.3306 121.972 96.1568 121.977 95.9822ZM124.259 95.9822C124.25 95.7929 124.186 95.6103 124.075 95.457C123.964 95.3038 123.81 95.1866 123.632 95.1202C123.455 95.0538 123.262 95.041 123.077 95.0834C122.892 95.1258 122.724 95.2216 122.594 95.3589C122.463 95.4961 122.375 95.6687 122.342 95.8552C122.309 96.0417 122.331 96.2339 122.406 96.4079C122.481 96.5819 122.606 96.7299 122.764 96.8337C122.923 96.9374 123.108 96.9923 123.298 96.9914C123.429 96.994 123.559 96.9692 123.68 96.9188C123.801 96.8683 123.91 96.7932 124 96.6983C124.091 96.6034 124.16 96.4907 124.205 96.3674C124.249 96.2441 124.268 96.113 124.259 95.9822Z" fill="white"/>
<path d="M127.711 95.7723V97.2754H127.362V95.8045C127.377 95.6965 127.369 95.5863 127.336 95.4822C127.303 95.378 127.247 95.2826 127.172 95.2032C127.097 95.1237 127.006 95.0621 126.904 95.0231C126.802 94.9841 126.692 94.9686 126.583 94.9778C126.459 94.9693 126.335 94.9881 126.219 95.0328C126.102 95.0774 125.998 95.147 125.911 95.2365C125.825 95.326 125.759 95.4333 125.718 95.5509C125.678 95.6685 125.663 95.7935 125.676 95.9173V97.2754H125.327V94.6826H125.66V95.1603C125.764 94.9963 125.912 94.8637 126.085 94.7767C126.259 94.6897 126.454 94.6516 126.648 94.6665C126.794 94.6552 126.941 94.6764 127.078 94.7286C127.215 94.7808 127.339 94.8627 127.44 94.9684C127.542 95.0742 127.619 95.2011 127.666 95.3401C127.712 95.4791 127.728 95.6267 127.711 95.7723Z" fill="white"/>
<path d="M129.504 93.5985C129.696 93.5885 129.886 93.6454 130.041 93.7595L129.922 94.0225C129.813 93.9343 129.676 93.8885 129.536 93.8937C129.241 93.8937 129.08 94.0601 129.08 94.3822V94.6828H129.88V94.9781H129.09V97.2757H128.741V94.9781H128.28V94.6828H128.741V94.3661C128.733 94.2637 128.748 94.1608 128.783 94.0645C128.818 93.9681 128.874 93.8804 128.947 93.8076C129.019 93.7347 129.106 93.6783 129.202 93.6422C129.299 93.6061 129.401 93.5912 129.504 93.5985ZM131.157 93.8615C131.158 93.8955 131.152 93.9294 131.139 93.961C131.126 93.9926 131.107 94.0213 131.083 94.0453C131.059 94.0694 131.031 94.0884 130.999 94.1011C130.967 94.1137 130.934 94.1199 130.899 94.1192C130.864 94.1244 130.827 94.1219 130.792 94.1118C130.757 94.1017 130.725 94.0842 130.698 94.0605C130.67 94.0368 130.648 94.0075 130.633 93.9745C130.618 93.9416 130.61 93.9058 130.61 93.8696C130.61 93.8333 130.618 93.7975 130.633 93.7646C130.648 93.7316 130.67 93.7023 130.698 93.6786C130.725 93.6549 130.757 93.6374 130.792 93.6273C130.827 93.6172 130.864 93.6147 130.899 93.6199C130.932 93.6185 130.965 93.6236 130.996 93.6351C131.027 93.6465 131.055 93.664 131.079 93.6865C131.103 93.709 131.122 93.7361 131.136 93.7661C131.149 93.7962 131.156 93.8286 131.157 93.8615ZM130.722 94.6828H131.071V97.2757H130.722V94.6828Z" fill="white"/>
<path d="M133.353 94.6664V95.0046H133.267C133.144 94.9986 133.02 95.02 132.906 95.0671C132.792 95.1143 132.69 95.1861 132.607 95.2774C132.524 95.3687 132.462 95.4773 132.426 95.5953C132.389 95.7134 132.38 95.838 132.397 95.9602V97.2808H132.059V94.6879H132.392V95.1979C132.48 95.0232 132.619 94.8792 132.791 94.7844C132.962 94.6896 133.158 94.6485 133.353 94.6664Z" fill="white"/>
<path d="M138.254 95.7729V97.276H137.905V95.8051C137.905 95.2683 137.631 94.9784 137.164 94.9784C137.043 94.9728 136.921 94.9938 136.808 95.0401C136.695 95.0863 136.594 95.1566 136.511 95.2461C136.428 95.3355 136.366 95.442 136.329 95.5581C136.291 95.6741 136.28 95.7969 136.295 95.9179V97.276H135.946V95.8051C135.946 95.2683 135.672 94.9784 135.2 94.9784C135.078 94.9737 134.957 94.9954 134.845 95.0419C134.732 95.0885 134.631 95.1588 134.549 95.2481C134.466 95.3373 134.404 95.4434 134.366 95.559C134.328 95.6746 134.316 95.797 134.33 95.9179V97.276H133.981V94.6832H134.319V95.1556C134.421 94.9983 134.562 94.8704 134.729 94.7847C134.896 94.699 135.082 94.6585 135.269 94.6671C135.459 94.6518 135.649 94.6951 135.813 94.7911C135.977 94.8871 136.108 95.0312 136.187 95.2039C136.294 95.0301 136.445 94.8884 136.626 94.7938C136.806 94.6993 137.009 94.6555 137.213 94.6671C137.358 94.6561 137.504 94.6778 137.639 94.7305C137.775 94.7831 137.897 94.8655 137.997 94.9715C138.097 95.0775 138.172 95.2045 138.216 95.3431C138.261 95.4818 138.274 95.6286 138.254 95.7729Z" fill="white"/>
<path d="M143.451 93.8291V97.2755H143.15L140.933 94.4787V97.2755H140.568V93.8291H140.868L143.091 96.626V93.8291H143.451Z" fill="white"/>
<path d="M146.752 96.0893H144.605C144.612 96.2158 144.644 96.3397 144.699 96.4538C144.754 96.5679 144.831 96.6698 144.926 96.7538C145.021 96.8377 145.132 96.9019 145.252 96.9427C145.372 96.9834 145.498 96.9999 145.625 96.9912C145.774 96.996 145.922 96.9677 146.058 96.9083C146.195 96.8489 146.316 96.7598 146.414 96.6476L146.613 96.8785C146.426 97.0727 146.187 97.2079 145.925 97.2671C145.663 97.3262 145.389 97.3068 145.137 97.2111C144.886 97.1155 144.668 96.9479 144.511 96.7293C144.355 96.5107 144.266 96.2508 144.256 95.982C144.246 95.8113 144.272 95.6404 144.331 95.4801C144.391 95.3197 144.482 95.1733 144.601 95.0499C144.719 94.9265 144.861 94.8288 145.019 94.7629C145.177 94.697 145.346 94.6643 145.517 94.6667C145.688 94.6634 145.858 94.6956 146.016 94.7613C146.174 94.827 146.316 94.9248 146.434 95.0484C146.552 95.172 146.644 95.3189 146.702 95.4796C146.76 95.6403 146.785 95.8113 146.774 95.982C146.757 96.0088 146.752 96.0464 146.752 96.0893ZM144.605 95.8263H146.441C146.441 95.5828 146.344 95.3493 146.172 95.1772C146 95.005 145.766 94.9083 145.523 94.9083C145.279 94.9083 145.046 95.005 144.874 95.1772C144.702 95.3493 144.605 95.5828 144.605 95.8263Z" fill="white"/>
<path d="M151.224 94.6826L150.241 97.2755H149.914L149.098 95.155L148.282 97.2755H147.949L146.978 94.6826H147.31L148.121 96.8836L148.953 94.6826H149.238L150.064 96.8836L150.886 94.6826H151.224Z" fill="white"/>
<path d="M155.814 95.0101C155.814 95.7456 155.277 96.1858 154.402 96.1858H153.478V97.2594H153.113V93.813H154.402C155.282 93.8291 155.814 94.2693 155.814 95.0101ZM155.448 95.0101C155.448 94.4733 155.083 94.1458 154.375 94.1458H153.478V95.869H154.396C155.083 95.869 155.448 95.5523 155.448 95.0101Z" fill="white"/>
<path d="M158.455 95.6705V97.281H158.122V96.8784C158.025 97.0218 157.891 97.1367 157.734 97.2112C157.577 97.2858 157.404 97.3173 157.231 97.3025C156.646 97.3025 156.286 96.9965 156.286 96.5509C156.286 96.1054 156.538 95.8048 157.29 95.8048H158.111V95.6491C158.111 95.2089 157.859 94.9673 157.376 94.9673C157.063 94.9635 156.759 95.0699 156.517 95.2679L156.361 95.0102C156.667 94.7707 157.047 94.6471 157.435 94.6613C157.572 94.6452 157.711 94.6602 157.841 94.705C157.971 94.7499 158.09 94.8235 158.188 94.9205C158.286 95.0174 158.361 95.1352 158.407 95.265C158.453 95.3949 158.47 95.5335 158.455 95.6705ZM158.106 96.4973V96.0732H157.29C156.785 96.0732 156.624 96.2718 156.624 96.5348C156.624 96.7979 156.866 97.0233 157.279 97.0233C157.455 97.0344 157.63 96.9894 157.778 96.8949C157.927 96.8004 158.042 96.6611 158.106 96.4973Z" fill="white"/>
<path d="M159.045 96.9801L159.206 96.701C159.472 96.8946 159.795 96.9963 160.124 96.9909C160.618 96.9909 160.816 96.8245 160.816 96.5721C160.816 95.8957 159.142 96.4272 159.142 95.4019C159.142 94.9778 159.507 94.6664 160.162 94.6664C160.484 94.6594 160.802 94.7431 161.079 94.908L160.929 95.1871C160.701 95.0385 160.434 94.9618 160.162 94.967C159.694 94.967 159.49 95.1496 159.49 95.3911C159.49 96.0944 161.171 95.5683 161.171 96.5614C161.171 97.007 160.774 97.2969 160.097 97.2969C159.721 97.3074 159.352 97.1963 159.045 96.9801Z" fill="white"/>
<path d="M161.456 96.9806L161.612 96.7014C161.881 96.894 162.204 96.9956 162.535 96.9913C163.024 96.9913 163.228 96.8249 163.228 96.5726C163.228 95.8962 161.547 96.4276 161.547 95.4023C161.547 94.9782 161.912 94.6668 162.573 94.6668C162.893 94.6606 163.21 94.7442 163.485 94.9084L163.335 95.1876C163.109 95.039 162.843 94.9623 162.573 94.9675C162.106 94.9675 161.896 95.15 161.896 95.3916C161.896 96.0948 163.577 95.5687 163.577 96.5618C163.577 97.0074 163.185 97.2973 162.503 97.2973C162.129 97.3086 161.761 97.1974 161.456 96.9806Z" fill="white"/>
<path d="M167.973 94.6826L166.99 97.2755H166.663L165.847 95.155L165.031 97.2755H164.698L163.732 94.6826H164.065L164.875 96.8836L165.707 94.6826H166.008L166.835 96.8836L167.656 94.6826H167.973Z" fill="white"/>
<path d="M168.166 95.9817C168.166 95.7218 168.243 95.4678 168.388 95.2516C168.532 95.0354 168.737 94.8668 168.977 94.7671C169.217 94.6674 169.481 94.6411 169.736 94.6914C169.991 94.7417 170.225 94.8664 170.41 95.0498C170.594 95.2332 170.719 95.4671 170.771 95.7219C170.822 95.9766 170.797 96.2409 170.698 96.4813C170.599 96.7218 170.432 96.9275 170.216 97.0727C170.001 97.2178 169.747 97.2959 169.487 97.2969C169.312 97.3037 169.138 97.2743 168.975 97.2107C168.812 97.1471 168.664 97.0505 168.54 96.9271C168.416 96.8036 168.319 96.656 168.255 96.4933C168.19 96.3307 168.16 96.1565 168.166 95.9817ZM170.442 95.9817C170.433 95.7938 170.369 95.6128 170.257 95.4611C170.146 95.3095 169.992 95.1939 169.816 95.1287C169.639 95.0635 169.447 95.0515 169.264 95.0943C169.081 95.1371 168.914 95.2327 168.785 95.3694C168.656 95.506 168.569 95.6776 168.536 95.8629C168.504 96.0482 168.526 96.2391 168.601 96.4118C168.676 96.5845 168.799 96.7314 168.957 96.8343C169.114 96.9373 169.299 96.9918 169.487 96.9909C169.617 96.9927 169.747 96.9674 169.867 96.9166C169.988 96.8658 170.096 96.7907 170.186 96.6958C170.276 96.601 170.345 96.4886 170.389 96.3657C170.433 96.2427 170.451 96.112 170.442 95.9817Z" fill="white"/>
<path d="M172.815 94.6664V95.0046H172.734C172.611 94.9986 172.488 95.02 172.374 95.0671C172.26 95.1143 172.157 95.1861 172.074 95.2774C171.991 95.3687 171.929 95.4773 171.893 95.5953C171.857 95.7134 171.847 95.838 171.865 95.9602V97.2808H171.51V94.6879H171.848V95.1979C171.937 95.0223 172.077 94.8776 172.249 94.7828C172.422 94.688 172.619 94.6474 172.815 94.6664Z" fill="white"/>
<path d="M175.784 93.6196V97.2754H175.451V96.7386C175.348 96.909 175.2 97.0487 175.025 97.1431C174.849 97.2375 174.652 97.2832 174.452 97.2754C174.104 97.2754 173.769 97.1368 173.522 96.8902C173.276 96.6435 173.137 96.309 173.137 95.9602C173.137 95.6114 173.276 95.2768 173.522 95.0302C173.769 94.7835 174.104 94.6449 174.452 94.6449C174.646 94.6383 174.838 94.6817 175.011 94.7711C175.183 94.8604 175.329 94.9926 175.435 95.1549V93.5981L175.784 93.6196ZM175.44 95.9816C175.431 95.7939 175.366 95.6131 175.255 95.4616C175.144 95.31 174.991 95.1944 174.815 95.1291C174.639 95.0637 174.447 95.0514 174.264 95.0938C174.081 95.1361 173.914 95.2312 173.785 95.3674C173.655 95.5035 173.568 95.6746 173.535 95.8596C173.501 96.0445 173.523 96.2352 173.597 96.408C173.671 96.5808 173.794 96.7281 173.951 96.8317C174.108 96.9353 174.291 96.9906 174.479 96.9909C174.61 96.9934 174.74 96.9687 174.861 96.9182C174.982 96.8677 175.091 96.7927 175.182 96.6977C175.272 96.6028 175.342 96.4901 175.386 96.3669C175.431 96.2436 175.449 96.1124 175.44 95.9816Z" fill="white"/>
</g>
<path opacity="0.2" d="M185.28 113.311H115.042V125.336H185.28V113.311Z" fill="black"/>
<path d="M185.28 112.57H115.042V124.595H185.28V112.57Z" fill="#38393E"/>
<path d="M130.357 119.962L130.578 119.5C130.96 119.815 131.441 119.984 131.936 119.978C132.644 119.978 132.95 119.704 132.95 119.345C132.95 118.341 130.459 118.974 130.459 117.444C130.459 116.811 130.953 116.269 132.032 116.269C132.5 116.26 132.961 116.387 133.358 116.634L133.165 117.101C132.826 116.886 132.434 116.771 132.032 116.768C131.334 116.768 131.034 117.063 131.034 117.423C131.034 118.427 133.53 117.799 133.53 119.307C133.53 119.941 132.993 120.477 131.92 120.477C131.355 120.492 130.803 120.31 130.357 119.962Z" fill="white"/>
<path d="M137.11 119.082H134.582C134.622 119.348 134.76 119.59 134.97 119.759C135.18 119.928 135.446 120.012 135.715 119.994C135.882 120 136.049 119.969 136.204 119.904C136.358 119.839 136.497 119.742 136.611 119.618L136.922 119.984C136.693 120.217 136.402 120.38 136.082 120.452C135.763 120.523 135.43 120.501 135.123 120.387C134.816 120.274 134.548 120.074 134.352 119.812C134.156 119.55 134.04 119.236 134.018 118.91C134.007 118.7 134.04 118.489 134.113 118.292C134.187 118.095 134.301 117.915 134.448 117.764C134.595 117.613 134.771 117.493 134.966 117.413C135.161 117.333 135.37 117.295 135.58 117.299C135.79 117.294 135.999 117.332 136.193 117.412C136.388 117.492 136.563 117.611 136.708 117.763C136.853 117.915 136.965 118.095 137.036 118.293C137.107 118.49 137.136 118.7 137.121 118.91C137.121 118.958 137.116 119.028 137.11 119.082ZM134.582 118.679H136.584C136.553 118.435 136.435 118.211 136.25 118.049C136.066 117.887 135.829 117.797 135.583 117.797C135.337 117.797 135.1 117.887 134.916 118.049C134.732 118.211 134.613 118.435 134.582 118.679Z" fill="white"/>
<path d="M139.66 120.273C139.464 120.421 139.224 120.497 138.979 120.488C138.846 120.503 138.712 120.489 138.586 120.445C138.46 120.401 138.345 120.33 138.251 120.236C138.156 120.143 138.083 120.029 138.038 119.903C137.993 119.778 137.977 119.644 137.991 119.511V117.815H137.454V117.353H137.991V116.671H138.555V117.353H139.451V117.815H138.555V119.506C138.542 119.575 138.545 119.646 138.565 119.714C138.584 119.781 138.619 119.843 138.666 119.895C138.713 119.947 138.772 119.987 138.837 120.013C138.903 120.039 138.973 120.049 139.043 120.043C139.202 120.047 139.358 119.996 139.483 119.898L139.66 120.273Z" fill="white"/>
<path d="M145.335 117.772C145.335 118.668 144.686 119.205 143.617 119.205H142.597V120.456H142.012V116.339H143.623C144.686 116.339 145.335 116.875 145.335 117.772ZM144.745 117.772C144.745 117.181 144.353 116.849 143.601 116.849H142.597V118.695H143.601C144.353 118.695 144.745 118.352 144.745 117.772Z" fill="white"/>
<path d="M148.562 118.572V120.456H148.025V120.043C147.905 120.197 147.748 120.318 147.569 120.396C147.39 120.474 147.194 120.506 146.999 120.488C146.296 120.488 145.851 120.112 145.851 119.57C145.851 119.028 146.173 118.658 147.101 118.658H147.998V118.55C147.998 118.072 147.719 117.793 147.16 117.793C146.803 117.793 146.455 117.912 146.173 118.131L145.936 117.707C146.309 117.434 146.763 117.292 147.225 117.305C148.078 117.305 148.562 117.718 148.562 118.572ZM147.998 119.5V119.066H147.123C146.586 119.066 146.409 119.286 146.409 119.549C146.409 119.812 146.667 120.053 147.096 120.053C147.285 120.067 147.474 120.021 147.636 119.922C147.798 119.823 147.924 119.675 147.998 119.5Z" fill="white"/>
<path d="M149.237 120.123L149.474 119.678C149.793 119.885 150.166 119.997 150.547 120C151.084 120 151.288 119.844 151.288 119.576C151.288 118.878 149.318 119.484 149.318 118.244C149.318 117.707 149.817 117.305 150.617 117.305C151.015 117.298 151.407 117.396 151.755 117.589L151.513 118.035C151.244 117.865 150.93 117.779 150.612 117.788C150.118 117.788 149.876 117.97 149.876 118.217C149.876 118.953 151.857 118.352 151.857 119.565C151.857 120.129 151.32 120.488 150.51 120.488C150.058 120.499 149.614 120.372 149.237 120.123Z" fill="white"/>
<path d="M152.164 120.123L152.4 119.678C152.72 119.885 153.092 119.997 153.473 120C154.01 120 154.214 119.844 154.214 119.576C154.214 118.878 152.244 119.484 152.244 118.244C152.244 117.707 152.743 117.305 153.543 117.305C153.939 117.298 154.33 117.397 154.676 117.589L154.434 118.035C154.166 117.866 153.854 117.78 153.538 117.788C153.044 117.788 152.802 117.97 152.802 118.217C152.802 118.953 154.778 118.352 154.778 119.565C154.778 120.128 154.241 120.488 153.43 120.488C152.981 120.497 152.539 120.37 152.164 120.123Z" fill="white"/>
<path d="M160.162 117.337L158.997 120.456H158.46L157.558 118.088L156.646 120.456H156.109L154.955 117.337H155.491L156.399 119.817L157.338 117.337H157.827L158.75 119.828L159.679 117.337H160.162Z" fill="white"/>
<path d="M160.361 118.889C160.361 118.57 160.455 118.259 160.632 117.994C160.809 117.729 161.06 117.523 161.355 117.401C161.649 117.279 161.973 117.247 162.285 117.309C162.598 117.371 162.885 117.525 163.11 117.75C163.335 117.975 163.488 118.262 163.551 118.574C163.613 118.887 163.581 119.211 163.459 119.505C163.337 119.799 163.131 120.051 162.866 120.228C162.601 120.405 162.29 120.499 161.971 120.499C161.757 120.507 161.544 120.471 161.345 120.393C161.146 120.315 160.965 120.197 160.814 120.046C160.663 119.895 160.544 119.714 160.466 119.515C160.388 119.315 160.352 119.102 160.361 118.889ZM163.045 118.889C163.039 118.676 162.971 118.47 162.849 118.297C162.726 118.123 162.555 117.99 162.357 117.914C162.159 117.837 161.943 117.822 161.736 117.868C161.528 117.915 161.34 118.022 161.193 118.176C161.047 118.33 160.95 118.523 160.913 118.733C160.877 118.942 160.904 119.157 160.99 119.351C161.076 119.545 161.218 119.709 161.397 119.823C161.577 119.936 161.786 119.994 161.998 119.989C162.14 119.991 162.281 119.963 162.412 119.908C162.543 119.852 162.66 119.77 162.758 119.667C162.855 119.563 162.93 119.441 162.978 119.307C163.025 119.173 163.044 119.03 163.034 118.889H163.045Z" fill="white"/>
<path d="M166.062 117.305V117.842H165.933C165.793 117.832 165.653 117.854 165.523 117.906C165.393 117.957 165.277 118.038 165.182 118.141C165.088 118.244 165.018 118.368 164.978 118.502C164.938 118.636 164.928 118.777 164.95 118.915V120.472H164.414V117.353H164.95V117.89C165.063 117.699 165.226 117.543 165.423 117.439C165.619 117.336 165.84 117.289 166.062 117.305Z" fill="white"/>
<path d="M169.669 116.092V120.456H169.132V119.962C169.005 120.135 168.837 120.275 168.643 120.368C168.449 120.462 168.236 120.507 168.021 120.499C167.641 120.44 167.294 120.248 167.044 119.956C166.793 119.664 166.656 119.292 166.656 118.907C166.656 118.523 166.793 118.151 167.044 117.859C167.294 117.567 167.641 117.374 168.021 117.316C168.227 117.31 168.431 117.353 168.617 117.441C168.804 117.529 168.967 117.658 169.095 117.82V116.102L169.669 116.092ZM169.1 118.888C169.095 118.676 169.026 118.47 168.904 118.297C168.782 118.123 168.611 117.99 168.412 117.914C168.214 117.837 167.998 117.822 167.791 117.868C167.584 117.915 167.395 118.022 167.249 118.176C167.102 118.329 167.005 118.523 166.969 118.732C166.933 118.942 166.959 119.157 167.045 119.351C167.131 119.545 167.273 119.709 167.452 119.823C167.632 119.936 167.841 119.994 168.053 119.989C168.196 119.992 168.338 119.966 168.47 119.911C168.603 119.856 168.722 119.774 168.82 119.671C168.919 119.567 168.995 119.444 169.043 119.309C169.091 119.174 169.11 119.031 169.1 118.888Z" fill="white"/>
<g opacity="0.6">
<path d="M127.984 60.753L127.013 59.368C126.921 59.368 126.825 59.368 126.728 59.368H125.617V60.7369H124.973V56.2275H126.728C127.898 56.2275 128.607 56.8234 128.607 57.8004C128.622 58.1132 128.533 58.4222 128.355 58.6794C128.176 58.9366 127.917 59.1277 127.619 59.223L128.693 60.7369L127.984 60.753ZM127.984 57.8165C127.984 57.1723 127.555 56.8073 126.728 56.8073H125.654V58.8365H126.728C127.533 58.8365 127.963 58.4607 127.963 57.8165H127.984Z" fill="white"/>
<path d="M132.633 59.2549H129.869C129.908 59.5473 130.058 59.8136 130.288 59.9984C130.517 60.1833 130.81 60.2727 131.104 60.2481C131.287 60.255 131.47 60.2221 131.639 60.1517C131.809 60.0812 131.961 59.9749 132.086 59.8401L132.429 60.2373C132.178 60.4933 131.857 60.6708 131.506 60.7483C131.155 60.8257 130.79 60.7998 130.453 60.6737C130.117 60.5476 129.825 60.3267 129.611 60.0377C129.398 59.7487 129.273 59.4041 129.251 59.0456C129.242 58.8169 129.279 58.5886 129.362 58.375C129.444 58.1614 129.569 57.967 129.73 57.8039C129.89 57.6408 130.083 57.5124 130.295 57.4268C130.507 57.3412 130.735 57.3002 130.964 57.3063C131.192 57.3007 131.419 57.3424 131.629 57.4289C131.84 57.5154 132.031 57.6447 132.19 57.8087C132.348 57.9727 132.471 58.1677 132.55 58.3816C132.629 58.5954 132.663 58.8233 132.65 59.0509C132.65 59.1193 132.645 59.1875 132.633 59.2549ZM129.869 58.8094H132.059C132.059 58.5196 131.944 58.2418 131.739 58.0369C131.534 57.832 131.256 57.7169 130.967 57.7169C130.677 57.7169 130.399 57.832 130.194 58.0369C129.989 58.2418 129.874 58.5196 129.874 58.8094H129.869Z" fill="white"/>
<path d="M133.074 60.3932L133.331 59.9047C133.688 60.135 134.104 60.258 134.529 60.259C135.103 60.259 135.339 60.0818 135.339 59.7919C135.339 59.0296 133.192 59.6899 133.192 58.3318C133.192 57.7198 133.729 57.3064 134.614 57.3064C135.048 57.3 135.475 57.4074 135.854 57.6178L135.591 58.1063C135.297 57.9235 134.956 57.8302 134.609 57.8379C134.072 57.8379 133.804 58.0365 133.804 58.3049C133.804 59.1102 135.951 58.4552 135.951 59.7812C135.951 60.3985 135.382 60.7904 134.475 60.7904C133.978 60.8022 133.49 60.6637 133.074 60.3932Z" fill="white"/>
<path d="M139.805 59.255H137.035C137.077 59.5463 137.227 59.811 137.456 59.9954C137.686 60.1798 137.976 60.2701 138.27 60.2481C138.454 60.2551 138.638 60.2223 138.808 60.1519C138.979 60.0815 139.132 59.9752 139.258 59.8402L139.601 60.2374C139.429 60.4192 139.219 60.5613 138.986 60.654C138.754 60.7467 138.504 60.7877 138.254 60.7742C138.016 60.7923 137.777 60.7603 137.552 60.6803C137.327 60.6002 137.121 60.4739 136.948 60.3095C136.775 60.1451 136.639 59.9462 136.547 59.7258C136.456 59.5053 136.412 59.2681 136.418 59.0296C136.409 58.801 136.447 58.5731 136.53 58.3599C136.612 58.1466 136.737 57.9525 136.898 57.7896C137.058 57.6266 137.25 57.4983 137.462 57.4124C137.674 57.3265 137.902 57.2849 138.13 57.2902C138.36 57.2836 138.588 57.3252 138.801 57.4124C139.013 57.4996 139.205 57.6304 139.364 57.7963C139.523 57.9622 139.645 58.1596 139.723 58.3757C139.801 58.5919 139.832 58.8219 139.816 59.051C139.816 59.1154 139.811 59.196 139.805 59.255ZM137.035 58.8094H139.225C139.198 58.5377 139.071 58.2857 138.869 58.1024C138.667 57.919 138.403 57.8175 138.13 57.8175C137.857 57.8175 137.594 57.919 137.391 58.1024C137.189 58.2857 137.062 58.5377 137.035 58.8094Z" fill="white"/>
<path d="M142.597 60.5538C142.383 60.7159 142.119 60.7993 141.851 60.79C141.706 60.8052 141.56 60.7879 141.423 60.7393C141.285 60.6907 141.161 60.6121 141.058 60.5092C140.955 60.4063 140.876 60.2817 140.828 60.1445C140.779 60.0074 140.762 59.8611 140.777 59.7164V57.8428H140.197V57.3329H140.777V56.5867H141.394V57.3329H142.371V57.8428H141.394V59.6895C141.384 59.7642 141.39 59.8403 141.413 59.9122C141.435 59.9842 141.474 60.0501 141.525 60.1052C141.577 60.1603 141.64 60.2032 141.71 60.2307C141.78 60.2581 141.856 60.2695 141.931 60.2639C142.106 60.2647 142.275 60.2081 142.414 60.1029L142.597 60.5538Z" fill="white"/>
<path d="M148.803 57.8165C148.803 58.7936 148.094 59.3895 146.924 59.3895H145.813V60.753H145.168V56.2437H146.924C148.094 56.2437 148.803 56.8395 148.803 57.8165ZM148.159 57.8165C148.159 57.1724 147.729 56.8073 146.902 56.8073H145.829V58.8258H146.902C147.729 58.8258 148.164 58.4607 148.164 57.8165H148.159Z" fill="white"/>
<path d="M152.335 58.6912V60.7526H151.75V60.3017C151.619 60.4712 151.448 60.6049 151.252 60.6904C151.055 60.7758 150.841 60.8101 150.628 60.7902C149.855 60.7902 149.366 60.3768 149.366 59.7863C149.366 59.1958 149.721 58.7878 150.735 58.7878H151.718V58.6643C151.718 58.1275 151.412 57.843 150.8 57.843C150.411 57.8396 150.032 57.9683 149.726 58.208L149.468 57.7464C149.877 57.4462 150.374 57.2912 150.88 57.3062C151.809 57.3062 152.335 57.7571 152.335 58.6912ZM151.718 59.7111V59.2334H150.762C150.15 59.2334 149.978 59.4696 149.978 59.7702C149.978 60.0708 150.263 60.307 150.73 60.307C150.936 60.3237 151.142 60.2752 151.32 60.1683C151.497 60.0613 151.636 59.9014 151.718 59.7111Z" fill="white"/>
<path d="M153.049 60.3932L153.306 59.9047C153.663 60.1351 154.079 60.258 154.504 60.259C155.078 60.259 155.32 60.0819 155.32 59.792C155.32 59.0297 153.172 59.69 153.172 58.3318C153.172 57.7198 153.709 57.3065 154.595 57.3065C155.028 57.2994 155.456 57.4068 155.835 57.6178L155.572 58.1064C155.278 57.923 154.936 57.8297 154.59 57.8379C154.053 57.8379 153.784 58.0366 153.784 58.305C153.784 59.1102 155.932 58.4553 155.932 59.7813C155.932 60.3986 155.363 60.7905 154.455 60.7905C153.957 60.8024 153.467 60.6639 153.049 60.3932Z" fill="white"/>
<path d="M156.28 60.3932L156.538 59.9047C156.895 60.1355 157.31 60.2586 157.735 60.259C158.304 60.259 158.546 60.0818 158.546 59.7919C158.546 59.0296 156.398 59.6899 156.398 58.3318C156.398 57.7198 156.935 57.3064 157.821 57.3064C158.256 57.3001 158.685 57.4074 159.066 57.6178L158.798 58.1063C158.504 57.9229 158.162 57.8296 157.816 57.8379C157.279 57.8379 157.01 58.0365 157.01 58.3049C157.01 59.1102 159.158 58.4552 159.158 59.7812C159.158 60.3985 158.589 60.7904 157.681 60.7904C157.185 60.8032 156.696 60.6647 156.28 60.3932Z" fill="white"/>
<path d="M165.036 57.3384L163.764 60.7526H163.195L162.212 58.1651L161.214 60.7526H160.618L159.351 57.3384H159.936L160.929 60.0601L161.96 57.3384H162.497L163.506 60.0708L164.526 57.3384H165.036Z" fill="white"/>
<path d="M165.251 59.0508C165.245 58.6981 165.343 58.3514 165.535 58.055C165.726 57.7586 166.001 57.5258 166.325 57.3864C166.649 57.2469 167.008 57.2071 167.354 57.272C167.701 57.3369 168.021 57.5035 168.273 57.7507C168.524 57.9979 168.697 58.3144 168.768 58.6599C168.839 59.0055 168.806 59.3644 168.672 59.6909C168.539 60.0175 168.311 60.2969 168.018 60.4936C167.726 60.6904 167.381 60.7954 167.028 60.7955C166.795 60.8059 166.562 60.7681 166.343 60.6845C166.125 60.601 165.927 60.4734 165.76 60.3097C165.593 60.146 165.462 59.9498 165.375 59.7332C165.287 59.5166 165.245 59.2843 165.251 59.0508ZM168.177 59.0508C168.166 58.8262 168.09 58.6096 167.958 58.4278C167.825 58.2461 167.642 58.1073 167.432 58.0285C167.221 57.9497 166.992 57.9345 166.773 57.9847C166.554 58.0349 166.354 58.1483 166.199 58.3109C166.043 58.4735 165.939 58.6781 165.899 58.8994C165.859 59.1206 165.884 59.3488 165.973 59.5556C166.061 59.7624 166.208 59.9388 166.396 60.0628C166.583 60.1868 166.803 60.253 167.028 60.2533C167.185 60.2575 167.34 60.2288 167.485 60.1691C167.63 60.1094 167.761 60.02 167.869 59.9068C167.977 59.7935 168.061 59.6588 168.114 59.5114C168.167 59.3639 168.188 59.2071 168.177 59.0508Z" fill="white"/>
<path d="M171.494 57.3063V57.9076H171.349C171.199 57.8974 171.048 57.9208 170.908 57.9761C170.768 58.0314 170.642 58.1171 170.54 58.2271C170.437 58.3371 170.36 58.4685 170.314 58.612C170.268 58.7554 170.255 58.9072 170.276 59.0564V60.7581H169.637V57.3439H170.227V57.9183C170.358 57.7063 170.547 57.5362 170.772 57.4278C170.996 57.3194 171.247 57.2772 171.494 57.3063Z" fill="white"/>
<path d="M175.44 55.9751V60.7529H174.849V60.216C174.709 60.4046 174.524 60.556 174.312 60.657C174.1 60.7581 173.866 60.8057 173.631 60.7958C173.186 60.7711 172.767 60.5768 172.46 60.2528C172.154 59.9288 171.983 59.4998 171.983 59.0538C171.983 58.6078 172.154 58.1788 172.46 57.8548C172.767 57.5308 173.186 57.3365 173.631 57.3118C173.858 57.3025 174.083 57.3462 174.29 57.4394C174.497 57.5326 174.679 57.6727 174.823 57.8486V55.9697L175.44 55.9751ZM174.828 59.0511C174.817 58.8263 174.741 58.6094 174.608 58.4276C174.476 58.2458 174.293 58.1069 174.082 58.0283C173.871 57.9497 173.641 57.9348 173.422 57.9854C173.203 58.0361 173.003 58.15 172.848 58.3132C172.693 58.4763 172.589 58.6814 172.549 58.903C172.51 59.1246 172.536 59.3529 172.625 59.5596C172.715 59.7663 172.862 59.9423 173.051 60.0657C173.239 60.1891 173.459 60.2544 173.685 60.2536C173.841 60.257 173.996 60.2278 174.14 60.1677C174.284 60.1077 174.414 60.0182 174.522 59.905C174.63 59.7918 174.712 59.6574 174.765 59.5104C174.818 59.3633 174.839 59.2069 174.828 59.0511Z" fill="white"/>
</g>
<path d="M185.28 71.7334H115.042V83.7583H185.28V71.7334Z" fill="#202125"/>
<g opacity="0.4">
<path d="M121.768 75.7864V79.2328H121.467L119.25 76.4359V79.2328H118.885V75.7864H119.175L121.398 78.5832V75.7864H121.768Z" fill="white"/>
<path d="M125.081 78.0468H122.933C122.94 78.1734 122.972 78.2973 123.027 78.4113C123.082 78.5254 123.16 78.6274 123.255 78.7113C123.35 78.7952 123.46 78.8594 123.58 78.9002C123.7 78.9409 123.827 78.9574 123.953 78.9487C124.102 78.9535 124.249 78.9256 124.385 78.8672C124.522 78.8088 124.644 78.7211 124.743 78.6105L124.941 78.836C124.755 79.0303 124.516 79.1654 124.254 79.2246C123.991 79.2837 123.717 79.2643 123.466 79.1687C123.214 79.073 122.997 78.9054 122.84 78.6868C122.683 78.4682 122.594 78.2083 122.584 77.9395C122.575 77.7688 122.601 77.598 122.66 77.4376C122.719 77.2772 122.811 77.1308 122.929 77.0074C123.047 76.8841 123.19 76.7864 123.348 76.7204C123.505 76.6545 123.675 76.6218 123.846 76.6243C124.017 76.6209 124.187 76.6531 124.345 76.7188C124.502 76.7845 124.645 76.8823 124.763 77.0059C124.881 77.1296 124.972 77.2764 125.031 77.4371C125.089 77.5978 125.113 77.7689 125.102 77.9395C125.081 77.9717 125.081 78.0093 125.081 78.0468ZM122.933 77.7892H124.769C124.769 77.5457 124.673 77.3122 124.5 77.1401C124.328 76.9679 124.095 76.8712 123.851 76.8712C123.608 76.8712 123.374 76.9679 123.202 77.1401C123.03 77.3122 122.933 77.5457 122.933 77.7892Z" fill="white"/>
<path d="M129.541 76.6458L128.564 79.2333H128.231L127.415 77.1128L126.599 79.2333H126.267L125.295 76.6458H125.617L126.428 78.8467L127.26 76.6458H127.56L128.387 78.8467L129.208 76.6458H129.541Z" fill="white"/>
<path d="M134.131 76.9676C134.131 77.7031 133.594 78.1486 132.724 78.1486H131.796V79.2223H131.431V75.7759H132.724C133.599 75.7866 134.131 76.2322 134.131 76.9676ZM133.766 76.9676C133.766 76.4308 133.401 76.1033 132.692 76.1033H131.774V77.8266H132.692C133.401 77.8266 133.766 77.5098 133.766 76.9676Z" fill="white"/>
<path d="M136.772 77.6276V79.2381H136.439V78.8355C136.343 78.9807 136.21 79.0973 136.053 79.1729C135.896 79.2485 135.722 79.2803 135.548 79.2649C134.963 79.2649 134.604 78.9589 134.604 78.5134C134.604 78.0678 134.861 77.7779 135.602 77.7779H136.423V77.6222C136.433 77.5259 136.42 77.4287 136.386 77.338C136.352 77.2474 136.298 77.1657 136.227 77.0994C136.157 77.033 136.072 76.9837 135.979 76.9553C135.887 76.9268 135.789 76.9199 135.693 76.9351C135.378 76.9297 135.071 77.0383 134.829 77.2411L134.673 76.978C134.979 76.7385 135.359 76.6149 135.747 76.6291C135.883 76.6124 136.022 76.6265 136.152 76.6704C136.282 76.7143 136.401 76.7868 136.499 76.8826C136.597 76.9785 136.673 77.0951 136.72 77.2241C136.768 77.353 136.785 77.4909 136.772 77.6276ZM136.423 78.4543V78.0302H135.613C135.108 78.0302 134.947 78.2289 134.947 78.4973C134.947 78.7657 135.189 78.9858 135.602 78.9858C135.778 78.9961 135.952 78.9502 136.1 78.8546C136.247 78.759 136.361 78.6188 136.423 78.4543Z" fill="white"/>
<path d="M137.363 78.9378L137.524 78.6641C137.792 78.8553 138.113 78.9567 138.442 78.9539C138.936 78.9539 139.14 78.7875 139.14 78.5299C139.14 77.8535 137.46 78.3903 137.46 77.3649C137.46 76.9409 137.825 76.6241 138.485 76.6241C138.806 76.6206 139.121 76.7041 139.398 76.8657L139.248 77.1449C139.021 76.9969 138.756 76.9203 138.485 76.9248C138.013 76.9248 137.809 77.1073 137.809 77.3542C137.809 78.0521 139.489 77.526 139.489 78.5191C139.489 78.9701 139.092 79.2599 138.415 79.2599C138.039 79.2689 137.67 79.1559 137.363 78.9378Z" fill="white"/>
<path d="M139.773 78.9378L139.929 78.664C140.2 78.853 140.522 78.9542 140.852 78.9539C141.341 78.9539 141.545 78.7875 141.545 78.5298C141.545 77.8534 139.865 78.3902 139.865 77.3649C139.865 76.9408 140.23 76.6241 140.89 76.6241C141.212 76.6212 141.529 76.7046 141.808 76.8657L141.652 77.1448C141.427 76.9957 141.161 76.9189 140.89 76.9247C140.423 76.9247 140.214 77.1072 140.214 77.3542C140.214 78.0521 141.894 77.526 141.894 78.5191C141.894 78.97 141.502 79.2599 140.82 79.2599C140.446 79.2696 140.078 79.1565 139.773 78.9378Z" fill="white"/>
<path d="M146.291 76.6458L145.314 79.2333H144.981L144.165 77.1128L143.333 79.2333H143L142.028 76.6458H142.361L143.172 78.8467L144.004 76.6458H144.304L145.131 78.8467L145.953 76.6458H146.291Z" fill="white"/>
<path d="M146.483 77.9395C146.484 77.6798 146.562 77.4263 146.707 77.2108C146.852 76.9953 147.058 76.8276 147.298 76.7287C147.538 76.6298 147.802 76.6043 148.057 76.6552C148.311 76.7061 148.545 76.8312 148.729 77.0149C148.912 77.1985 149.037 77.4323 149.088 77.687C149.139 77.9416 149.114 78.2056 149.015 78.4457C148.916 78.6858 148.748 78.8913 148.533 79.0362C148.317 79.1811 148.064 79.259 147.804 79.2601C147.629 79.2669 147.454 79.2374 147.291 79.1734C147.127 79.1094 146.979 79.0124 146.855 78.8884C146.731 78.7644 146.634 78.6161 146.57 78.4528C146.506 78.2895 146.477 78.1147 146.483 77.9395ZM148.76 77.9395C148.75 77.7516 148.686 77.5705 148.574 77.4189C148.463 77.2672 148.309 77.1516 148.133 77.0864C147.956 77.0212 147.765 77.0093 147.581 77.0521C147.398 77.0949 147.231 77.1905 147.102 77.3271C146.973 77.4638 146.886 77.6354 146.854 77.8207C146.821 78.006 146.843 78.1968 146.918 78.3695C146.993 78.5422 147.117 78.6892 147.274 78.7921C147.432 78.8951 147.616 78.9495 147.804 78.9487C147.935 78.9505 148.064 78.9252 148.184 78.8744C148.305 78.8236 148.413 78.7484 148.503 78.6536C148.593 78.5588 148.662 78.4463 148.706 78.3234C148.75 78.2005 148.768 78.0698 148.76 77.9395Z" fill="white"/>
<path d="M151.138 76.6237V76.9673H151.052C150.929 76.9605 150.806 76.981 150.692 77.0276C150.578 77.0741 150.475 77.1454 150.392 77.2363C150.309 77.3272 150.247 77.4355 150.211 77.5533C150.174 77.6711 150.165 77.7955 150.182 77.9175V79.2381H149.828V76.6506H150.166V77.1552C150.255 76.9787 150.396 76.8334 150.57 76.7385C150.743 76.6436 150.941 76.6036 151.138 76.6237Z" fill="white"/>
<path d="M154.101 75.5825V79.2329H153.768V78.7229C153.665 78.8934 153.518 79.0331 153.342 79.1275C153.166 79.2219 152.969 79.2676 152.77 79.2598C152.435 79.2384 152.12 79.0902 151.891 78.8454C151.661 78.6006 151.533 78.2775 151.533 77.9419C151.533 77.6062 151.661 77.2831 151.891 77.0383C152.12 76.7935 152.435 76.6454 152.77 76.624C152.966 76.6196 153.16 76.6669 153.333 76.7611C153.505 76.8553 153.65 76.9931 153.752 77.1608V75.604L154.101 75.5825ZM153.757 77.9392C153.748 77.7515 153.684 77.5707 153.572 77.4191C153.461 77.2676 153.308 77.152 153.132 77.0866C152.956 77.0212 152.764 77.0089 152.581 77.0513C152.398 77.0937 152.231 77.1888 152.102 77.3249C151.972 77.461 151.885 77.6321 151.852 77.8171C151.819 78.0021 151.84 78.1927 151.914 78.3655C151.988 78.5383 152.111 78.6856 152.268 78.7892C152.425 78.8928 152.609 78.9482 152.796 78.9484C152.928 78.951 153.058 78.9262 153.179 78.8757C153.3 78.8253 153.409 78.7502 153.499 78.6553C153.589 78.5604 153.659 78.4477 153.704 78.3244C153.748 78.2011 153.766 78.0699 153.757 77.9392Z" fill="white"/>
</g>
<path d="M213.957 172.423C213.957 172.423 210.64 172.863 209.223 172.423C207.805 171.983 208.337 165.552 206.893 165.417C203.559 165.111 204.128 173.652 205.545 175.451C206.963 177.249 214.258 176.487 214.258 176.487L213.957 172.423Z" fill="#FE632B"/>
<path opacity="0.2" d="M213.957 172.423C213.957 172.423 210.64 172.863 209.223 172.423C207.805 171.983 208.337 165.552 206.893 165.417C203.559 165.111 204.128 173.652 205.545 175.451C206.963 177.249 214.258 176.487 214.258 176.487L213.957 172.423Z" fill="white"/>
<path d="M214.231 187.567C214.231 187.567 209.319 143.955 215.181 143.456C221.044 142.957 222.461 158.332 220.195 187.014L214.231 187.567Z" fill="#FE632B"/>
<path opacity="0.3" d="M214.231 187.567C214.231 187.567 209.319 143.955 215.181 143.456C221.044 142.957 222.461 158.332 220.195 187.014L214.231 187.567Z" fill="white"/>
<path d="M207.344 182.29H226.632L225.022 194.627H208.955L207.344 182.29Z" fill="#263238"/>
<path d="M220.056 157.752C220.056 157.752 225.424 158.036 225.558 157.752C225.692 157.467 225.719 151.31 227.985 151.659C230.25 152.008 229.257 159.454 227.985 160.318C226.712 161.182 220.056 161.649 220.056 161.649C220.056 161.649 219.165 158.901 220.056 157.752Z" fill="#FE632B"/>
<path opacity="0.4" d="M220.056 157.752C220.056 157.752 225.424 158.036 225.558 157.752C225.692 157.467 225.719 151.31 227.985 151.659C230.25 152.008 229.257 159.454 227.985 160.318C226.712 161.182 220.056 161.649 220.056 161.649C220.056 161.649 219.165 158.901 220.056 157.752Z" fill="white"/>
<path d="M216.669 183.595C215.482 171.962 214.194 160.27 214.489 148.561C214.575 147.665 214.634 143.274 216.126 143.945C216.318 144.105 216.464 144.312 216.55 144.546C217.007 145.958 217.296 147.42 217.409 148.9C218.537 160.559 218.451 172.294 218.392 183.992C218.172 172.305 218.156 160.581 217.012 148.948C216.862 147.525 216.003 141.282 215.128 146.108C214.84 148.588 214.734 151.085 214.811 153.581C215.01 163.603 215.82 173.604 216.669 183.595Z" fill="#FE632B"/>
<path d="M220.727 159.218C222.295 159.067 225.086 158.971 226.428 158.622C226.428 156.78 227.078 154.279 227.738 152.319C227.55 153.194 227.368 154.467 227.201 155.385C226.989 156.49 226.859 157.61 226.815 158.734C226.729 158.997 226.401 159.046 226.192 159.099C224.375 159.345 222.537 159.385 220.711 159.218H220.727Z" fill="#FE632B"/>
<path d="M220.727 160.64C222.966 160.227 225.462 160.066 227.657 159.54C228.227 158.638 228.194 157.366 228.355 156.319C228.484 155.148 228.581 153.973 228.694 152.797C228.755 153.979 228.755 155.164 228.694 156.346C228.673 157.4 228.511 158.448 228.21 159.459C228.148 159.65 228.021 159.814 227.851 159.921C225.509 160.381 223.13 160.621 220.743 160.64H220.727Z" fill="#FE632B"/>
<path d="M212.305 173.615C210.758 173.647 209.159 173.722 207.661 173.207C207.291 172.882 207.057 172.43 207.006 171.94C206.814 170.964 206.717 169.972 206.716 168.977C206.694 167.99 206.728 167.002 206.818 166.019C206.893 167.001 206.952 167.984 207.038 168.961C207.103 169.93 207.228 170.895 207.414 171.849C207.527 172.289 207.634 172.842 207.994 172.922C209.403 173.275 210.84 173.51 212.288 173.626L212.305 173.615Z" fill="#FE632B"/>
<path d="M205.83 166.797L206.179 170.228C206.394 171.725 206.356 173.357 206.952 174.742C207.046 174.813 207.149 174.871 207.258 174.914C208.868 175.451 210.624 175.489 212.304 175.687C211.151 175.747 209.996 175.724 208.847 175.617C208.052 175.483 206.7 175.51 206.426 174.544C205.76 172.015 205.798 169.369 205.83 166.776V166.797Z" fill="#FE632B"/>
<path d="M193.794 45.3996C195.469 42.4823 198.232 40.3486 201.478 39.4669C204.724 38.5852 208.187 39.0276 211.107 40.697L210.57 41.6042L214.167 40.6272L213.19 37.0305L212.653 37.9323C209.394 36.0645 205.578 35.4134 201.884 36.0949C198.19 36.7763 194.857 38.746 192.479 41.6536C190.101 44.5613 188.832 48.2183 188.896 51.9741C188.961 55.7298 190.356 59.3408 192.833 62.1647L195.228 60.0657C193.491 58.0751 192.419 55.5916 192.162 52.9622C191.905 50.3328 192.476 47.6888 193.794 45.3996Z" fill="#263238"/>
<path d="M216.877 41.438L214.462 43.4833C216.393 45.7593 217.461 48.6436 217.475 51.6288C217.49 54.614 216.452 57.5088 214.543 59.8039C212.634 62.0989 209.976 63.6472 207.038 64.1763C204.1 64.7053 201.07 64.1813 198.48 62.6963L199.017 61.7891L195.404 62.809L196.381 66.4058L196.918 65.4985C200.16 67.3429 203.948 67.9866 207.618 67.3169C211.287 66.6471 214.603 64.7066 216.985 61.8358C219.366 58.965 220.661 55.3473 220.641 51.6174C220.621 47.8874 219.289 44.2836 216.877 41.438Z" fill="#263238"/>
<g opacity="0.6">
<path d="M193.794 45.3996C195.469 42.4823 198.232 40.3486 201.478 39.4669C204.724 38.5852 208.187 39.0276 211.107 40.697L210.57 41.6042L214.167 40.6272L213.19 37.0305L212.653 37.9323C209.394 36.0645 205.578 35.4134 201.884 36.0949C198.19 36.7763 194.857 38.746 192.479 41.6536C190.101 44.5613 188.832 48.2183 188.896 51.9741C188.961 55.7298 190.356 59.3408 192.833 62.1647L195.228 60.0657C193.491 58.0751 192.419 55.5916 192.162 52.9622C191.905 50.3328 192.476 47.6888 193.794 45.3996Z" fill="white"/>
<path d="M216.877 41.438L214.462 43.4833C216.393 45.7593 217.461 48.6436 217.475 51.6288C217.49 54.614 216.452 57.5088 214.543 59.8039C212.634 62.0989 209.976 63.6472 207.038 64.1763C204.1 64.7053 201.07 64.1813 198.48 62.6963L199.017 61.7891L195.404 62.809L196.381 66.4058L196.918 65.4985C200.16 67.3429 203.948 67.9866 207.618 67.3169C211.287 66.6471 214.603 64.7066 216.985 61.8358C219.366 58.965 220.661 55.3473 220.641 51.6174C220.621 47.8874 219.289 44.2836 216.877 41.438Z" fill="white"/>
</g>
<path d="M202.501 36.6595H199.001V25.9229C199.001 23.9482 198.217 22.0543 196.82 20.658C195.424 19.2616 193.53 18.4772 191.555 18.4772C189.581 18.4772 187.687 19.2616 186.29 20.658C184.894 22.0543 184.109 23.9482 184.109 25.9229V36.6595H180.609V25.9229C180.609 23.0199 181.763 20.2358 183.815 18.183C185.868 16.1303 188.652 14.9771 191.555 14.9771C194.458 14.9771 197.242 16.1303 199.295 18.183C201.348 20.2358 202.501 23.0199 202.501 25.9229V36.6595Z" fill="#263238"/>
<g opacity="0.3">
<path d="M202.501 36.6595H199.001V25.9229C199.001 23.9482 198.217 22.0543 196.82 20.658C195.424 19.2616 193.53 18.4772 191.555 18.4772C189.581 18.4772 187.687 19.2616 186.29 20.658C184.894 22.0543 184.109 23.9482 184.109 25.9229V36.6595H180.609V25.9229C180.609 23.0199 181.763 20.2358 183.815 18.183C185.868 16.1303 188.652 14.9771 191.555 14.9771C194.458 14.9771 197.242 16.1303 199.295 18.183C201.348 20.2358 202.501 23.0199 202.501 25.9229V36.6595Z" fill="white"/>
</g>
<path d="M206.512 33.9269V51.4973C206.512 51.7652 206.459 52.0304 206.356 52.2779C206.254 52.5254 206.104 52.7503 205.914 52.9397C205.725 53.1292 205.5 53.2794 205.252 53.3819C205.005 53.4844 204.74 53.5372 204.472 53.5372H178.629C178.362 53.5365 178.097 53.4832 177.851 53.3803C177.604 53.2774 177.38 53.1269 177.192 52.9375C177.003 52.7481 176.854 52.5234 176.752 52.2763C176.651 52.0292 176.599 51.7645 176.6 51.4973V33.9269C176.599 33.6598 176.651 33.3951 176.752 33.1479C176.854 32.9008 177.003 32.6761 177.192 32.4867C177.38 32.2973 177.604 32.1468 177.851 32.0439C178.097 31.941 178.362 31.8877 178.629 31.887H204.472C204.81 31.8846 205.143 31.9697 205.438 32.134C205.763 32.3069 206.035 32.5652 206.224 32.8811C206.413 33.1971 206.513 33.5587 206.512 33.9269Z" fill="#FE632B"/>
<path opacity="0.2" d="M205.438 32.134V49.35C205.438 49.6176 205.385 49.8826 205.283 50.1298C205.18 50.377 205.03 50.6015 204.84 50.7905C204.651 50.9795 204.426 51.1293 204.178 51.2312C203.931 51.3331 203.666 51.3852 203.398 51.3845H177.555C177.221 51.3856 176.893 51.3025 176.6 51.143V33.9269C176.599 33.6598 176.651 33.3951 176.752 33.1479C176.854 32.9008 177.003 32.6761 177.192 32.4867C177.38 32.2973 177.604 32.1468 177.851 32.0439C178.097 31.941 178.362 31.8877 178.629 31.887H204.472C204.81 31.8846 205.143 31.9697 205.438 32.134Z" fill="white"/>
<path opacity="0.5" d="M195.405 40.5089C195.395 39.8083 195.194 39.1236 194.824 38.5287C194.454 37.9339 193.928 37.4513 193.304 37.1332C192.679 36.8151 191.98 36.6734 191.281 36.7235C190.582 36.7735 189.91 37.0134 189.338 37.4172C188.765 37.8211 188.314 38.3735 188.032 39.0151C187.75 39.6567 187.649 40.3629 187.739 41.0578C187.829 41.7527 188.107 42.4098 188.543 42.9582C188.979 43.5066 189.557 43.9256 190.214 44.17L190.036 48.8511H193.113L192.656 44.2613C193.456 44.0136 194.156 43.515 194.651 42.8393C195.146 42.1635 195.41 41.3465 195.405 40.5089Z" fill="black"/>
<path d="M68.3755 45.3994L70.1578 51.1273L71.9346 45.3994H68.3755Z" fill="#FE632B"/>
<path d="M84.7273 31.7156H55.583C53.0362 31.7156 50.9717 33.7801 50.9717 36.3269V42.538C50.9717 45.0848 53.0362 47.1493 55.583 47.1493H84.7273C87.2741 47.1493 89.3387 45.0848 89.3387 42.538V36.3269C89.3387 33.7801 87.2741 31.7156 84.7273 31.7156Z" fill="#FE632B"/>
<path d="M59.9906 39.4242L60.9998 39.9933L60.7368 40.4549L59.7114 39.8537V41.0079H59.1746V39.8537L58.1493 40.4549L57.8862 39.9933L58.9062 39.4242L57.8862 38.8874L58.1493 38.415L59.1746 39.0162V37.8459H59.7114V38.9894L60.7368 38.3881L60.9998 38.8605L59.9906 39.4242Z" fill="white"/>
<path d="M63.5546 39.4242L64.5638 39.9933L64.3008 40.4549L63.2754 39.8537V41.0079H62.7708V39.8537L61.7347 40.4549L61.4717 39.9933L62.4917 39.4242L61.4717 38.8874L61.7347 38.415L62.7601 39.0162V37.8459H63.2647V38.9894L64.29 38.3881L64.5531 38.8605L63.5546 39.4242Z" fill="white"/>
<path d="M67.1029 39.4245L68.1121 39.9935L67.8491 40.4552L66.8237 39.8539V41.0081H66.2869V39.8539L65.2616 40.4552L64.9985 39.9935L66.0131 39.4245L64.9985 38.8876L65.2616 38.4152L66.2869 39.0165V37.873H66.8237V39.0165L67.8491 38.4152L68.1121 38.8876L67.1029 39.4245Z" fill="white"/>
<path d="M70.684 39.4245L71.6932 39.9935L71.4301 40.4552L70.4048 39.8539V41.0081H69.8948V39.8539L68.8695 40.4552L68.6064 39.9935L69.621 39.4245L68.6064 38.8876L68.8695 38.4152L69.8948 39.0165V37.873H70.4048V39.0165L71.4301 38.4152L71.6932 38.8876L70.684 39.4245Z" fill="white"/>
<path d="M74.2484 39.4245L75.2577 39.9935L74.9946 40.4552L73.9639 39.8539V41.0081H73.4271V39.8539L72.4715 40.4552L72.2031 39.9935L73.2231 39.4245L72.2031 38.8876L72.4715 38.4152L73.4969 39.0165V37.873H74.0337V39.0165L75.0644 38.4152L75.3275 38.8876L74.2484 39.4245Z" fill="white"/>
<path d="M77.8075 39.4245L78.8221 39.9935L78.5591 40.4552L77.5283 39.8539V41.0081H77.0184V39.8539L75.9877 40.4552L75.7246 39.9935L76.7446 39.4245L75.7246 38.8876L75.9877 38.4152L77.0184 39.0165V37.873H77.5283V39.0165L78.5591 38.4152L78.8221 38.8876L77.8075 39.4245Z" fill="white"/>
<path d="M81.3724 39.4242L82.3817 39.9933L82.1186 40.4549L81.0933 39.8537V41.0079H80.5564V39.8537L79.5311 40.4549L79.2681 39.9933L80.288 39.4242L79.2681 38.8874L79.5311 38.415L80.5564 39.0162V37.8459H81.0933V38.9894L82.1186 38.3881L82.3817 38.8605L81.3724 39.4242Z" fill="white"/>
<path d="M93.4456 85.393L96.7202 83.2725L93.0322 81.0071C93.0322 81.0071 90.2246 83.0739 91.3519 84.475L93.4456 85.393Z" fill="#B55B52"/>
<path d="M98.4005 79.7884L94.5675 78.9187L93.0322 81.007L96.7202 83.2724L98.4005 79.7884Z" fill="#B55B52"/>
<path d="M79.9874 78.5105C82.0595 81.6456 84.137 85.457 86.9661 87.8996C87.0198 87.9425 86.9983 87.8996 86.789 87.8996C86.6816 87.9264 86.7353 87.9801 86.9554 87.8996C87.5996 87.5324 88.1666 87.0438 88.6249 86.4609C89.6748 85.1885 90.609 83.8249 91.4164 82.3864C91.454 82.3273 91.4164 82.3864 91.4164 82.4508C91.4028 82.5487 91.4028 82.6481 91.4164 82.7461C91.4647 82.7944 91.2929 82.6548 91.6258 83.3902C91.7827 83.6249 92.0057 83.8078 92.2666 83.9157C92.5274 84.0237 92.8144 84.0519 93.0913 83.9969C93.2686 83.9586 93.4359 83.884 93.5829 83.7778C93.7298 83.6715 93.8531 83.5359 93.9448 83.3795C93.8609 83.4786 93.7855 83.5845 93.7194 83.6962L91.3144 82.6709C91.3726 82.3294 91.5126 82.0071 91.7224 81.7315C91.9167 81.5129 92.1734 81.3592 92.4578 81.2913C92.7368 81.2366 93.0257 81.2656 93.2883 81.3744C93.551 81.4833 93.7756 81.6672 93.9341 81.9032C94.2669 82.6441 94.1005 82.5045 94.1488 82.5582C94.1549 82.7295 94.1386 82.901 94.1005 83.0682C93.2577 86.6488 91.0567 92.5485 86.4937 92.5807C83.2727 92.2855 80.8302 88.7478 79.0211 86.5146C77.7371 84.7953 76.5541 83.0028 75.478 81.1463L79.9605 78.5159L79.9874 78.5105Z" fill="#B55B52"/>
<path d="M78.3337 76.1541C80.481 76.8627 84.8347 86.7564 84.8347 86.7564L77.4372 90.2672C77.4372 90.2672 75.9341 82.494 76.2293 79.987C76.4145 78.4871 77.1676 77.1154 78.3337 76.1541Z" fill="#FE632B"/>
<path opacity="0.7" d="M78.3337 76.1541C80.481 76.8627 84.8347 86.7564 84.8347 86.7564L77.4372 90.2672C77.4372 90.2672 75.9341 82.494 76.2293 79.987C76.4145 78.4871 77.1676 77.1154 78.3337 76.1541Z" fill="white"/>
<path d="M87.03 190.858L83.2615 191.926L82.365 186.058L81.8818 182.923L85.6504 181.855L86.2945 186.058L87.03 190.858Z" fill="#B55B52"/>
<path d="M65.3641 191.163L61.4775 191.679L61.4399 186.058L61.4131 182.563L65.3051 182.059L65.3319 186.058L65.3641 191.163Z" fill="#B55B52"/>
<path opacity="0.2" d="M65.3051 182.059L65.3319 186.058H61.4399L61.4131 182.563L65.3051 182.059Z" fill="black"/>
<path opacity="0.2" d="M86.2945 186.058H82.365L81.8818 182.923L85.6504 181.855L86.2945 186.058Z" fill="black"/>
<path d="M86.966 190.267L82.6714 190.154C82.5934 190.152 82.5168 190.176 82.4544 190.223C82.3919 190.27 82.3473 190.336 82.3278 190.412L81.4313 193.858C81.4031 193.941 81.3957 194.03 81.4097 194.117C81.4238 194.203 81.4588 194.285 81.5118 194.355C81.5647 194.425 81.634 194.481 81.7136 194.518C81.7931 194.555 81.8806 194.572 81.9681 194.567C83.5142 194.567 85.7259 194.567 87.6853 194.605C89.9561 194.669 91.4002 194.556 94.0628 194.605C95.6733 194.647 96.1726 193.042 95.5069 192.876C92.4631 192.124 90.4768 192.275 87.884 190.578C87.6124 190.392 87.2948 190.284 86.966 190.267Z" fill="#263238"/>
<path d="M87.2933 190.745C87.29 190.726 87.2929 190.706 87.3016 190.688C87.3103 190.671 87.3243 190.657 87.3416 190.648C87.5241 190.562 89.1292 189.805 89.5963 190.084C89.6405 190.11 89.6773 190.147 89.7027 190.191C89.7282 190.235 89.7415 190.286 89.7412 190.337C89.7463 190.421 89.7315 190.505 89.6979 190.583C89.6643 190.66 89.6129 190.728 89.548 190.782C89.1078 191.147 87.9912 190.965 87.3631 190.82C87.3449 190.817 87.3283 190.807 87.3157 190.794C87.3032 190.78 87.2953 190.763 87.2933 190.745ZM87.6745 190.702C88.5387 190.868 89.1829 190.847 89.4299 190.637C89.4736 190.604 89.5079 190.559 89.5295 190.509C89.5511 190.458 89.5593 190.402 89.5533 190.347C89.555 190.327 89.5509 190.307 89.5413 190.289C89.5318 190.271 89.5174 190.256 89.4997 190.245H89.4675C89.1722 190.122 88.3079 190.423 87.6745 190.702Z" fill="#FE632B"/>
<path d="M87.3258 190.804C87.3127 190.795 87.3026 190.783 87.2969 190.769C87.2911 190.754 87.29 190.738 87.2936 190.723C87.3499 190.17 87.5812 189.649 87.9539 189.236C88.0276 189.175 88.1138 189.13 88.2064 189.105C88.2991 189.08 88.396 189.075 88.4907 189.091C88.743 189.124 88.8128 189.252 88.8289 189.36C88.8826 189.8 87.9163 190.621 87.4331 190.82C87.412 190.825 87.3898 190.825 87.3687 190.82L87.3258 190.804ZM88.4477 189.274C88.3802 189.265 88.3116 189.27 88.2461 189.288C88.1805 189.307 88.1194 189.338 88.0666 189.381C87.7692 189.712 87.5816 190.126 87.5298 190.568C88.0236 190.294 88.6839 189.65 88.6464 189.381C88.6464 189.381 88.6464 189.322 88.5658 189.295L88.4477 189.274Z" fill="#FE632B"/>
<path d="M65.2084 190.267L60.9138 190.154C60.8358 190.152 60.7593 190.176 60.6968 190.223C60.6344 190.27 60.5897 190.336 60.5703 190.412L59.6684 193.858C59.6463 193.941 59.6435 194.028 59.66 194.112C59.6765 194.196 59.712 194.275 59.7638 194.344C59.8155 194.412 59.8822 194.468 59.9587 194.506C60.0352 194.545 60.1195 194.566 60.2052 194.567C61.7459 194.567 63.963 194.567 65.9224 194.605C68.1932 194.669 69.6319 194.556 72.2945 194.605C73.905 194.647 74.4096 193.042 73.7386 192.876C70.7002 192.124 68.7085 192.275 66.121 190.578C65.8506 190.394 65.5352 190.286 65.2084 190.267Z" fill="#263238"/>
<path d="M65.4931 190.745C65.4903 190.725 65.494 190.705 65.5037 190.687C65.5134 190.67 65.5285 190.656 65.5468 190.648C65.7293 190.562 67.3291 189.805 67.7961 190.084C67.8404 190.11 67.8771 190.147 67.9025 190.191C67.928 190.235 67.9413 190.286 67.9411 190.337C67.9468 190.421 67.9328 190.504 67.9001 190.582C67.8675 190.659 67.8172 190.728 67.7532 190.782C67.3076 191.147 66.191 190.965 65.5629 190.82C65.5454 190.815 65.5296 190.806 65.5172 190.792C65.5049 190.779 65.4965 190.763 65.4931 190.745ZM65.8796 190.702C66.7386 190.868 67.3881 190.847 67.6351 190.637C67.678 190.603 67.7117 190.559 67.7333 190.508C67.7548 190.457 67.7635 190.402 67.7585 190.347C67.7585 190.327 67.753 190.306 67.7426 190.289C67.7323 190.271 67.7174 190.256 67.6995 190.245H67.6673C67.3989 190.122 66.5346 190.423 65.9011 190.702H65.8796Z" fill="#FE632B"/>
<path d="M65.5521 190.804C65.5387 190.796 65.5279 190.784 65.5212 190.77C65.5145 190.755 65.5122 190.739 65.5146 190.724C65.5735 190.17 65.8065 189.649 66.1802 189.237C66.2538 189.175 66.3399 189.13 66.4326 189.105C66.5253 189.08 66.6224 189.075 66.717 189.092C66.9693 189.124 67.0391 189.253 67.0499 189.36C67.1089 189.8 66.1373 190.622 65.6595 190.82C65.6365 190.826 65.6127 190.826 65.5897 190.82L65.5521 190.804ZM66.6741 189.274C66.6066 189.265 66.5379 189.269 66.4723 189.288C66.4067 189.306 66.3456 189.338 66.2929 189.382C65.9979 189.713 65.8106 190.127 65.7561 190.568C66.25 190.294 66.9103 189.65 66.8781 189.382C66.8735 189.361 66.8629 189.341 66.8477 189.326C66.8325 189.311 66.8132 189.3 66.7922 189.296C66.7545 189.281 66.7144 189.274 66.6741 189.274Z" fill="#FE632B"/>
<path d="M57.3495 105.755C55.2881 114.677 58.8204 184.877 58.8204 184.877H65.6488L68.5691 126.363L79.3057 184.877L86.6065 184.341C81.8341 139.022 77.62 111.966 77.62 111.966V108.546L57.3495 105.755Z" fill="#263238"/>
<path opacity="0.2" d="M86.6173 184.33L79.3165 184.867L70.8614 138.807L68.5746 126.358L65.6542 184.872H58.8258C58.8258 184.872 55.2935 114.661 57.3495 105.755L77.6416 108.551V111.971C77.6416 111.971 81.8449 139.038 86.6173 184.33Z" fill="white"/>
<path d="M56.9038 75.5793C57.6189 79.7917 58.0191 84.0516 58.1009 88.3235C58.1707 91.3029 58.1009 94.1374 57.9989 96.7034C57.7305 102.721 57.1507 107.273 57.1776 108.836L77.6629 109.201C82.548 87.7814 78.35 76.1537 78.35 76.1537C76.7619 75.7127 75.1484 75.3685 73.5186 75.123C73.1607 75.0765 72.8028 75.0335 72.4449 74.9941C69.548 74.7738 66.6407 74.7201 63.7376 74.8331C63.2008 74.8331 62.6264 74.8814 62.0842 74.9244C59.3464 75.1552 56.9038 75.5793 56.9038 75.5793Z" fill="#FE632B"/>
<path d="M73.1107 75.6924C73.1107 75.6924 71.8921 77.4586 70.9151 77.582C69.5301 77.7699 64.4731 74.6724 64.4731 74.6724C65.6434 73.8081 66.2178 71.9239 66.4701 69.9323C66.6506 68.3156 66.6847 66.686 66.5721 65.0632L71.3016 70.206C70.6789 71.8165 70.3084 73.5344 71.5324 74.7422C71.9823 75.171 72.5212 75.4955 73.1107 75.6924Z" fill="#B55B52"/>
<path opacity="0.2" d="M71.5213 74.7263C69.4379 73.5896 67.6917 71.9229 66.459 69.8949C66.6395 68.2783 66.6736 66.6486 66.561 65.0259L71.2904 70.1687C70.6677 71.7953 70.3241 73.5453 71.5213 74.7263Z" fill="black"/>
<path d="M76.766 60.4251C77.1686 61.9121 76.766 64.9291 74.769 63.8554C72.772 62.7818 76.095 57.8591 76.766 60.4251Z" fill="#263238"/>
<path d="M66.0944 61.9549C65.7025 65.7127 65.2838 67.9137 66.8567 70.1308C69.2294 73.4591 74.1414 72.466 75.6499 68.8746C77.0134 65.6537 77.4214 60.017 74.0018 57.9556C73.2431 57.4996 72.3811 57.2435 71.4964 57.2112C70.6118 57.179 69.7334 57.3716 68.9435 57.7712C68.1535 58.1707 67.4778 58.7641 66.9795 59.4957C66.4813 60.2274 66.1767 61.0735 66.0944 61.9549Z" fill="#B55B52"/>
<path d="M68.8325 60.0115L69.0204 55.7867C69.0204 55.7867 64.5325 55.2498 64.6345 57.5689C62.0899 58.6963 63.0992 62.6205 66.3631 64.6658C68.2634 63.2808 68.2044 59.7323 68.2044 59.7323C68.3976 59.829 68.6124 59.9202 68.8325 60.0115Z" fill="#263238"/>
<path d="M64.1348 64.8268C64.2036 65.293 64.3642 65.7409 64.6075 66.1446C64.8508 66.5482 65.1718 66.8995 65.552 67.1781C66.572 67.9189 67.5329 67.1029 67.6188 65.9112C67.6993 64.8375 67.2645 63.1572 66.062 62.8888C65.7967 62.8366 65.5226 62.8507 65.2641 62.9298C65.0056 63.0089 64.7706 63.1506 64.58 63.3423C64.3893 63.534 64.2489 63.7698 64.1713 64.0287C64.0936 64.2877 64.0811 64.5618 64.1348 64.8268Z" fill="#B55B52"/>
<path d="M71.6078 63.882C71.5541 64.188 71.6776 64.4564 71.8762 64.4886C72.0748 64.5208 72.2788 64.3007 72.3271 63.9948C72.3755 63.6888 72.2574 63.4203 72.0587 63.3881C71.8601 63.3559 71.6561 63.576 71.6078 63.882Z" fill="#263238"/>
<path d="M75.0539 64.4191C75.0056 64.7251 75.1291 64.9988 75.3277 65.0257C75.5263 65.0525 75.7303 64.8378 75.7787 64.5318C75.827 64.2258 75.7089 63.9574 75.5102 63.9252C75.3116 63.893 75.1076 64.1184 75.0539 64.4191Z" fill="#263238"/>
<path d="M73.9324 64.4192C74.163 65.3767 74.5243 66.298 75.006 67.157C74.7712 67.2615 74.5169 67.3155 74.2599 67.3155C74.0028 67.3155 73.7486 67.2615 73.5137 67.157L73.9324 64.4192Z" fill="#A02724"/>
<path d="M71.6826 68.0695C71.8107 68.1099 71.9418 68.1405 72.0745 68.1608C72.0979 68.1639 72.1217 68.1578 72.1407 68.1438C72.1597 68.1298 72.1726 68.1089 72.1765 68.0857C72.1788 68.0736 72.1787 68.0613 72.1762 68.0493C72.1736 68.0374 72.1687 68.0261 72.1617 68.0161C72.1547 68.006 72.1457 67.9975 72.1354 67.9911C72.125 67.9846 72.1134 67.9802 72.1014 67.9783C71.7224 67.9276 71.3608 67.7884 71.0455 67.572C70.7303 67.3557 70.4705 67.0682 70.2869 66.7328C70.2828 66.7215 70.2764 66.7112 70.2681 66.7025C70.2598 66.6938 70.2497 66.687 70.2386 66.6824C70.2275 66.6779 70.2155 66.6757 70.2035 66.6761C70.1914 66.6764 70.1796 66.6793 70.1688 66.6845C70.1469 66.694 70.1296 66.7117 70.1206 66.7337C70.1115 66.7558 70.1115 66.7805 70.1205 66.8026C70.2803 67.1094 70.5015 67.3802 70.7702 67.5981C71.0389 67.816 71.3494 67.9765 71.6826 68.0695Z" fill="#263238"/>
<path d="M70.727 62.6047C70.7576 62.6149 70.7904 62.6163 70.8218 62.6087C70.8531 62.6011 70.8817 62.5848 70.9042 62.5618C71.0662 62.4001 71.2634 62.2782 71.4804 62.2056C71.6974 62.1329 71.9283 62.1115 72.155 62.1431C72.1779 62.1484 72.2016 62.1491 72.2248 62.1452C72.248 62.1413 72.2702 62.1329 72.2901 62.1204C72.3101 62.108 72.3274 62.0917 72.341 62.0726C72.3547 62.0534 72.3644 62.0318 72.3697 62.0089C72.375 61.9859 72.3757 61.9622 72.3718 61.939C72.368 61.9158 72.3595 61.8936 72.3471 61.8737C72.3346 61.8538 72.3184 61.8365 72.2992 61.8228C72.2801 61.8092 72.2584 61.7994 72.2355 61.7941C71.9508 61.7458 71.6586 61.7669 71.3839 61.8557C71.1091 61.9445 70.8598 62.0983 70.6572 62.3041C70.6231 62.3383 70.604 62.3847 70.604 62.433C70.604 62.4813 70.6231 62.5276 70.6572 62.5618C70.6773 62.5808 70.701 62.5954 70.727 62.6047Z" fill="#263238"/>
<path d="M76.7663 63.4691C76.7995 63.4797 76.8351 63.4797 76.8683 63.4691C76.9145 63.4554 76.9533 63.424 76.9765 63.3817C76.9996 63.3395 77.0051 63.2899 76.9918 63.2436C76.9162 62.9666 76.7747 62.712 76.5793 62.5017C76.3839 62.2913 76.1405 62.1314 75.8698 62.0357C75.8236 62.0238 75.7745 62.0299 75.7326 62.0529C75.6908 62.0758 75.6592 62.1138 75.6443 62.1592C75.631 62.2055 75.6365 62.2551 75.6596 62.2974C75.6828 62.3396 75.7216 62.371 75.7678 62.3847C75.9825 62.4603 76.1749 62.5883 76.3277 62.757C76.4805 62.9257 76.5888 63.1298 76.6428 63.351C76.6522 63.3792 76.6684 63.4048 76.6899 63.4254C76.7114 63.4459 76.7376 63.4609 76.7663 63.4691Z" fill="#263238"/>
<path d="M64.6338 57.569C64.6338 57.569 62.3147 55.266 70.1846 55.4754C78.0545 55.6847 79.3643 60.0974 75.7569 61.1228L75.5958 60.4034C74.9762 60.7229 74.2956 60.9063 73.5994 60.9415C72.9032 60.9767 72.2075 60.8628 71.5589 60.6074L72.1279 60.2531C72.1279 60.2531 66.7543 60.8007 64.6338 57.569Z" fill="#263238"/>
<path d="M70.9148 77.5658C70.9148 77.5658 69.9109 78.7254 68.7675 79.8688C67.0979 79.026 63.1898 76.766 63.3992 74.6777C63.63 74.0711 65.219 73.6846 65.219 73.6846C65.219 73.6846 66.9047 75.9339 70.9148 77.5658Z" fill="#FE632B"/>
<path d="M70.915 77.5659C71.7363 78.2279 72.4593 79.0033 73.0623 79.8689C74.2917 79.0744 73.6743 75.1878 73.2234 74.7583C72.5732 74.4031 71.8437 74.2185 71.1029 74.2215C71.3462 74.7521 71.4562 75.3341 71.4235 75.917C71.3907 76.4998 71.2162 77.0658 70.915 77.5659Z" fill="#FE632B"/>
<g opacity="0.5">
<path d="M70.9148 77.5658C70.9148 77.5658 69.9109 78.7254 68.7675 79.8688C67.0979 79.026 63.1898 76.766 63.3992 74.6777C63.63 74.0711 65.219 73.6846 65.219 73.6846C65.219 73.6846 66.9047 75.9339 70.9148 77.5658Z" fill="white"/>
<path d="M70.915 77.5659C71.7363 78.2279 72.4593 79.0033 73.0623 79.8689C74.2917 79.0744 73.6743 75.1878 73.2234 74.7583C72.5732 74.4031 71.8437 74.2185 71.1029 74.2215C71.3462 74.7521 71.4562 75.3341 71.4235 75.917C71.3907 76.4998 71.2162 77.0658 70.915 77.5659Z" fill="white"/>
</g>
<path opacity="0.2" d="M70.8616 138.807L68.5747 126.358L69.0149 119.771C69.0149 119.771 72.1446 131.195 70.8616 138.807Z" fill="black"/>
<path d="M59.0509 81.2646C57.0647 84.5769 53.9887 89.317 52.303 92.6829C51.4065 94.5887 51.1274 96.6286 50.6389 98.6847C50.1718 100.88 49.7048 103.119 49.1894 105.331L46.6234 105.105C46.5322 102.781 46.5536 100.478 46.6932 98.1532C46.8704 95.7321 46.9992 93.1178 47.9118 90.8201C49.7263 86.4021 52.1151 82.451 54.6758 78.4731L59.0509 81.2754V81.2646Z" fill="#B55B52"/>
<path d="M56.904 75.5796C54.0212 76.3258 48.8516 86.6865 48.8516 86.6865L54.9768 90.6537L60.5007 85.2854C60.8178 83.342 60.6986 81.3525 60.1518 79.4608C59.2553 76.2292 56.904 75.5796 56.904 75.5796Z" fill="#FE632B"/>
<path opacity="0.7" d="M56.904 75.5796C54.0212 76.3258 48.8516 86.6865 48.8516 86.6865L54.9768 90.6537L60.5007 85.2854C60.8178 83.342 60.6986 81.3525 60.1518 79.4608C59.2553 76.2292 56.904 75.5796 56.904 75.5796Z" fill="white"/>
<path d="M59.0767 107.517L101.63 62.3919C101.859 62.1488 102.134 61.9532 102.439 61.8163C102.744 61.6795 103.073 61.604 103.407 61.5942C103.741 61.5844 104.074 61.6405 104.386 61.7592C104.698 61.878 104.984 62.0571 105.227 62.2864L106.254 63.255C106.745 63.718 107.032 64.3571 107.052 65.0317C107.072 65.7063 106.823 66.3611 106.36 66.852L63.8063 111.977L59.0767 107.517Z" fill="#263238"/>
<path opacity="0.6" d="M59.0767 107.517L101.63 62.3919C101.859 62.1488 102.134 61.9532 102.439 61.8163C102.744 61.6795 103.073 61.604 103.407 61.5942C103.741 61.5844 104.074 61.6405 104.386 61.7592C104.698 61.878 104.984 62.0571 105.227 62.2864L106.254 63.255C106.745 63.718 107.032 64.3571 107.052 65.0317C107.072 65.7063 106.823 66.3611 106.36 66.852L63.8063 111.977L59.0767 107.517Z" fill="white"/>
<path opacity="0.2" d="M105.54 62.5886L106.254 63.2597C106.497 63.4883 106.693 63.7626 106.83 64.0669C106.967 64.3712 107.042 64.6995 107.052 65.0331C107.062 65.3666 107.006 65.6989 106.888 66.0108C106.769 66.3227 106.59 66.6083 106.361 66.851L63.8072 111.982L63.0986 111.311L105.653 66.18C105.881 65.9369 106.06 65.6511 106.178 65.339C106.296 65.0268 106.351 64.6945 106.341 64.3609C106.33 64.0274 106.254 63.6992 106.117 63.3951C105.98 63.091 105.784 62.8169 105.54 62.5886Z" fill="black"/>
<path d="M91.9639 80.0621L99.8498 87.5025L100.875 86.4128L99.8552 85.4519L101.476 83.7287L100.881 83.165L103.318 80.5829L103.914 81.1465L105.438 79.5307L106.458 80.497L107.516 79.3696L106.92 78.806L108.444 77.1847L107.247 76.0574L108.246 74.9999L110.044 76.6909L111.869 74.7583L103.983 67.3179L91.9639 80.0621Z" fill="#263238"/>
<path opacity="0.6" d="M91.9639 80.0621L99.8498 87.5025L100.875 86.4128L99.8552 85.4519L101.476 83.7287L100.881 83.165L103.318 80.5829L103.914 81.1465L105.438 79.5307L106.458 80.497L107.516 79.3696L106.92 78.806L108.444 77.1847L107.247 76.0574L108.246 74.9999L110.044 76.6909L111.869 74.7583L103.983 67.3179L91.9639 80.0621Z" fill="white"/>
<g opacity="0.2">
<path opacity="0.6" d="M100.165 85.7495L99.1406 86.8352L99.8514 87.5055L100.875 86.4198L100.165 85.7495Z" fill="black"/>
<path opacity="0.6" d="M103.914 81.147L103.318 80.578L100.88 83.1655L101.476 83.7291L99.8551 85.4523L99.1411 84.7813L100.768 83.0581L100.166 82.4944L102.604 79.9069L103.205 80.476L104.724 78.8601L105.438 79.5311L103.914 81.147Z" fill="black"/>
<path opacity="0.6" d="M106.206 78.1298L107.736 76.5139L108.45 77.1849L106.92 78.8062L107.521 79.3698L106.458 80.4972L105.75 79.8261L106.807 78.6988L106.206 78.1298Z" fill="black"/>
<path opacity="0.6" d="M107.529 74.3268L106.531 75.3853L107.242 76.0556L108.24 74.9972L107.529 74.3268Z" fill="black"/>
<path opacity="0.6" d="M111.157 74.0912L109.331 76.0283L110.041 76.6986L111.868 74.7615L111.157 74.0912Z" fill="black"/>
</g>
<path d="M100.497 62.7627L87.4519 76.5963C87.2363 76.8249 87.2469 77.185 87.4755 77.4007L92.2091 81.8645C92.4377 82.0801 92.7979 82.0695 93.0135 81.8409L106.059 68.0073C106.274 67.7786 106.264 67.4185 106.035 67.2029L101.302 62.7391C101.073 62.5235 100.713 62.534 100.497 62.7627Z" fill="#263238"/>
<path d="M64.0542 126.567C63.0642 127.617 61.8769 128.462 60.5603 129.054C59.2437 129.645 57.8235 129.971 56.3809 130.013C54.9382 130.056 53.5013 129.814 52.1522 129.301C50.8032 128.788 49.5684 128.014 48.5185 127.024L44.9539 123.663C43.9037 122.673 43.0588 121.486 42.4675 120.169C41.8762 118.853 41.55 117.432 41.5077 115.99C41.4653 114.547 41.7075 113.11 42.2206 111.761C42.7336 110.412 43.5073 109.177 44.4976 108.127C45.4886 107.073 46.6779 106.224 47.9974 105.631C49.3168 105.037 50.7406 104.709 52.1869 104.667C53.6332 104.625 55.0736 104.868 56.4257 105.384C57.7777 105.899 59.0146 106.676 60.0656 107.671L63.6247 111.031C64.6731 112.023 65.5159 113.212 66.1049 114.529C66.6938 115.847 67.0175 117.268 67.0574 118.71C67.0972 120.153 66.8526 121.589 66.3373 122.938C65.822 124.286 65.0462 125.519 64.0542 126.567Z" fill="#263238"/>
<path d="M59.9582 122.702C59.4656 123.225 58.8747 123.646 58.2192 123.941C57.5638 124.236 56.8566 124.399 56.1382 124.42C55.4198 124.442 54.7042 124.321 54.0324 124.066C53.3605 123.811 52.7455 123.426 52.2226 122.933L48.8513 119.712C48.3283 119.219 47.9076 118.628 47.6132 117.972C47.3189 117.316 47.1566 116.609 47.1356 115.891C47.1147 115.172 47.2355 114.457 47.4912 113.785C47.7469 113.113 48.1325 112.499 48.6258 111.976C49.118 111.453 49.7086 111.032 50.3638 110.737C51.0191 110.442 51.726 110.28 52.4442 110.259C53.1623 110.238 53.8776 110.359 54.5489 110.615C55.2201 110.871 55.8343 111.257 56.3561 111.751L59.7596 114.972C60.8105 115.971 61.4217 117.346 61.459 118.796C61.4962 120.245 60.9564 121.65 59.9582 122.702Z" fill="white"/>
<path opacity="0.5" d="M100.497 62.7627L87.4519 76.5963C87.2363 76.8249 87.2469 77.185 87.4755 77.4007L92.2091 81.8645C92.4377 82.0801 92.7979 82.0695 93.0135 81.8409L106.059 68.0073C106.274 67.7786 106.264 67.4185 106.035 67.2029L101.302 62.7391C101.073 62.5235 100.713 62.534 100.497 62.7627Z" fill="white"/>
<g opacity="0.5">
<path d="M64.0542 126.567C63.0642 127.617 61.8769 128.462 60.5603 129.054C59.2437 129.645 57.8235 129.971 56.3809 130.013C54.9382 130.056 53.5013 129.814 52.1522 129.301C50.8032 128.788 49.5684 128.014 48.5185 127.024L44.9539 123.663C43.9037 122.673 43.0588 121.486 42.4675 120.169C41.8762 118.853 41.55 117.432 41.5077 115.99C41.4653 114.547 41.7075 113.11 42.2206 111.761C42.7336 110.412 43.5073 109.177 44.4976 108.127C45.4886 107.073 46.6779 106.224 47.9974 105.631C49.3168 105.037 50.7406 104.709 52.1869 104.667C53.6332 104.625 55.0736 104.868 56.4257 105.384C57.7777 105.899 59.0146 106.676 60.0656 107.671L63.6247 111.031C64.6731 112.023 65.5159 113.212 66.1049 114.529C66.6938 115.847 67.0175 117.268 67.0574 118.71C67.0972 120.153 66.8526 121.589 66.3373 122.938C65.822 124.286 65.0462 125.519 64.0542 126.567Z" fill="white"/>
<path d="M59.9582 122.702C59.4656 123.225 58.8747 123.646 58.2192 123.941C57.5638 124.236 56.8566 124.399 56.1382 124.42C55.4198 124.442 54.7042 124.321 54.0324 124.066C53.3605 123.811 52.7455 123.426 52.2226 122.932L48.8513 119.712C48.3283 119.219 47.9076 118.627 47.6132 117.972C47.3189 117.316 47.1566 116.609 47.1356 115.89C47.1147 115.172 47.2355 114.457 47.4912 113.785C47.7469 113.113 48.1325 112.498 48.6258 111.976C49.118 111.452 49.7086 111.031 50.3638 110.737C51.0191 110.442 51.726 110.279 52.4442 110.258C53.1623 110.237 53.8776 110.358 54.5489 110.615C55.2201 110.871 55.8343 111.257 56.3561 111.75L59.7596 114.971C60.8105 115.97 61.4217 117.346 61.459 118.795C61.4962 120.245 60.9564 121.65 59.9582 122.702Z" fill="white"/>
</g>
<path opacity="0.2" d="M104.612 65.8577L106.04 67.1997C106.094 67.2527 106.136 67.3158 106.165 67.3854C106.194 67.4549 106.209 67.5296 106.209 67.605C106.209 67.6805 106.194 67.7551 106.165 67.8247C106.136 67.8943 106.094 67.9574 106.04 68.0103L92.9949 81.839C92.9424 81.8926 92.8798 81.9351 92.8107 81.9642C92.7415 81.9932 92.6673 82.0082 92.5923 82.0082C92.5173 82.0082 92.4431 81.9932 92.3739 81.9642C92.3048 81.9351 92.2422 81.8926 92.1897 81.839L90.7671 80.4969C90.8736 80.6022 91.0173 80.6612 91.167 80.6612C91.3168 80.6612 91.4605 80.6022 91.567 80.4969L104.612 66.6629C104.665 66.6104 104.708 66.5478 104.737 66.4786C104.766 66.4095 104.781 66.3353 104.781 66.2603C104.781 66.1853 104.766 66.1111 104.737 66.0419C104.708 65.9728 104.665 65.9101 104.612 65.8577Z" fill="black"/>
<g opacity="0.2">
<path d="M55.2934 110.758L56.3671 111.762C55.3003 110.84 53.9189 110.365 52.5107 110.436C51.1024 110.507 49.7758 111.118 48.8072 112.143C47.8386 113.168 47.3025 114.526 47.3108 115.936C47.3191 117.346 47.8709 118.699 48.8515 119.712L47.7779 118.703C46.7221 117.706 46.1056 116.331 46.0638 114.88C46.022 113.429 46.5584 112.02 47.5551 110.965C48.5517 109.909 49.9269 109.292 51.3781 109.251C52.8293 109.209 54.2377 109.745 55.2934 110.742V110.758Z" fill="black"/>
<path d="M62.535 110.049L63.6087 111.059C65.6623 113.075 66.8436 115.816 66.8989 118.693C66.9542 121.57 65.8791 124.355 63.9044 126.448C61.9296 128.541 59.2128 129.777 56.3371 129.89C53.4615 130.003 50.6563 128.983 48.5238 127.051L47.4502 126.047C49.5755 128.025 52.397 129.082 55.2989 128.987C58.2008 128.892 60.9474 127.654 62.9392 125.541C64.9311 123.429 66.0065 120.614 65.9308 117.712C65.8551 114.81 64.6343 112.055 62.535 110.049Z" fill="black"/>
</g>
<g opacity="0.2">
<path d="M55.2934 110.758L56.3671 111.762C55.3003 110.84 53.9189 110.365 52.5107 110.436C51.1024 110.507 49.7758 111.118 48.8072 112.143C47.8386 113.168 47.3025 114.526 47.3108 115.936C47.3191 117.346 47.8709 118.699 48.8515 119.712L47.7779 118.703C46.7221 117.706 46.1056 116.331 46.0638 114.88C46.022 113.429 46.5584 112.02 47.5551 110.965C48.5517 109.909 49.9269 109.292 51.3781 109.251C52.8293 109.209 54.2377 109.745 55.2934 110.742V110.758Z" fill="black"/>
<path d="M55.2934 110.758L56.3671 111.762C55.3003 110.84 53.9189 110.365 52.5107 110.436C51.1024 110.507 49.7758 111.118 48.8072 112.143C47.8386 113.168 47.3025 114.526 47.3108 115.936C47.3191 117.346 47.8709 118.699 48.8515 119.712L47.7779 118.703C46.7221 117.706 46.1056 116.331 46.0638 114.88C46.022 113.429 46.5584 112.02 47.5551 110.965C48.5517 109.909 49.9269 109.292 51.3781 109.251C52.8293 109.209 54.2377 109.745 55.2934 110.742V110.758Z" fill="black"/>
</g>
<path d="M47.1224 111.236L51.068 110.248L50.6278 107.365L45.8179 108.337L47.1224 111.236Z" fill="#B55B52"/>
<path d="M46.7358 104.563L45.8179 108.321L50.6493 107.349C50.6493 107.349 50.7137 103.972 48.9207 103.752L46.7358 104.563Z" fill="#B55B52"/>
</svg>
