<svg width="16" height="16" viewBox="0 0 16 16" fill="none" xmlns="http://www.w3.org/2000/svg">
<path d="M1.25417 0.5C1.41993 0.5 1.5789 0.565848 1.69611 0.683058C1.81332 0.800268 1.87917 0.95924 1.87917 1.125L1.87917 14.875C1.87917 15.0408 1.81332 15.1997 1.69611 15.3169C1.5789 15.4342 1.41993 15.5 1.25417 15.5C1.08841 15.5 0.929435 15.4342 0.812224 15.3169C0.695014 15.1997 0.629167 15.0408 0.629167 14.875L0.629167 1.125C0.628045 1.04261 0.643446 0.960837 0.674458 0.884502C0.70547 0.808167 0.751464 0.738823 0.809726 0.680561C0.867987 0.6223 0.937334 0.576304 1.01367 0.545292C1.09 0.514279 1.17178 0.498879 1.25417 0.5ZM4.0875 8.49083C4.08001 8.20044 4.1401 7.91227 4.26302 7.64907C4.38595 7.38586 4.56835 7.15482 4.79583 6.97417L12.3875 1.06583C12.6592 0.860001 12.9817 0.732501 13.3208 0.699167H13.5125C13.801 0.691946 14.087 0.754857 14.3458 0.8825C14.654 1.03292 14.9139 1.26678 15.0958 1.5575C15.277 1.84726 15.3723 2.18243 15.3708 2.52417L15.3708 13.4825C15.3699 13.8111 15.2807 14.1335 15.1125 14.4158C14.9391 14.6965 14.6948 14.9265 14.4042 15.0825C14.1147 15.239 13.7881 15.3139 13.4593 15.2992C13.1305 15.2845 12.8119 15.1808 12.5375 14.9992L4.9375 9.9325C4.69583 9.77333 4.49583 9.55917 4.35417 9.3075C4.20463 9.05896 4.11345 8.77973 4.0875 8.49083Z" fill="white"/>
</svg>
