<svg width="16" height="20" viewBox="0 0 16 20" fill="none" xmlns="http://www.w3.org/2000/svg">
<path d="M7.99966 4.0001C10.0997 4.0001 12.0997 4.8001 13.5997 6.3001C16.6997 9.4001 16.6997 14.5001 13.5997 17.6001C11.7997 19.5001 9.29966 20.2001 6.89966 19.9001L7.39966 17.9001C9.09966 18.1001 10.8997 17.5001 12.1997 16.2001C14.4997 13.9001 14.4997 10.1001 12.1997 7.7001C11.0997 6.6001 9.49966 6.0001 7.99966 6.0001V10.6001L2.99966 5.6001L7.99966 0.600098V4.0001ZM2.29966 17.6001C-0.300337 15.0001 -0.700337 11.0001 1.09966 7.9001L2.59966 9.4001C1.49966 11.6001 1.89966 14.4001 3.79966 16.2001C4.29966 16.7001 4.89966 17.1001 5.59966 17.4001L4.99966 19.4001C3.99966 19.0001 3.09966 18.4001 2.29966 17.6001Z" fill="white"/>
</svg>
