<svg width="24" height="24" viewBox="0 0 24 24" fill="none" xmlns="http://www.w3.org/2000/svg">
<path fill-rule="evenodd" clip-rule="evenodd" d="M6.55232 0.333984H17.4478C21.4157 0.333984 23.6557 2.58448 23.6673 6.55232V17.449C23.6673 21.4157 21.4157 23.6673 17.4478 23.6673H6.55232C2.58448 23.6673 0.333984 21.4157 0.333984 17.449V6.55232C0.333984 2.58448 2.58448 0.333984 6.55232 0.333984ZM12.0578 18.8373C12.5607 18.8373 12.9795 18.464 13.0262 17.9623V6.07398C13.0728 5.71232 12.899 5.34948 12.584 5.15232C12.2562 4.95398 11.8595 4.95398 11.5457 5.15232C11.2295 5.34948 11.0557 5.71232 11.0895 6.07398V17.9623C11.149 18.464 11.5678 18.8373 12.0578 18.8373ZM17.4257 18.8373C17.9157 18.8373 18.3345 18.464 18.394 17.9623V14.1357C18.4278 13.7612 18.254 13.4123 17.9378 13.214C17.624 13.0157 17.2273 13.0157 16.9007 13.214C16.5845 13.4123 16.4107 13.7612 16.4573 14.1357V17.9623C16.504 18.464 16.9228 18.8373 17.4257 18.8373ZM7.58948 17.9623C7.54282 18.464 7.12398 18.8373 6.62115 18.8373C6.11948 18.8373 5.69948 18.464 5.65398 17.9623V9.90065C5.61898 9.53782 5.79282 9.17732 6.10898 8.97898C6.42282 8.78065 6.82065 8.78065 7.13565 8.97898C7.44948 9.17732 7.62565 9.53782 7.58948 9.90065V17.9623Z" fill=""/>
</svg>
