<svg width="26" height="26" viewBox="0 0 26 26" fill="none" xmlns="http://www.w3.org/2000/svg">
<circle cx="13" cy="13" r="13" transform="rotate(-180 13 13)" fill="white"/>
<path d="M7.0415 18.9587V7.04199H9.02761V18.9587H7.0415ZM11.0137 18.9587L20.9443 13.0003L11.0137 7.04199V18.9587Z" fill="#FE632B"/>
<path d="M0.466881 9.54734C0.972857 7.71066 1.87633 6.00763 3.11336 4.55877C4.3504 3.10992 5.89075 1.95066 7.62542 1.16303C9.36009 0.375408 11.2467 -0.0213337 13.1516 0.000888824C15.0566 0.0231094 16.9334 0.463753 18.6492 1.29163L17.7532 3.14879C16.3095 2.45223 14.7304 2.08148 13.1276 2.06279C11.5248 2.04409 9.93744 2.3779 8.47793 3.04059C7.01841 3.70329 5.72238 4.67867 4.68157 5.89771C3.64075 7.11674 2.88058 8.54964 2.45486 10.095L0.466881 9.54734Z" fill="#FE632B" fill-opacity="0.4"/>
<path d="M13.9079 0.0317414C16.6437 0.223275 19.2489 1.27514 21.3508 3.03687C23.4527 4.79859 24.9435 7.17993 25.6101 9.84023C26.2767 12.5005 26.0849 15.3035 25.0621 17.8482C24.0393 20.3929 22.238 22.5489 19.9157 24.0079C17.5934 25.4668 14.8692 26.154 12.1328 25.971C9.39632 25.7881 6.78785 24.7444 4.68046 22.9893C2.57308 21.2341 1.07475 18.8575 0.399817 16.1993C-0.275119 13.5411 -0.0920872 10.7375 0.92273 8.18964L2.83841 8.95265C1.98456 11.0964 1.83056 13.4553 2.39844 15.6918C2.96632 17.9284 4.22698 19.928 6.00009 21.4048C7.77321 22.8815 9.96793 23.7597 12.2703 23.9136C14.5727 24.0675 16.8648 23.4894 18.8187 22.2618C20.7726 21.0343 22.2883 19.2202 23.1489 17.0792C24.0094 14.9381 24.1708 12.5798 23.6099 10.3414C23.0491 8.1031 21.7947 6.09949 20.0262 4.6172C18.2577 3.13492 16.0658 2.2499 13.7639 2.08875L13.9079 0.0317414Z" fill="#FE632B"/>
</svg>
