<svg width="20" height="20" viewBox="0 0 20 20" fill="none" xmlns="http://www.w3.org/2000/svg">
<path d="M16.7458 17.5C16.5801 17.5 16.4211 17.4342 16.3039 17.3169C16.1867 17.1997 16.1208 17.0408 16.1208 16.875V3.125C16.1208 2.95924 16.1867 2.80027 16.3039 2.68306C16.4211 2.56585 16.5801 2.5 16.7458 2.5C16.9116 2.5 17.0706 2.56585 17.1878 2.68306C17.305 2.80027 17.3708 2.95924 17.3708 3.125V16.875C17.372 16.9574 17.3566 17.0392 17.3255 17.1155C17.2945 17.1918 17.2485 17.2612 17.1903 17.3194C17.132 17.3777 17.0627 17.4237 16.9863 17.4547C16.91 17.4857 16.8282 17.5011 16.7458 17.5ZM13.9125 9.50917C13.92 9.79956 13.8599 10.0877 13.737 10.3509C13.6141 10.6141 13.4317 10.8452 13.2042 11.0258L5.6125 16.9342C5.34083 17.14 5.01833 17.2675 4.67917 17.3008H4.4875C4.19898 17.3081 3.91302 17.2451 3.65417 17.1175C3.34595 16.9671 3.08611 16.7332 2.90417 16.4425C2.723 16.1527 2.62765 15.8176 2.62917 15.4758V4.5175C2.63007 4.18886 2.71929 3.8665 2.8875 3.58417C3.06086 3.3035 3.30519 3.07354 3.59583 2.9175C3.88535 2.76101 4.21193 2.6861 4.5407 2.70078C4.86948 2.71546 5.18809 2.81917 5.4625 3.00083L13.0625 8.0675C13.3042 8.22667 13.5042 8.44083 13.6458 8.6925C13.7954 8.94104 13.8866 9.22027 13.9125 9.50917Z" fill="white"/>
</svg>
