<svg width="185" height="100" viewBox="0 0 185 100" fill="none" xmlns="http://www.w3.org/2000/svg">
<rect x="39.7074" width="27.0732" height="100" rx="13.5366" fill="white"/>
<rect x="117.317" width="27.0732" height="100" rx="13.5366" fill="white"/>
<rect x="70.3901" y="60" width="21" height="42.4147" rx="10.5" transform="rotate(-90 70.3901 60)" fill="white"/>
<path d="M149.805 13C150.122 13 150.28 13 150.415 13.0024C158.489 13.1468 165 19.6575 165.144 27.7318C165.146 27.8659 165.146 28.0244 165.146 28.3415V70.6585C165.146 70.9756 165.146 71.1341 165.144 71.2682C165 79.3425 158.489 85.8532 150.415 85.9976C150.28 86 150.122 86 149.805 86V13Z" fill="white"/>
<path d="M34.2927 87C33.9757 87 33.8172 87 33.6831 86.9976C25.6088 86.8532 19.098 80.3425 18.9537 72.2682C18.9513 72.1341 18.9513 71.9756 18.9513 71.6585L18.9513 29.3415C18.9513 29.0244 18.9513 28.8659 18.9537 28.7318C19.098 20.6575 25.6088 14.1468 33.6831 14.0024C33.8172 14 33.9757 14 34.2927 14L34.2927 87Z" fill="white"/>
<path d="M15.3415 61H11.5C5.14874 61 2.28882e-05 55.8513 2.28882e-05 49.5C2.28882e-05 43.1487 5.14874 38 11.5 38H15.3415L15.3415 61Z" fill="white"/>
<path d="M169.659 39H173.5C179.851 39 185 44.1487 185 50.5C185 56.8513 179.851 62 173.5 62H169.659V39Z" fill="white"/>
</svg>
