<svg width="32" height="32" viewBox="0 0 32 32" fill="none" xmlns="http://www.w3.org/2000/svg">
<circle cx="16" cy="16" r="15.5" fill="#FE632B" stroke="#FE632B"/>
<path d="M21.4025 17.3195C21.3366 17.3872 21.0877 17.6765 20.8559 17.9145C19.4966 19.4113 15.9505 21.8613 14.0945 22.6092C13.8127 22.7293 13.1001 22.9837 12.7193 23C12.3545 23 12.0067 22.916 11.6748 22.7457C11.2611 22.5077 10.9292 22.1332 10.7474 21.691C10.6303 21.3842 10.4485 20.466 10.4485 20.4497C10.2666 19.4452 10.1666 17.813 10.1666 16.0093C10.1666 14.2908 10.2666 12.7252 10.4155 11.7055C10.4326 11.6892 10.6144 10.5482 10.8133 10.1573C11.1782 9.44333 11.8908 9 12.6534 9H12.7193C13.216 9.0175 14.2605 9.46083 14.2605 9.47717C16.0164 10.2262 19.4806 12.556 20.8729 14.1042C20.8729 14.1042 21.265 14.502 21.4355 14.7505C21.7015 15.1075 21.8333 15.5497 21.8333 15.9918C21.8333 16.4853 21.6844 16.945 21.4025 17.3195Z" fill="white"/>
</svg>
